<?xml version="1.0" standalone="no"?>
<!DOCTYPE svg PUBLIC "-//W3C//DTD SVG 20010904//EN"
 "http://www.w3.org/TR/2001/REC-SVG-20010904/DTD/svg10.dtd">
<svg version="1.0" xmlns="http://www.w3.org/2000/svg"
 width="1200.000000pt" height="800.000000pt" viewBox="0 0 1200.000000 800.000000"
 preserveAspectRatio="xMidYMid meet">

<g transform="translate(0.000000,800.000000) scale(0.100000,-0.100000)"
fill="#000000" stroke="none">
<path d="M2105 6270 c-3 -6 -4 -19 0 -29 9 -30 -24 -44 -59 -25 -41 21 -46 18
-46 -25 0 -42 13 -59 33 -43 21 16 56 20 66 8 7 -8 11 -148 11 -384 0 -313 -3
-382 -17 -435 -20 -76 -28 -213 -15 -241 24 -49 26 -111 26 -721 0 -503 -3
-650 -13 -685 -18 -61 -26 -199 -12 -213 6 -6 11 -24 11 -39 0 -16 5 -36 11
-46 8 -13 10 -119 4 -384 -7 -348 -8 -367 -26 -371 -11 -3 -26 1 -33 9 -19 18
-42 18 -50 -1 -5 -13 -109 -15 -853 -16 -583 0 -839 -4 -818 -11 19 -6 326
-10 848 -10 781 1 817 0 817 -17 0 -33 25 -45 54 -26 55 36 56 31 56 -265 l0
-270 -68 0 c-86 0 -152 -30 -166 -76 -4 -16 -12 -37 -17 -46 -5 -10 -9 -25 -9
-35 0 -12 -3 -14 -11 -6 -11 11 -49 6 -49 -7 0 -4 9 -15 21 -26 l21 -19 -33
-27 c-18 -15 -29 -31 -25 -35 11 -11 263 -17 352 -8 68 6 83 12 206 84 126 74
166 111 120 111 -34 0 -52 11 -52 32 0 50 -13 56 -122 57 -56 1 -105 5 -108 9
-3 4 -3 126 0 272 l5 265 75 -1 c49 -1 87 -7 107 -18 35 -17 197 -23 207 -7 9
14 71 22 196 26 208 7 6610 6 6661 -1 27 -4 52 -11 55 -15 8 -13 172 -11 196
2 12 6 70 14 130 17 l108 5 -2 -274 -3 -274 -110 -5 -110 -5 -10 -30 c-15 -46
-24 -55 -51 -55 -31 0 -41 -25 -20 -49 15 -17 13 -17 -41 -14 l-58 3 40 -15
c34 -14 81 -26 194 -51 13 -3 49 -19 80 -36 l56 -32 182 -4 c188 -5 233 0 233
21 -1 6 -15 21 -33 32 -20 13 -34 32 -40 55 -35 134 -35 135 -74 155 -22 11
-69 21 -113 25 l-75 5 -3 273 -2 272 34 0 c18 0 39 -7 46 -15 18 -22 30 -9 30
35 0 41 -15 59 -33 41 -6 -6 -26 -11 -44 -11 l-33 0 0 383 c0 269 3 386 11
394 6 6 14 61 17 121 4 86 1 120 -12 158 -14 42 -16 121 -16 686 0 473 3 645
12 661 6 12 14 72 16 132 3 86 1 118 -12 149 -23 55 -24 841 -1 849 20 8 57 0
66 -14 13 -21 29 2 29 42 0 28 -4 39 -15 39 -8 0 -15 -4 -15 -9 0 -14 -37 -23
-60 -16 -15 5 -20 15 -20 41 0 27 -4 34 -20 34 -16 0 -20 -7 -20 -34 l0 -34
-77 -4 c-54 -2 -94 2 -133 15 -63 20 -181 18 -265 -3 -68 -18 -6755 -16 -6831
1 -92 21 -188 22 -261 2 -48 -14 -85 -18 -128 -14 -59 6 -60 7 -63 39 -3 31
-24 44 -37 22z m7603 -77 c-10 -2 -26 -2 -35 0 -10 3 -2 5 17 5 19 0 27 -2 18
-5z m-7355 -48 c46 -16 192 -20 201 -6 3 5 23 12 43 16 21 4 1551 9 3401 11
3105 3 3366 2 3420 -13 88 -25 185 -28 251 -7 35 11 88 18 141 19 l85 0 3
-405 c2 -341 0 -412 -13 -452 -18 -57 -20 -199 -2 -216 9 -10 13 -164 15 -685
3 -584 1 -677 -13 -718 -19 -59 -21 -209 -2 -227 9 -10 13 -112 15 -422 l3
-410 -88 0 c-48 0 -106 6 -128 12 -51 15 -196 15 -255 0 -33 -8 -640 -11
-2255 -11 -1215 1 -2683 0 -3260 0 -700 -1 -1097 2 -1190 10 -284 23 -339 25
-375 13 -19 -7 -69 -14 -110 -16 l-75 -3 -6 85 c-14 187 -21 668 -10 674 6 4
11 22 11 40 0 17 5 37 11 43 14 14 6 166 -12 218 -11 32 -14 170 -16 670 -2
387 0 638 6 650 37 77 37 260 0 340 -5 11 -8 188 -7 410 l3 390 45 6 c56 8
108 3 163 -16z m-214 -847 c1 -11 -5 -15 -18 -11 -17 4 -18 9 -8 36 9 27 11
29 18 11 4 -10 8 -26 8 -36z m7801 11 c0 -17 -4 -28 -9 -24 -5 3 -9 19 -9 35
1 38 18 28 18 -11z m-7798 -1623 c2 -21 -2 -29 -14 -31 -13 -2 -18 3 -18 20 0
59 26 67 32 11z m7801 7 c6 -31 0 -46 -14 -38 -12 8 -12 65 0 65 5 0 11 -12
14 -27z m-230 -1090 c-7 -2 -21 -2 -30 0 -10 3 -4 5 12 5 17 0 24 -2 18 -5z"/>
<path d="M2259 6046 c-4 -5 -7 -430 -3 -440 4 -9 20 1 54 33 49 47 123 91 153
91 9 0 19 5 22 10 3 6 22 10 41 10 28 0 36 5 44 25 11 30 26 32 40 5 8 -14 21
-20 48 -20 201 0 335 -96 446 -317 15 -30 34 -53 47 -56 17 -5 20 -11 15 -34
-5 -22 2 -41 33 -88 102 -155 232 -215 464 -215 141 0 236 20 319 68 100 58
161 131 268 322 65 116 109 176 158 213 92 71 152 84 422 92 391 11 566 71
693 238 20 27 37 53 37 58 0 8 -1596 7 -1730 0 -8 -1 -37 2 -63 5 -37 5 -52 2
-66 -10 -16 -15 -19 -15 -31 -1 -17 20 -98 21 -106 0 -4 -8 -15 -15 -25 -15
-10 0 -19 7 -19 15 0 11 -12 15 -49 15 -40 0 -50 -3 -54 -20 -3 -11 -12 -20
-21 -20 -9 0 -16 8 -16 20 0 18 -7 20 -55 20 -48 0 -55 -3 -55 -19 0 -11 -5
-23 -11 -27 -14 -8 -31 16 -24 34 4 11 -87 13 -485 11 -270 -1 -490 -2 -491
-3z m866 -26 c0 -8 -8 -16 -17 -18 -13 -2 -18 3 -18 18 0 15 5 20 18 18 9 -2
17 -10 17 -18z m-265 -40 c10 -5 26 -17 35 -27 16 -16 16 -17 -1 -30 -28 -21
-72 -17 -79 8 -4 12 -2 26 4 32 15 15 14 27 -4 27 -21 0 -19 28 3 32 10 2 18
-3 20 -14 2 -10 12 -23 22 -28z m118 33 c-2 -10 -10 -18 -18 -18 -8 0 -16 8
-18 18 -2 12 3 17 18 17 15 0 20 -5 18 -17z m-292 -4 c10 -17 -13 -36 -27 -22
-12 12 -4 33 11 33 5 0 12 -5 16 -11z m-290 -10 c10 -17 -13 -36 -27 -22 -12
12 -4 33 11 33 5 0 12 -5 16 -11z m147 4 c9 -9 -13 -34 -24 -27 -14 8 -11 34
4 34 8 0 17 -3 20 -7z m1521 -24 c-8 -14 -34 -11 -34 4 0 8 3 17 7 20 9 9 34
-13 27 -24z m-144 1 c0 -13 -7 -20 -20 -20 -19 0 -27 20 -13 33 13 14 33 6 33
-13z m-259 -11 c11 -11 18 -27 15 -34 -2 -7 2 -16 10 -19 21 -8 17 -36 -6 -36
-11 0 -20 7 -20 15 0 9 -9 15 -23 15 -16 0 -28 9 -35 25 -16 35 -15 43 6 48
30 8 32 7 53 -14z m114 1 c0 -22 -29 -18 -33 3 -3 14 1 18 15 15 10 -2 18 -10
18 -18z m698 -12 c15 -43 -56 -68 -72 -25 -7 17 -4 26 12 39 22 17 51 10 60
-14z m788 0 c13 -25 -4 -48 -37 -48 -35 0 -50 34 -24 60 22 22 45 18 61 -12z
m-1923 -1 c2 -12 -3 -17 -17 -17 -12 0 -21 6 -21 13 0 31 32 34 38 4z m142 3
c0 -23 -25 -27 -33 -6 -7 16 1 26 20 26 7 0 13 -9 13 -20z m-285 -10 c0 -8 -8
-16 -17 -18 -13 -2 -18 3 -18 18 0 15 5 20 18 18 9 -2 17 -10 17 -18z m-147
-7 c-2 -10 -10 -18 -18 -18 -8 0 -16 8 -18 18 -2 12 3 17 18 17 15 0 20 -5 18
-17z m-439 -30 c-15 -18 -34 -1 -25 22 5 14 9 15 21 5 12 -10 13 -16 4 -27z
m147 26 c10 -17 -13 -36 -27 -22 -12 12 -4 33 11 33 5 0 12 -5 16 -11z m-290
-10 c10 -17 -13 -36 -27 -22 -12 12 -4 33 11 33 5 0 12 -5 16 -11z m-143 -6
c4 -3 2 -12 -4 -20 -9 -10 -15 -10 -25 -2 -8 6 -11 15 -8 20 6 11 28 12 37 2z
m1519 -35 c-17 -17 -47 9 -30 29 10 12 13 12 27 -1 11 -12 12 -19 3 -28z m148
28 c0 -8 -5 -18 -11 -22 -14 -8 -33 11 -25 25 10 16 36 13 36 -3z m-580 -32
c0 -8 -9 -14 -20 -14 -19 0 -27 19 -14 33 10 9 34 -4 34 -19z m148 9 c5 -18
-28 -29 -38 -12 -5 7 -6 17 -3 22 7 12 35 5 41 -10z m-292 -4 c9 -15 -11 -33
-30 -26 -9 4 -13 13 -10 22 7 17 30 20 40 4z m-292 -14 c3 -9 -1 -18 -10 -22
-19 -7 -28 2 -21 22 8 19 23 19 31 0z m146 1 c0 -15 -24 -28 -34 -19 -13 14
-5 33 14 33 11 0 20 -6 20 -14z m-292 -13 c-2 -10 -10 -18 -18 -18 -8 0 -16 8
-18 18 -2 12 3 17 18 17 15 0 20 -5 18 -17z m-292 -4 c10 -17 -13 -36 -27 -22
-12 12 -4 33 11 33 5 0 12 -5 16 -11z m144 -4 c0 -8 -7 -15 -15 -15 -8 0 -15
7 -15 15 0 8 7 15 15 15 8 0 15 -7 15 -15z m-287 -2 c9 -9 -13 -34 -24 -27
-14 8 -11 34 4 34 8 0 17 -3 20 -7z m1513 -29 c-6 -17 -8 -17 -24 0 -15 15
-15 18 -2 26 19 12 35 -3 26 -26z m-138 3 c2 -12 -3 -17 -17 -17 -12 0 -21 6
-21 13 0 31 32 34 38 4z m-290 -10 c2 -12 -3 -17 -17 -17 -12 0 -21 6 -21 13
0 31 32 34 38 4z m146 15 c2 -4 1 -14 -4 -22 -7 -11 -11 -11 -24 -1 -9 7 -13
17 -10 22 7 11 31 12 38 1z m-291 -8 c9 -9 -4 -34 -18 -34 -14 0 -27 25 -18
34 4 3 12 6 18 6 6 0 14 -3 18 -6z m-290 -18 c7 -16 -1 -26 -20 -26 -7 0 -13
9 -13 20 0 23 25 27 33 6z m147 1 c0 -19 -10 -27 -26 -20 -21 8 -17 33 6 33
11 0 20 -6 20 -13z m-441 -11 c10 -12 8 -17 -8 -25 -21 -12 -33 2 -23 27 6 16
17 15 31 -2z m147 3 c10 -17 -13 -36 -27 -22 -12 12 -4 33 11 33 5 0 12 -5 16
-11z m-436 -22 c0 -8 -3 -17 -7 -20 -9 -9 -34 13 -27 24 8 14 34 11 34 -4z
m1376 -8 c10 -17 -13 -36 -27 -22 -12 12 -4 33 11 33 5 0 12 -5 16 -11z m-288
-22 c2 -12 -3 -17 -17 -17 -12 0 -21 6 -21 13 0 31 32 34 38 4z m142 9 c0 -21
-21 -31 -30 -15 -5 7 -6 17 -4 21 9 14 34 9 34 -6z m-433 -30 c-4 -9 -11 -16
-17 -16 -17 0 -24 31 -9 41 18 11 34 -5 26 -25z m147 19 c3 -9 -1 -18 -10 -22
-19 -7 -39 11 -30 26 10 16 33 13 40 -4z m-288 -6 c9 -16 -12 -33 -31 -25 -14
5 -15 9 -5 21 15 18 26 19 36 4z m-146 -13 c0 -8 -5 -18 -10 -21 -13 -8 -42
14 -34 26 9 15 44 10 44 -5z m648 -49 c2 -12 -3 -17 -17 -17 -12 0 -21 6 -21
13 0 31 32 34 38 4z m142 3 c0 -11 -7 -20 -15 -20 -8 0 -15 9 -15 20 0 11 7
20 15 20 8 0 15 -9 15 -20z m-433 -6 c8 -20 -8 -36 -26 -25 -15 10 -8 41 9 41
6 0 13 -7 17 -16z m146 10 c9 -9 -4 -34 -18 -34 -14 0 -27 25 -18 34 4 3 12 6
18 6 6 0 14 -3 18 -6z m-293 -24 c0 -11 -6 -20 -14 -20 -18 0 -29 16 -21 30
11 18 35 11 35 -10z m-140 -3 c0 -19 -10 -27 -26 -20 -21 8 -17 33 6 33 11 0
20 -6 20 -13z m645 -48 c0 -7 -8 -15 -17 -17 -18 -3 -25 18 -11 32 10 10 28 1
28 -15z m-287 -12 c2 -12 -3 -17 -17 -17 -12 0 -21 6 -21 13 0 31 32 34 38 4z
m142 3 c0 -11 -6 -20 -14 -20 -18 0 -29 16 -21 30 11 18 35 11 35 -10z m-430
-15 c0 -19 -20 -29 -32 -17 -15 15 -2 43 17 36 8 -3 15 -12 15 -19z m140 5 c0
-21 -24 -28 -35 -10 -8 14 3 30 21 30 8 0 14 -9 14 -20z m220 -65 c0 -18 -27
-26 -39 -11 -7 9 -7 16 0 23 14 14 39 6 39 -12z m140 11 c0 -8 -5 -18 -11 -22
-14 -8 -33 11 -25 25 10 16 36 13 36 -3z m-430 -21 c0 -16 -27 -27 -36 -14 -3
5 -3 16 0 24 6 17 36 9 36 -10z m140 5 c0 -11 -6 -20 -14 -20 -18 0 -29 16
-21 30 11 18 35 11 35 -10z m213 -54 c7 -16 -1 -26 -20 -26 -7 0 -13 9 -13 20
0 23 25 27 33 6z m-143 -10 c0 -8 -5 -18 -11 -22 -14 -8 -33 11 -25 25 10 16
36 13 36 -3z m-145 -16 c0 -8 -8 -16 -17 -18 -13 -2 -18 3 -18 18 0 15 5 20
18 18 9 -2 17 -10 17 -18z m75 -65 c0 -21 -19 -28 -36 -15 -10 9 -11 16 -3 26
12 15 39 8 39 -11z m140 5 c0 -21 -24 -28 -35 -10 -8 14 3 30 21 30 8 0 14 -9
14 -20z m-70 -75 c0 -16 -27 -27 -36 -14 -3 5 -3 16 0 24 6 17 36 9 36 -10z
m-152 -8 c2 -10 -3 -17 -12 -17 -18 0 -29 16 -21 31 9 14 29 6 33 -14z m67
-68 c0 -7 -8 -15 -17 -17 -18 -3 -25 18 -11 32 10 10 28 1 28 -15z"/>
<path d="M7390 6040 c-113 -4 -206 -8 -207 -8 -2 -1 -3 -11 -3 -22 0 -13 7
-20 20 -20 30 0 24 -16 -10 -30 -16 -7 -30 -19 -30 -26 0 -10 -13 -14 -40 -14
-33 0 -40 -3 -40 -20 0 -13 -7 -20 -20 -20 -11 0 -20 -7 -20 -15 0 -8 -9 -15
-20 -15 -11 0 -20 -4 -20 -10 0 -5 -9 -10 -20 -10 -11 0 -20 -4 -20 -10 0 -5
-7 -10 -16 -10 -18 0 -44 -23 -44 -39 0 -6 -13 -11 -30 -11 -20 0 -30 -5 -30
-15 0 -8 -9 -15 -20 -15 -11 0 -20 -4 -20 -10 0 -5 -9 -10 -20 -10 -11 0 -20
-7 -20 -15 0 -8 -9 -15 -20 -15 -13 0 -20 -7 -20 -20 0 -16 -7 -20 -34 -20
-28 0 -36 -5 -46 -29 -9 -23 -23 -32 -66 -46 -32 -10 -54 -23 -54 -31 0 -10
-12 -14 -40 -14 -33 0 -40 -3 -40 -20 0 -13 -7 -20 -20 -20 -11 0 -20 -4 -20
-10 0 -5 -9 -10 -20 -10 -13 0 -20 -7 -20 -20 0 -13 -7 -20 -20 -20 -11 0 -20
-4 -20 -10 0 -5 -9 -10 -19 -10 -11 0 -21 -4 -23 -9 -1 -4 -14 -12 -26 -16
-21 -6 -23 -4 -18 17 6 20 6 21 -4 5 -9 -14 -9 -22 1 -33 9 -11 9 -18 1 -26
-9 -9 -12 -8 -12 3 0 12 -2 12 -9 0 -6 -10 -27 -14 -63 -14 -43 1 -48 0 -23
-7 17 -4 22 -8 13 -9 -10 0 -22 -10 -28 -21 -8 -15 -18 -19 -33 -16 -12 3 -16
3 -9 0 24 -11 12 -32 -23 -38 -21 -4 -35 -13 -35 -21 0 -8 -4 -15 -10 -15 -5
0 -10 -9 -10 -20 0 -11 -7 -20 -15 -20 -8 0 -15 -9 -15 -21 0 -18 -5 -20 -59
-17 -33 1 -63 -1 -67 -5 -11 -11 208 -13 227 -2 5 4 9 1 9 -5 0 -7 6 -8 19 0
12 6 22 6 26 1 3 -5 34 -8 70 -6 39 2 65 -1 65 -7 0 -6 8 -7 18 -3 17 7 31 8
200 6 71 -1 92 -4 92 -15 0 -8 -7 -16 -15 -20 -8 -3 -15 -16 -15 -29 0 -28
-24 -52 -41 -42 -6 5 -9 20 -5 39 4 22 3 27 -4 16 -5 -8 -10 -23 -10 -33 0
-23 -26 -33 -45 -17 -10 9 -15 9 -15 1 0 -8 -47 -11 -159 -10 -87 1 -164 -1
-170 -5 -6 -4 -16 -4 -23 0 -17 11 -71 12 -85 1 -9 -6 -18 -5 -28 3 -8 7 -15
8 -15 3 0 -12 -126 -10 -154 2 -13 5 -17 5 -13 -2 8 -13 -42 -8 -56 6 -7 7
-16 4 -29 -11 -24 -28 -23 -38 7 -38 26 0 34 15 13 23 -7 2 -10 8 -6 12 4 4
14 0 23 -8 9 -10 11 -18 5 -22 -11 -7 -14 -64 -4 -90 5 -11 13 -2 31 35 23 48
25 50 65 50 l40 0 -6 -57 c-4 -32 -9 -80 -11 -108 -6 -64 8 -28 25 70 19 102
13 96 94 93 69 -3 71 -4 74 -30 3 -24 0 -27 -34 -30 -21 -2 -39 -9 -42 -16 -3
-9 3 -13 18 -10 13 2 27 -4 33 -14 16 -24 -8 -48 -49 -48 -34 0 -49 -19 -16
-21 56 -2 66 -10 58 -44 -6 -24 -10 -25 -79 -25 -43 0 -78 5 -85 12 -9 9 -12
9 -12 0 0 -19 -67 -15 -78 4 -8 15 -10 15 -15 0 -4 -10 -18 -16 -37 -16 -26 0
-30 4 -31 28 -1 20 -2 22 -6 7 -8 -33 -19 -38 -89 -37 -63 1 -91 13 -78 34 3
4 -5 8 -18 8 -13 0 -29 -9 -36 -20 -10 -17 -23 -20 -77 -20 -40 0 -65 -4 -65
-11 0 -6 11 -8 28 -5 15 3 41 2 57 -3 l30 -9 -35 -1 c-38 -1 -54 -9 -56 -28
-2 -32 -5 -35 -24 -30 -16 4 -20 0 -20 -21 0 -22 -2 -24 -11 -12 -14 21 -6
-54 40 -350 9 -57 41 -267 43 -278 3 -30 -5 -32 -110 -32 l-109 0 -9 83 -9 82
-91 3 -90 3 -20 -38 c-10 -21 -22 -40 -26 -43 -3 -3 -10 -18 -13 -33 -4 -15
-11 -27 -16 -27 -5 0 -9 -7 -9 -15 0 -12 -19 -15 -115 -15 -96 0 -115 -2 -115
-15 0 -8 -6 -33 -12 -55 -11 -34 -17 -40 -41 -40 -31 0 -57 -20 -57 -44 0 -9
-4 -16 -10 -16 -5 0 -10 -9 -10 -20 0 -11 -7 -20 -15 -20 -8 0 -15 -7 -15 -16
0 -9 -13 -29 -30 -44 -16 -15 -30 -35 -30 -44 0 -9 -7 -16 -15 -16 -8 0 -15
-9 -15 -20 0 -13 -7 -20 -20 -20 -25 0 -25 -8 0 -30 12 -10 19 -24 18 -31 -4
-19 -32 -46 -42 -41 -4 2 -2 8 5 13 17 10 7 21 -14 14 -8 -4 -18 -22 -22 -41
-3 -19 -13 -38 -21 -41 -7 -3 -14 -14 -14 -24 0 -10 -4 -19 -10 -19 -5 0 -10
-18 -10 -40 0 -29 -4 -40 -15 -40 -8 0 -15 -9 -15 -20 0 -13 -7 -20 -20 -20
-13 0 -20 -7 -20 -19 0 -10 -9 -21 -20 -24 -13 -3 -20 -14 -20 -30 0 -46 -12
-87 -26 -87 -8 0 -14 -10 -14 -23 0 -35 -76 -147 -99 -147 -6 0 -11 -12 -11
-26 0 -29 -21 -54 -44 -54 -9 0 -16 -7 -16 -16 0 -8 -5 -25 -12 -37 -27 -49
-22 -56 40 -57 31 0 68 -1 81 -1 13 -1 27 5 31 12 6 9 12 9 24 -3 16 -16 49
-14 72 4 7 5 22 2 38 -6 28 -14 66 -11 66 5 0 15 22 10 34 -7 14 -19 66 -9 66
12 0 17 21 14 36 -5 13 -17 44 -8 44 14 0 8 -4 15 -9 15 -5 0 -14 13 -20 29
-7 16 -19 28 -29 27 -29 -2 -19 29 11 32 23 3 27 8 27 33 0 16 3 29 8 29 18
-1 32 -18 26 -33 -4 -12 -1 -17 14 -17 11 0 25 -6 31 -13 8 -10 4 -20 -19 -42
-21 -20 -30 -38 -30 -59 1 -26 2 -28 11 -13 12 21 39 23 39 2 0 -25 66 -20 73
5 6 24 35 17 33 -8 -1 -12 8 -18 31 -20 26 -3 32 1 35 20 4 28 34 31 31 3 -2
-19 5 -20 256 -24 191 -3 260 0 266 8 5 9 10 9 21 1 9 -8 31 -10 66 -5 50 7
1494 14 3008 16 519 0 698 3 709 12 11 9 15 9 18 0 6 -16 113 -18 113 -3 0 6
7 10 15 10 8 0 15 -4 15 -10 0 -5 25 -10 55 -10 42 0 55 3 55 15 0 8 6 15 14
15 8 0 16 -7 20 -15 4 -11 20 -15 55 -15 42 0 49 3 54 22 5 18 8 19 21 9 9 -8
13 -17 10 -22 -3 -5 25 -9 63 -8 37 0 62 3 56 6 -20 7 -16 35 5 31 10 -2 16
-11 14 -21 -3 -15 8 -17 97 -17 l100 0 1 1661 0 1660 -707 -2 c-506 -1 -710
-5 -715 -13 -5 -8 -13 -8 -28 2 -26 16 -55 15 -69 -2 -10 -12 -16 -12 -39 0
-34 18 -42 18 -63 -2 -16 -15 -20 -15 -41 0 -28 20 -58 21 -58 2 0 -23 -22
-31 -35 -13 -16 22 -75 23 -75 2 0 -8 -7 -15 -15 -15 -9 0 -18 7 -21 15 -9 23
-61 19 -67 -5 -6 -23 -37 -17 -37 7 0 12 -19 14 -110 11 -61 -2 -110 0 -110 5
0 4 -3 6 -7 5 -5 -1 -100 -5 -213 -8z m270 -95 c0 -19 -23 -35 -52 -35 -38 0
-51 44 -19 66 11 8 21 23 21 32 0 10 9 4 25 -18 14 -19 25 -39 25 -45z m770
54 c0 -13 10 -23 29 -30 33 -12 33 -39 0 -39 -12 0 -21 -9 -25 -25 -8 -32 -21
-32 -46 0 -11 14 -23 23 -28 20 -4 -3 -10 2 -14 10 -3 10 5 20 23 30 16 8 31
23 34 35 7 26 27 26 27 -1z m108 4 c2 -8 -5 -13 -17 -13 -12 0 -21 6 -21 16 0
18 31 15 38 -3z m-313 -14 c0 -7 -8 -15 -17 -17 -18 -3 -25 18 -11 32 10 10
28 1 28 -15z m105 7 c0 -21 -21 -31 -30 -15 -5 7 -6 17 -4 21 9 14 34 9 34 -6z
m-410 -17 c0 -12 -29 -24 -37 -16 -3 4 -3 13 0 21 6 16 37 11 37 -5z m100 7
c0 -20 -19 -31 -32 -18 -6 6 -7 15 -4 21 10 16 36 13 36 -3z m100 -1 c0 -8 -7
-15 -15 -15 -8 0 -15 7 -15 15 0 8 7 15 15 15 8 0 15 -7 15 -15z m1115 -40 c0
-26 -3 -30 -29 -30 -36 0 -56 26 -36 50 8 9 24 15 39 13 22 -2 26 -8 26 -33z
m-1061 -16 c-7 -13 -31 -11 -40 2 -9 16 18 30 33 17 7 -6 10 -14 7 -19z m101
11 c0 -22 -29 -18 -33 3 -3 14 1 18 15 15 10 -2 18 -10 18 -18z m-305 -11 c0
-12 -29 -24 -37 -16 -3 4 -3 13 0 21 6 16 37 11 37 -5z m100 1 c0 -23 -25 -27
-33 -6 -7 16 1 26 20 26 7 0 13 -9 13 -20z m253 -35 c8 -18 -11 -31 -25 -17
-11 11 -3 32 12 32 4 0 10 -7 13 -15z m-313 1 c0 -2 3 -11 6 -20 4 -12 0 -16
-15 -16 -14 0 -21 6 -21 20 0 11 7 20 15 20 8 0 15 -2 15 -4z m108 -13 c-5
-25 -28 -28 -28 -4 0 12 6 21 16 21 9 0 14 -7 12 -17z m100 0 c-4 -22 -22 -20
-26 1 -2 10 3 16 13 16 10 0 15 -7 13 -17z m52 -49 c0 -8 -7 -14 -15 -14 -15
0 -21 21 -9 33 10 9 24 -2 24 -19z m106 15 c10 -17 -13 -36 -27 -22 -12 12 -4
33 11 33 5 0 12 -5 16 -11z m-208 -17 c2 -7 -6 -12 -17 -12 -21 0 -27 11 -14
24 9 9 26 2 31 -12z m-100 -4 c-7 -19 -38 -22 -38 -4 0 10 9 16 21 16 12 0 19
-5 17 -12z m1497 -68 l0 -55 -342 -3 -343 -2 0 60 0 60 343 -2 342 -3 0 -55z
m-1452 34 c9 -10 -4 -34 -19 -34 -8 0 -14 6 -14 13 0 22 19 35 33 21z m103 -5
c3 -6 2 -15 -2 -19 -12 -12 -38 5 -30 19 9 14 23 14 32 0z m104 -4 c0 -8 -7
-15 -15 -15 -8 0 -15 7 -15 15 0 8 7 15 15 15 8 0 15 -7 15 -15z m-157 -49 c7
-16 -1 -26 -20 -26 -7 0 -13 9 -13 20 0 23 25 27 33 6z m103 3 c3 -6 1 -16 -5
-22 -9 -9 -14 -8 -21 3 -9 15 -4 30 10 30 5 0 12 -5 16 -11z m-56 -65 c0 -16
-16 -19 -25 -4 -8 13 4 32 16 25 5 -4 9 -13 9 -21z m-1870 -727 l95 -2 3 -27
c3 -25 0 -28 -27 -28 -24 0 -31 -4 -31 -19 0 -11 -4 -22 -9 -25 -4 -3 -11 -29
-14 -57 -8 -62 -20 -79 -59 -79 -33 0 -44 19 -29 48 6 11 14 46 17 78 7 55 6
57 -14 52 -12 -4 -22 -3 -22 1 0 4 -16 5 -35 3 -19 -2 -35 -7 -35 -11 0 -4 14
-20 30 -34 36 -32 40 -73 10 -107 -27 -31 -128 -42 -149 -16 -21 25 11 57 49
50 40 -9 46 12 11 42 -39 33 -46 57 -25 90 22 33 69 54 109 48 17 -3 73 -6
125 -7z m234 -107 c16 -87 21 -100 27 -75 4 17 15 65 24 108 17 73 19 77 45
77 32 0 53 -27 65 -80 l8 -35 11 55 c9 43 15 56 31 58 42 5 49 -11 36 -75 -7
-32 -17 -77 -22 -101 -11 -57 -15 -62 -47 -62 -30 0 -45 19 -58 70 l-8 35 -11
-50 c-10 -46 -13 -50 -43 -53 -21 -2 -32 1 -32 10 0 11 -2 11 -9 0 -5 -8 -22
-12 -42 -10 -26 2 -35 8 -37 26 -5 31 -45 30 -66 -3 -19 -30 -76 -36 -76 -9 0
16 90 174 119 207 9 11 25 17 40 15 24 -3 26 -10 45 -108z m426 95 c34 -18 45
-50 36 -106 -13 -81 -63 -119 -159 -119 -63 0 -68 6 -55 65 5 22 14 65 20 95
6 30 15 61 20 68 14 17 103 15 138 -3z m-1250 -285 c6 -11 20 -50 31 -87 11
-38 26 -81 34 -98 7 -16 21 -57 31 -90 17 -57 44 -111 44 -90 1 21 57 311 68
350 l8 30 87 3 c98 3 108 -3 88 -60 -7 -18 -23 -87 -37 -153 -13 -66 -31 -149
-39 -185 -8 -36 -21 -96 -29 -135 -31 -154 -40 -190 -50 -197 -6 -4 -48 -8
-94 -8 -81 0 -83 1 -93 28 -7 15 -15 36 -20 47 -5 11 -25 70 -44 130 -20 61
-40 117 -44 125 -5 9 -12 30 -16 49 -9 41 -12 37 -26 -30 -6 -30 -18 -85 -26
-124 -8 -38 -20 -104 -26 -145 l-12 -75 -89 -3 c-49 -2 -93 1 -99 7 -5 5 -5
22 2 43 5 18 17 67 26 108 38 178 44 209 60 290 9 47 23 110 31 141 8 30 14
74 14 96 0 24 5 43 13 46 6 3 53 6 104 6 82 1 93 -1 103 -19z m704 10 c6 -6
56 -141 91 -245 33 -97 54 -151 55 -142 0 16 42 223 56 283 8 33 14 70 14 82
0 21 4 22 95 22 52 0 95 -3 95 -7 0 -16 -43 -209 -51 -228 -4 -11 -13 -47 -19
-80 -6 -33 -17 -89 -24 -125 -8 -36 -19 -90 -25 -120 -16 -84 -33 -144 -44
-157 -13 -17 -148 -17 -169 0 -9 6 -28 48 -43 92 -14 44 -30 87 -34 95 -5 9
-12 30 -16 49 -4 18 -13 44 -21 59 -8 15 -14 34 -14 42 -1 13 -29 61 -30 49
-1 -5 -26 -132 -46 -229 -8 -41 -18 -95 -22 -120 l-7 -45 -88 -3 c-103 -3
-105 -2 -83 90 8 34 22 97 30 138 9 41 28 127 42 190 13 63 32 158 41 210 9
52 20 98 25 101 11 7 184 6 192 -1z m976 -27 c0 -16 -6 -48 -14 -73 l-13 -45
-125 -3 -125 -3 -10 -57 c-6 -31 -9 -59 -7 -61 2 -2 49 -3 104 -3 118 1 119 0
100 -88 l-13 -60 -117 0 -117 0 -10 -57 c-6 -32 -14 -66 -18 -75 -7 -17 3 -18
124 -18 l131 0 0 -31 c0 -16 -5 -50 -11 -75 l-11 -44 -167 -1 c-91 -1 -191 -3
-221 -5 -80 -5 -83 -1 -65 82 9 38 22 101 30 139 8 39 28 135 45 215 17 80 35
172 41 205 6 33 12 66 14 73 3 9 58 12 230 12 l225 0 0 -27z m474 7 c61 -26
86 -67 86 -143 0 -78 -27 -130 -89 -169 l-49 -30 24 -25 c13 -14 24 -29 24
-32 2 -28 22 -196 29 -236 5 -27 7 -53 4 -57 -2 -5 -49 -8 -103 -8 -116 0
-105 -12 -114 137 -7 112 -19 143 -57 143 -26 0 -28 -4 -39 -57 -6 -32 -15
-76 -20 -98 -5 -22 -12 -59 -16 -82 l-6 -43 -97 0 c-54 0 -100 2 -103 5 -2 3
4 37 14 77 27 108 91 411 120 576 l11 62 168 0 c144 0 174 -3 213 -20z m1056
-505 c0 -8 -7 -15 -15 -15 -16 0 -20 12 -8 23 11 12 23 8 23 -8z m70 -76 c0
-5 -7 -9 -15 -9 -15 0 -20 12 -9 23 8 8 24 -1 24 -14z m-148 -4 c0 -5 -5 -11
-11 -13 -6 -2 -11 4 -11 13 0 9 5 15 11 13 6 -2 11 -8 11 -13z m208 -60 c0 -8
-4 -15 -9 -15 -13 0 -22 16 -14 24 11 11 23 6 23 -9z m-275 -6 c10 -15 -1 -23
-20 -15 -9 3 -13 10 -10 16 8 13 22 13 30 -1z m140 2 c7 -12 -12 -24 -25 -16
-11 7 -4 25 10 25 5 0 11 -4 15 -9z m65 -72 c0 -5 -7 -9 -15 -9 -15 0 -20 12
-9 23 8 8 24 -1 24 -14z m140 6 c0 -8 -4 -15 -9 -15 -13 0 -22 16 -14 24 11
11 23 6 23 -9z m-425 -25 c-5 -8 -11 -8 -17 -2 -6 6 -7 16 -3 22 5 8 11 8 17
2 6 -6 7 -16 3 -22z m145 14 c0 -17 -22 -14 -28 4 -2 7 3 12 12 12 9 0 16 -7
16 -16z m350 -55 c0 -5 -7 -9 -15 -9 -15 0 -20 12 -9 23 8 8 24 -1 24 -14z
m-140 -4 c0 -8 -7 -15 -15 -15 -8 0 -15 7 -15 15 0 8 7 15 15 15 8 0 15 -7 15
-15z m-282 -13 c2 -7 -3 -12 -12 -12 -9 0 -16 7 -16 16 0 17 22 14 28 -4z
m140 6 c-6 -18 -28 -21 -28 -4 0 9 7 16 16 16 9 0 14 -5 12 -12z m-280 -10
c-6 -18 -28 -21 -28 -4 0 9 7 16 16 16 9 0 14 -5 12 -12z m627 -37 c7 -12 -12
-24 -25 -16 -11 7 -4 25 10 25 5 0 11 -4 15 -9z m-140 -10 c7 -12 -12 -24 -25
-16 -11 7 -4 25 10 25 5 0 11 -4 15 -9z m-283 -16 c0 -5 -5 -11 -11 -13 -6 -2
-11 4 -11 13 0 9 5 15 11 13 6 -2 11 -8 11 -13z m148 5 c0 -5 -7 -10 -15 -10
-8 0 -15 5 -15 10 0 6 7 10 15 10 8 0 15 -4 15 -10z m-425 -9 c7 -12 -12 -24
-25 -16 -11 7 -4 25 10 25 5 0 11 -4 15 -9z m140 0 c7 -12 -12 -24 -25 -16
-11 7 -4 25 10 25 5 0 11 -4 15 -9z m630 -40 c7 -12 -12 -24 -25 -16 -11 7 -4
25 10 25 5 0 11 -4 15 -9z m-285 -22 c0 -5 -7 -9 -15 -9 -15 0 -20 12 -9 23 8
8 24 -1 24 -14z m140 13 c0 -13 -12 -22 -22 -16 -10 6 -1 24 13 24 5 0 9 -4 9
-8z m-420 -17 c0 -8 -7 -15 -15 -15 -16 0 -20 12 -8 23 11 12 23 8 23 -8z
m140 -1 c0 -9 -5 -14 -12 -12 -18 6 -21 28 -4 28 9 0 16 -7 16 -16z m-414 -5
c9 -16 -12 -33 -31 -25 -14 5 -15 9 -5 21 15 18 26 19 36 4z m134 -4 c0 -8 -4
-15 -9 -15 -13 0 -22 16 -14 24 11 11 23 6 23 -9z m630 -46 c0 -5 -7 -9 -15
-9 -15 0 -20 12 -9 23 8 8 24 -1 24 -14z m138 9 c-6 -18 -28 -21 -28 -4 0 9 7
16 16 16 9 0 14 -5 12 -12z m-423 -28 c-5 -8 -11 -8 -17 -2 -6 6 -7 16 -3 22
5 8 11 8 17 2 6 -6 7 -16 3 -22z m145 15 c0 -8 -7 -15 -15 -15 -8 0 -15 7 -15
15 0 8 7 15 15 15 8 0 15 -7 15 -15z m-280 -10 c0 -8 -7 -15 -15 -15 -16 0
-20 12 -8 23 11 12 23 8 23 -8z m-416 -10 c3 -9 -1 -18 -10 -22 -19 -7 -28 2
-21 22 8 19 23 19 31 0z m139 9 c9 -10 -4 -34 -19 -34 -8 0 -14 9 -14 20 0 19
19 27 33 14z m137 -9 c0 -8 -6 -15 -14 -15 -17 0 -28 14 -19 24 12 12 33 6 33
-9z m480 -59 c-14 -14 -24 0 -16 21 6 15 8 15 16 3 6 -9 5 -19 0 -24z m142 19
c0 -5 -5 -11 -11 -13 -6 -2 -11 4 -11 13 0 9 5 15 11 13 6 -2 11 -8 11 -13z
m146 4 c-2 -6 -8 -10 -13 -10 -5 0 -11 4 -13 10 -2 6 4 11 13 11 9 0 15 -5 13
-11z m-420 -17 c2 -7 -3 -12 -12 -12 -9 0 -16 7 -16 16 0 17 22 14 28 -4z
m-282 -3 c10 -17 -13 -36 -27 -22 -12 12 -4 33 11 33 5 0 12 -5 16 -11z m142
0 c-2 -6 -8 -10 -13 -10 -5 0 -11 4 -13 10 -2 6 4 11 13 11 9 0 15 -5 13 -11z
m-420 -22 c2 -12 -3 -17 -17 -17 -12 0 -21 6 -21 13 0 31 32 34 38 4z m142 10
c0 -19 -10 -27 -26 -20 -21 8 -17 33 6 33 11 0 20 -6 20 -13z m-280 -11 c0
-17 -27 -29 -35 -16 -4 6 -3 15 0 20 9 15 35 12 35 -4z m1185 -15 c7 -12 -12
-24 -25 -16 -11 7 -4 25 10 25 5 0 11 -4 15 -9z m-288 -27 c-9 -9 -28 6 -21
18 4 6 10 6 17 -1 6 -6 8 -13 4 -17z m143 11 c0 -8 -4 -15 -9 -15 -13 0 -22
16 -14 24 11 11 23 6 23 -9z m-275 -4 c7 -12 -12 -24 -25 -16 -11 7 -4 25 10
25 5 0 11 -4 15 -9z m-420 -22 c0 -7 -8 -15 -17 -17 -18 -3 -25 18 -11 32 10
10 28 1 28 -15z m138 6 c7 -16 -8 -29 -23 -20 -15 9 -12 35 4 35 8 0 16 -7 19
-15z m135 4 c-2 -6 -8 -10 -13 -10 -5 0 -11 4 -13 10 -2 6 4 11 13 11 9 0 15
-5 13 -11z m-548 -25 c0 -8 -9 -14 -20 -14 -19 0 -27 19 -14 33 10 9 34 -4 34
-19z m135 6 c0 -22 -29 -18 -33 3 -3 14 1 18 15 15 10 -2 18 -10 18 -18z
m-280 -11 c0 -7 -8 -15 -17 -17 -18 -3 -25 18 -11 32 10 10 28 1 28 -15z
m1180 -29 c-5 -8 -11 -8 -17 -2 -6 6 -7 16 -3 22 5 8 11 8 17 2 6 -6 7 -16 3
-22z m145 15 c0 -8 -7 -15 -15 -15 -16 0 -20 12 -8 23 11 12 23 8 23 -8z
m-280 -10 c0 -8 -7 -15 -15 -15 -8 0 -15 7 -15 15 0 8 7 15 15 15 8 0 15 -7
15 -15z m-280 -10 c0 -8 -7 -15 -15 -15 -16 0 -20 12 -8 23 11 12 23 8 23 -8z
m140 -1 c0 -9 -5 -14 -12 -12 -18 6 -21 28 -4 28 9 0 16 -7 16 -16z m-414 -5
c3 -6 0 -15 -7 -20 -22 -14 -29 -11 -29 11 0 21 24 27 36 9z m134 -4 c0 -8 -7
-15 -15 -15 -8 0 -15 7 -15 15 0 8 7 15 15 15 8 0 15 -7 15 -15z m-416 -3 c9
-15 -12 -35 -29 -28 -14 5 -15 9 -5 21 14 17 26 19 34 7z m139 -7 c1 -5 -6
-11 -15 -13 -11 -2 -18 3 -18 13 0 17 30 18 33 0z m-422 -28 c-5 -5 -17 -7
-26 -3 -14 5 -15 9 -5 21 10 12 16 13 27 4 9 -8 10 -16 4 -22z m145 22 c7 -12
-15 -31 -28 -23 -4 3 -8 12 -8 20 0 17 26 19 36 3z m1179 -27 c0 -18 -20 -15
-23 4 -3 10 1 15 10 12 7 -3 13 -10 13 -16z m143 7 c-2 -6 -8 -10 -13 -10 -5
0 -11 4 -13 10 -2 6 4 11 13 11 9 0 15 -5 13 -11z m-418 -20 c0 -5 -7 -9 -15
-9 -15 0 -20 12 -9 23 8 8 24 -1 24 -14z m138 9 c-6 -18 -28 -21 -28 -4 0 9 7
16 16 16 9 0 14 -5 12 -12z m-280 -16 c2 -7 -3 -12 -12 -12 -9 0 -16 7 -16 16
0 17 22 14 28 -4z m-422 -28 c-6 -17 -8 -17 -24 0 -15 15 -15 18 -2 26 19 12
35 -3 26 -26z m144 22 c0 -8 -5 -18 -11 -22 -14 -8 -33 11 -25 25 10 16 36 13
36 -3z m140 4 c0 -5 -7 -10 -15 -10 -8 0 -15 5 -15 10 0 6 7 10 15 10 8 0 15
-4 15 -10z m-563 -16 c7 -19 -18 -38 -28 -22 -9 14 0 38 12 38 5 0 12 -7 16
-16z m143 2 c0 -8 -5 -18 -11 -22 -14 -8 -33 11 -25 25 10 16 36 13 36 -3z
m-423 -30 c-4 -9 -13 -13 -22 -10 -18 7 -20 31 -2 37 17 6 31 -9 24 -27z m143
20 c0 -8 -5 -18 -11 -22 -14 -8 -33 11 -25 25 10 16 36 13 36 -3z m1460 -18
c0 -16 -3 -19 -11 -11 -6 6 -8 16 -5 22 11 17 16 13 16 -11z m-280 -3 c10 -12
10 -15 -4 -15 -9 0 -16 7 -16 15 0 8 2 15 4 15 2 0 9 -7 16 -15z m145 6 c7
-12 -12 -24 -25 -16 -11 7 -4 25 10 25 5 0 11 -4 15 -9z m-283 -16 c0 -5 -5
-11 -11 -13 -6 -2 -11 4 -11 13 0 9 5 15 11 13 6 -2 11 -8 11 -13z m-414 -18
c2 -12 -3 -17 -17 -17 -12 0 -21 6 -21 13 0 31 32 34 38 4z m136 -2 c-3 -8
-12 -11 -19 -9 -8 3 -11 12 -9 19 3 8 12 11 19 9 8 -3 11 -12 9 -19z m139 19
c11 -11 -3 -24 -18 -18 -8 4 -12 10 -9 15 6 11 18 12 27 3z m-417 -15 c10 -17
-13 -36 -27 -22 -12 12 -4 33 11 33 5 0 12 -5 16 -11z m-280 -10 c10 -17 -13
-36 -27 -22 -12 12 -4 33 11 33 5 0 12 -5 16 -11z m142 -6 c-2 -10 -10 -18
-18 -18 -8 0 -16 8 -18 18 -2 12 3 17 18 17 15 0 20 -5 18 -17z m-418 -18 c0
-7 -7 -16 -15 -19 -20 -7 -33 23 -14 34 16 10 29 4 29 -15z m138 8 c-2 -10
-10 -18 -18 -18 -8 0 -16 8 -18 18 -2 12 3 17 18 17 15 0 20 -5 18 -17z m-282
-4 c10 -17 -13 -36 -27 -22 -12 12 -4 33 11 33 5 0 12 -5 16 -11z m1464 -14
c0 -8 -7 -15 -15 -15 -26 0 -18 20 13 29 1 1 2 -6 2 -14z m140 0 c0 -8 -4 -15
-9 -15 -13 0 -22 16 -14 24 11 11 23 6 23 -9z m-420 -16 c0 -5 -7 -9 -15 -9
-15 0 -20 12 -9 23 8 8 24 -1 24 -14z m140 5 c0 -9 -5 -14 -12 -12 -18 6 -21
28 -4 28 9 0 16 -7 16 -16z m-415 -15 c0 -7 -8 -15 -17 -17 -18 -3 -25 18 -11
32 10 10 28 1 28 -15z m135 6 c0 -8 -7 -15 -15 -15 -16 0 -20 12 -8 23 11 12
23 8 23 -8z m-415 -16 c0 -7 -8 -15 -17 -17 -18 -3 -25 18 -11 32 10 10 28 1
28 -15z m140 1 c0 -22 -29 -18 -33 3 -3 14 1 18 15 15 10 -2 18 -10 18 -18z
m-280 -10 c0 -8 -8 -16 -17 -18 -13 -2 -18 3 -18 18 0 15 5 20 18 18 9 -2 17
-10 17 -18z m-279 -1 c9 -16 -12 -33 -31 -25 -14 5 -15 9 -5 21 15 18 26 19
36 4z m140 0 c3 -6 1 -16 -4 -21 -13 -13 -45 8 -36 23 7 12 31 11 40 -2z
m-421 -20 c0 -7 -8 -15 -17 -17 -18 -3 -25 18 -11 32 10 10 28 1 28 -15z m138
15 c9 -10 -4 -34 -19 -34 -8 0 -14 9 -14 20 0 19 19 27 33 14z m1607 -20 c0
-16 -16 -19 -25 -4 -8 13 4 32 16 25 5 -4 9 -13 9 -21z m-285 -14 c-5 -8 -11
-8 -17 -2 -6 6 -7 16 -3 22 5 8 11 8 17 2 6 -6 7 -16 3 -22z m145 15 c0 -8 -4
-15 -9 -15 -13 0 -22 16 -14 24 11 11 23 6 23 -9z m-282 -13 c2 -7 -3 -12 -12
-12 -9 0 -16 7 -16 16 0 17 22 14 28 -4z m-283 -12 c0 -7 -6 -15 -12 -17 -8
-3 -13 4 -13 17 0 13 5 20 13 18 6 -3 12 -11 12 -18z m143 9 c-2 -6 -8 -10
-13 -10 -5 0 -11 4 -13 10 -2 6 4 11 13 11 9 0 15 -5 13 -11z m-418 -9 c13 -9
13 -11 0 -20 -19 -12 -27 -12 -35 0 -7 11 2 30 13 30 4 0 14 -5 22 -10z m143
3 c4 -3 2 -12 -4 -20 -9 -10 -15 -10 -25 -2 -8 6 -11 15 -8 20 6 11 28 12 37
2z m-426 -18 c7 -20 -2 -29 -21 -22 -9 4 -13 13 -10 22 8 19 23 19 31 0z m143
0 c0 -8 -6 -15 -14 -15 -17 0 -28 14 -19 24 12 12 33 6 33 -9z m-421 -8 c8
-10 7 -17 -1 -25 -15 -15 -39 3 -31 24 7 18 17 18 32 1z m144 7 c9 -9 -4 -34
-18 -34 -14 0 -27 25 -18 34 4 3 12 6 18 6 6 0 14 -3 18 -6z m-283 -24 c0 -11
-6 -20 -13 -20 -19 0 -27 10 -20 26 8 21 33 17 33 -6z m-140 -4 c0 -8 -5 -18
-11 -22 -14 -8 -33 11 -25 25 10 16 36 13 36 -3z m1601 -9 c-13 -13 -26 -3
-16 12 3 6 11 8 17 5 6 -4 6 -10 -1 -17z m147 11 c-6 -18 -28 -21 -28 -4 0 9
7 16 16 16 9 0 14 -5 12 -12z m-5338 -17 c0 -19 -23 -35 -34 -24 -14 15 -5 43
14 43 13 0 20 -7 20 -19z m5058 7 c-6 -18 -28 -21 -28 -4 0 9 7 16 16 16 9 0
14 -5 12 -12z m-420 -21 c2 -10 -3 -17 -12 -17 -18 0 -29 16 -21 31 9 14 29 6
33 -14z m138 12 c3 -6 2 -15 -2 -19 -12 -12 -38 5 -30 19 9 14 23 14 32 0z
m142 0 c-2 -6 -8 -10 -13 -10 -5 0 -11 4 -13 10 -2 6 4 11 13 11 9 0 15 -5 13
-11z m-560 -22 c2 -10 -3 -17 -12 -17 -18 0 -29 16 -21 31 9 14 29 6 33 -14z
m138 12 c10 -17 -13 -36 -27 -22 -12 12 -4 33 11 33 5 0 12 -5 16 -11z m-280
-10 c10 -17 -13 -36 -27 -22 -12 12 -4 33 11 33 5 0 12 -5 16 -11z m-280 -10
c10 -17 -13 -36 -27 -22 -12 12 -4 33 11 33 5 0 12 -5 16 -11z m144 -2 c0 -19
-10 -27 -26 -20 -21 8 -17 33 6 33 11 0 20 -6 20 -13z m-4136 -3 c12 -5 13
-10 5 -25 -14 -28 -39 -24 -39 6 0 26 7 29 34 19z m106 -14 c0 -13 -7 -20 -20
-20 -13 0 -20 7 -20 20 0 13 7 20 20 20 13 0 20 -7 20 -20z m3608 -3 c2 -10
-3 -17 -12 -17 -18 0 -29 16 -21 31 9 14 29 6 33 -14z m142 9 c0 -8 -5 -18
-11 -22 -14 -8 -33 11 -25 25 10 16 36 13 36 -3z m1606 3 c10 -17 -13 -36 -27
-22 -12 12 -4 33 11 33 5 0 12 -5 16 -11z m-146 -14 c0 -8 -4 -15 -9 -15 -13
0 -22 16 -14 24 11 11 23 6 23 -9z m-416 -11 c9 -23 8 -24 -14 -24 -19 0 -27
20 -13 33 11 11 20 8 27 -9z m136 1 c0 -8 -4 -15 -9 -15 -13 0 -22 16 -14 24
11 11 23 6 23 -9z m140 -1 c0 -9 -5 -14 -12 -12 -18 6 -21 28 -4 28 9 0 16 -7
16 -16z m-415 -14 c0 -22 -29 -18 -33 3 -3 14 1 18 15 15 10 -2 18 -10 18 -18z
m-280 -11 c0 -7 -8 -15 -17 -17 -18 -3 -25 18 -11 32 10 10 28 1 28 -15z m139
13 c8 -13 -11 -35 -23 -28 -16 10 -14 36 3 36 8 0 17 -4 20 -8z m-4466 -25 c2
-12 -3 -17 -17 -17 -14 0 -21 6 -21 19 0 24 34 22 38 -2z m4052 2 c0 -12 -29
-24 -37 -16 -3 4 -3 13 0 21 6 16 37 11 37 -5z m140 6 c0 -8 -9 -15 -20 -15
-11 0 -20 7 -20 15 0 8 9 15 20 15 11 0 20 -7 20 -15z m-4400 -15 c0 -11 -6
-20 -14 -20 -18 0 -29 16 -21 30 11 18 35 11 35 -10z m110 6 c0 -19 -14 -28
-34 -20 -25 10 -19 34 9 34 15 0 25 -6 25 -14z m3863 -22 c-6 -16 -33 -7 -33
11 0 17 23 25 32 12 3 -6 4 -16 1 -23z m142 16 c0 -8 -8 -16 -17 -18 -13 -2
-18 3 -18 18 0 15 5 20 18 18 9 -2 17 -10 17 -18z m-280 -11 c0 -7 -8 -15 -17
-17 -18 -3 -25 18 -11 32 10 10 28 1 28 -15z m1609 -10 c-8 -14 -34 -11 -34 4
0 8 3 17 7 20 9 9 34 -13 27 -24z m-139 1 c0 -22 -29 -18 -33 3 -3 14 1 18 15
15 10 -2 18 -10 18 -18z m-285 -10 c0 -11 -7 -20 -15 -20 -8 0 -15 9 -15 20 0
11 7 20 15 20 8 0 15 -9 15 -20z m143 5 c1 -5 -6 -11 -15 -13 -11 -2 -18 3
-18 13 0 17 30 18 33 0z m-5113 -20 c0 -18 -5 -25 -20 -25 -25 0 -27 37 -2 43
9 3 18 5 20 6 1 0 2 -10 2 -24z m108 -4 c-5 -24 -38 -27 -38 -3 0 10 3 21 6
25 11 11 35 -5 32 -22z m98 18 c10 -17 -13 -36 -27 -22 -12 12 -4 33 11 33 5
0 12 -5 16 -11z m4494 -10 c0 -12 -29 -24 -37 -16 -3 4 -3 13 0 21 6 16 37 11
37 -5z m130 0 c0 -24 -23 -21 -28 4 -2 10 3 17 12 17 10 0 16 -9 16 -21z
m-4935 -14 c0 -28 -29 -25 -33 3 -3 19 0 23 15 20 10 -2 18 -12 18 -23z m4511
-10 c-5 -14 -9 -15 -21 -5 -12 10 -13 16 -4 27 15 18 34 1 25 -22z m152 18 c5
-18 -28 -29 -38 -12 -5 7 -6 17 -3 22 7 12 35 5 41 -10z m-288 -13 c0 -11 -7
-20 -15 -20 -8 0 -15 9 -15 20 0 11 7 20 15 20 8 0 15 -9 15 -20z m-270 -11
c0 -16 -31 -22 -43 -10 -9 9 -9 14 2 20 16 10 41 4 41 -10z m133 14 c4 -3 2
-12 -4 -20 -9 -10 -15 -10 -25 -2 -8 6 -11 15 -8 20 6 11 28 12 37 2z m-280
-17 c3 -8 -1 -17 -9 -20 -23 -9 -24 -8 -24 14 0 23 25 27 33 6z m1602 -6 c0
-7 -6 -15 -12 -17 -8 -3 -13 4 -13 17 0 13 5 20 13 18 6 -3 12 -11 12 -18z
m-5199 -1 c10 -17 -13 -36 -27 -22 -12 12 -4 33 11 33 5 0 12 -5 16 -11z
m5064 -2 c0 -8 -3 -17 -7 -20 -9 -9 -34 13 -27 24 8 14 34 11 34 -4z m-5472
-25 c3 -17 -2 -22 -18 -22 -25 0 -38 29 -19 41 20 13 34 6 37 -19z m101 9 c8
-15 7 -20 -6 -26 -18 -6 -47 21 -37 36 9 15 33 10 43 -10z m101 -2 c0 -25 -33
-22 -38 4 -2 12 3 17 17 17 15 0 21 -6 21 -21z m4850 -5 c0 -8 8 -14 18 -14
21 -1 58 -48 46 -60 -23 -20 -53 -21 -74 0 -11 11 -18 25 -15 30 3 5 1 18 -4
28 -7 13 -7 22 1 30 13 13 28 6 28 -14z m140 13 c0 -8 -3 -17 -7 -20 -9 -9
-34 13 -27 24 8 14 34 11 34 -4z m140 -2 c0 -8 -6 -15 -14 -15 -8 0 -16 7 -20
15 -4 10 1 15 14 15 11 0 20 -7 20 -15z m-420 -9 c0 -18 -16 -29 -30 -21 -13
8 -1 35 16 35 8 0 14 -6 14 -14z m-282 -19 c2 -10 -3 -17 -12 -17 -18 0 -29
16 -21 31 9 14 29 6 33 -14z m142 9 c0 -21 -21 -31 -30 -15 -5 7 -6 17 -4 21
9 14 34 9 34 -6z m-420 -22 c0 -8 -8 -14 -18 -14 -12 0 -26 -15 -38 -40 -10
-22 -21 -40 -24 -40 -33 1 -47 84 -18 104 13 8 23 8 36 0 13 -9 20 -8 30 3 15
15 32 9 32 -13z m140 12 c0 -8 -5 -18 -11 -22 -14 -8 -33 11 -25 25 10 16 36
13 36 -3z m-4032 -19 c2 -12 -3 -17 -17 -17 -12 0 -21 6 -21 13 0 31 32 34 38
4z m660 11 c17 -17 15 -31 -10 -58 l-22 -23 -23 27 c-18 22 -21 31 -13 47 12
21 50 25 68 7z m800 -19 c4 -34 -20 -54 -47 -39 -37 19 -23 73 18 68 20 -2 27
-9 29 -29z m797 -3 c0 -40 -27 -56 -54 -32 -12 11 -21 24 -21 31 0 20 24 36
50 33 20 -2 25 -8 25 -32z m791 9 c7 -26 -9 -55 -31 -55 -6 0 -20 9 -29 19
-14 15 -15 24 -6 40 16 31 58 28 66 -4z m704 5 c0 -11 -6 -20 -14 -20 -18 0
-29 16 -21 30 11 18 35 11 35 -10z m-4062 -13 c3 -12 -3 -17 -21 -17 -20 0
-24 4 -20 20 7 25 36 23 41 -3z m3920 6 c-2 -10 -10 -18 -18 -18 -8 0 -16 8
-18 18 -2 12 3 17 18 17 15 0 20 -5 18 -17z m-4130 -21 c3 -18 -2 -22 -22 -22
-18 0 -25 -6 -28 -22 -4 -30 -43 -32 -43 -3 0 13 8 21 23 23 14 2 27 14 33 29
11 29 33 26 37 -5z m110 11 c5 -18 -28 -29 -38 -12 -5 7 -6 17 -3 22 7 12 35
5 41 -10z m5348 6 c10 -17 -13 -36 -27 -22 -12 12 -4 33 11 33 5 0 12 -5 16
-11z m144 -4 c0 -8 -9 -15 -20 -15 -11 0 -20 7 -20 15 0 8 9 15 20 15 11 0 20
-7 20 -15z m-282 -12 c2 -8 -5 -13 -17 -13 -12 0 -21 6 -21 16 0 18 31 15 38
-3z m-280 -10 c-2 -10 -10 -18 -18 -18 -8 0 -16 8 -18 18 -2 12 3 17 18 17 15
0 20 -5 18 -17z m-4478 -13 c0 -11 -4 -20 -9 -20 -14 0 -23 18 -16 30 10 17
25 11 25 -10z m4195 0 c0 -22 -29 -18 -33 3 -3 14 1 18 15 15 10 -2 18 -10 18
-18z m143 8 c-7 -19 -38 -22 -38 -4 0 10 9 16 21 16 12 0 19 -5 17 -12z
m-4641 -14 c7 -20 -17 -37 -34 -23 -15 13 -6 39 13 39 8 0 17 -7 21 -16z m207
8 c2 -4 1 -14 -4 -22 -7 -11 -11 -11 -24 -1 -9 8 -16 17 -16 22 0 11 37 12 44
1z m4012 -3 c10 -17 -13 -36 -27 -22 -12 12 -4 33 11 33 5 0 12 -5 16 -11z
m144 -4 c0 -8 -9 -15 -20 -15 -11 0 -20 7 -20 15 0 8 9 15 20 15 11 0 20 -7
20 -15z m-4570 -15 c0 -13 -7 -20 -20 -20 -13 0 -20 7 -20 20 0 13 7 20 20 20
13 0 20 -7 20 -20z m104 12 c9 -14 -12 -35 -28 -29 -23 9 -20 37 3 37 11 0 22
-4 25 -8z m4041 -13 c0 -7 -8 -15 -17 -17 -18 -3 -25 18 -11 32 10 10 28 1 28
-15z"/>
<path d="M9020 5753 c0 -14 2 -15 9 -4 6 8 16 11 31 6 15 -5 20 -4 16 4 -12
19 -56 13 -56 -6z"/>
<path d="M9095 5759 c-4 -6 -5 -12 -2 -15 2 -3 7 2 10 11 7 17 1 20 -8 4z"/>
<path d="M9206 5756 c3 -9 13 -14 22 -13 27 4 25 22 -3 25 -19 3 -23 0 -19
-12z"/>
<path d="M9310 5759 c0 -10 27 -19 34 -12 12 12 5 22 -14 20 -11 -1 -20 -4
-20 -8z"/>
<path d="M6911 4834 c-6 -32 -9 -59 -7 -61 10 -10 46 19 52 41 9 36 1 70 -17
74 -12 2 -19 -11 -28 -54z"/>
<path d="M7696 4508 c-10 -33 -26 -109 -26 -124 0 -14 7 -16 42 -11 107 14
120 147 15 147 -15 0 -29 -6 -31 -12z"/>
<path d="M6790 6010 c0 -16 4 -30 8 -30 5 0 7 14 4 30 -2 17 -6 30 -8 30 -2 0
-4 -13 -4 -30z"/>
<path d="M6175 5644 c0 -24 3 -44 8 -44 9 0 9 77 -1 84 -4 2 -7 -15 -7 -40z"/>
<path d="M5868 5673 c7 -3 16 -2 19 1 4 3 -2 6 -13 5 -11 0 -14 -3 -6 -6z"/>
<path d="M5933 5673 c13 -3 17 -12 15 -31 -2 -21 -9 -28 -31 -30 -16 -2 -35 2
-43 9 -8 6 -14 7 -14 1 0 -24 28 -33 67 -23 50 14 53 14 53 -4 0 -8 -7 -15
-15 -15 -10 0 -15 -10 -15 -30 0 -16 5 -30 11 -30 6 0 9 9 6 19 -5 20 16 36
41 32 6 -1 12 4 12 11 0 8 13 29 30 48 36 42 37 50 7 50 -17 0 -23 -6 -25 -27
-2 -25 -16 -42 -35 -43 -5 0 -5 9 -2 20 4 11 2 20 -4 20 -6 0 -11 -7 -11 -15
0 -8 -4 -15 -10 -15 -5 0 -10 14 -10 30 0 25 -4 30 -22 29 -18 -1 -19 -2 -5
-6z"/>
<path d="M6100 5640 c0 -39 1 -40 33 -39 31 2 31 2 3 6 -25 4 -28 8 -24 39 2
19 0 34 -4 34 -4 0 -8 -18 -8 -40z"/>
<path d="M5892 5653 c-18 -7 -4 -23 19 -23 12 0 19 5 17 12 -5 14 -18 18 -36
11z"/>
<path d="M6130 5645 c0 -8 7 -15 15 -15 8 0 15 7 15 15 0 8 -7 15 -15 15 -8 0
-15 -7 -15 -15z"/>
<path d="M6062 5621 c-10 -6 -10 -10 3 -21 13 -11 15 -9 15 9 0 24 0 24 -18
12z"/>
<path d="M5871 5553 c0 -28 0 -28 10 -4 7 17 15 22 29 18 11 -3 20 -1 20 4 0
5 -13 9 -30 9 -26 0 -30 -3 -29 -27z"/>
<path d="M6169 5556 c12 -14 12 -18 -5 -30 -18 -14 -34 -9 -54 15 -13 17 -48
19 -54 4 -3 -9 -10 -13 -16 -10 -5 3 -10 -3 -10 -14 0 -12 -6 -21 -13 -21 -17
0 -40 -39 -43 -73 -2 -36 -14 -48 -14 -16 0 14 -5 30 -12 37 -15 15 -48 16
-48 1 0 -6 6 -9 14 -6 7 3 19 0 25 -6 15 -15 14 -57 -2 -57 -8 0 -13 10 -13
23 1 17 -4 21 -19 19 -29 -5 -32 -12 -12 -23 9 -6 14 -15 11 -21 -4 -6 -2 -8
4 -4 6 3 13 2 16 -3 7 -11 76 8 76 21 0 4 9 8 20 8 12 0 20 -6 18 -13 -3 -13
3 -17 27 -17 21 0 19 28 -2 33 -10 2 8 3 40 2 32 -1 63 -7 69 -13 9 -9 6 -12
-15 -12 -15 0 -27 6 -27 13 0 8 -3 7 -9 -3 -14 -20 -7 -26 31 -25 35 1 52 30
26 46 -11 8 -11 11 1 18 12 8 11 13 -9 29 -17 14 -21 24 -16 38 6 12 10 15 13
7 9 -25 19 -12 18 24 0 23 -5 38 -15 41 -13 5 -13 3 -1 -12z m-95 -41 c-4 -8
-10 -15 -15 -15 -5 0 -9 7 -9 15 0 8 7 15 15 15 9 0 12 -6 9 -15z m22 -32
c-10 -10 -19 5 -10 18 6 11 8 11 12 0 2 -7 1 -15 -2 -18z m-41 -49 c-23 -17
-35 -18 -35 -1 0 8 -3 7 -10 -3 -11 -18 -25 -7 -17 15 4 8 16 15 27 15 11 0
20 5 20 11 0 6 8 3 17 -7 16 -15 16 -17 -2 -30z m71 21 c8 -21 -3 -34 -26 -28
-32 8 -23 39 13 42 4 1 10 -6 13 -14z"/>
<path d="M5915 5520 c-5 -8 -11 -23 -12 -32 -4 -22 29 -24 47 -3 10 12 10 15
-3 15 -9 0 -17 8 -19 18 -3 15 -5 15 -13 2z"/>
<path d="M5866 5505 c-9 -26 -7 -32 5 -12 6 10 9 21 6 23 -2 3 -7 -2 -11 -11z"/>
<path d="M5865 5440 c-3 -5 -2 -10 4 -10 5 0 13 5 16 10 3 6 2 10 -4 10 -5 0
-13 -4 -16 -10z"/>
<path d="M5860 5376 c0 -2 7 -6 15 -10 8 -3 15 -1 15 4 0 6 -7 10 -15 10 -8 0
-15 -2 -15 -4z"/>
<path d="M6053 5293 c9 -2 23 -2 30 0 6 3 -1 5 -18 5 -16 0 -22 -2 -12 -5z"/>
<path d="M2259 4995 c-2 -25 -4 -330 -4 -678 0 -499 3 -632 13 -632 27 0 144
99 202 171 66 83 106 155 141 255 30 84 32 274 5 359 -53 166 -140 318 -278
486 -38 46 -71 84 -73 84 -1 0 -5 -20 -6 -45z"/>
<path d="M6057 5029 c7 -7 15 -10 18 -7 3 3 -2 9 -12 12 -14 6 -15 5 -6 -5z"/>
<path d="M5625 4980 c3 -5 14 -10 23 -10 15 0 15 2 2 10 -20 13 -33 13 -25 0z"/>
<path d="M5600 4959 c0 -5 11 -9 25 -9 14 0 25 2 25 4 0 2 -11 6 -25 8 -14 3
-25 1 -25 -3z"/>
<path d="M5545 4940 c-3 -5 -1 -10 4 -10 6 0 11 5 11 10 0 6 -2 10 -4 10 -3 0
-8 -4 -11 -10z"/>
<path d="M5593 4913 c-29 -6 -35 -33 -25 -108 l8 -60 8 45 c5 25 12 47 16 50
4 3 10 22 13 43 3 20 5 36 4 36 -1 -1 -12 -4 -24 -6z"/>
<path d="M5371 4812 c-1 -7 -5 -11 -9 -8 -4 2 -9 -4 -9 -15 -1 -10 3 -19 8
-19 6 0 8 4 5 9 -4 5 -1 11 5 13 7 2 9 11 6 19 -4 10 -6 10 -6 1z"/>
<path d="M5195 4691 c-3 -5 -1 -12 5 -16 5 -3 10 1 10 9 0 18 -6 21 -15 7z"/>
<path d="M5238 4640 c2 -16 8 -27 13 -24 13 8 11 30 -4 43 -11 8 -13 5 -9 -19z"/>
<path d="M5054 4352 c-10 -20 -24 -44 -30 -52 -30 -40 -25 -50 21 -50 l45 0 0
64 c0 36 -4 67 -9 70 -4 3 -17 -11 -27 -32z m17 -15 c-8 -8 -11 -7 -11 4 0 20
13 34 18 19 3 -7 -1 -17 -7 -23z"/>
<path d="M4746 4195 c-11 -8 -17 -17 -14 -20 2 -3 13 4 23 15 21 23 18 25 -9
5z"/>
<path d="M4682 4095 c-6 -14 -10 -25 -8 -25 2 0 11 11 20 25 9 14 13 25 8 25
-5 0 -14 -11 -20 -25z"/>
<path d="M4632 4038 c-16 -16 -15 -25 3 -25 16 0 28 24 16 31 -4 3 -13 0 -19
-6z"/>
<path d="M4585 3990 c-10 -11 -22 -17 -28 -13 -5 3 -7 1 -4 -5 9 -13 57 8 57
26 0 16 -4 15 -25 -8z"/>
<path d="M4600 3959 c0 -5 5 -7 10 -4 6 3 10 8 10 11 0 2 -4 4 -10 4 -5 0 -10
-5 -10 -11z"/>
<path d="M3780 2729 c0 -5 5 -7 10 -4 6 3 10 8 10 11 0 2 -4 4 -10 4 -5 0 -10
-5 -10 -11z"/>
<path d="M1400 2190 c8 -5 24 -9 35 -9 l20 0 -20 9 c-11 5 -27 9 -35 9 -13 1
-13 0 0 -9z"/>
<path d="M1570 2130 c0 -4 10 -10 23 -14 31 -8 39 -7 33 3 -7 11 -56 21 -56
11z"/>
<path d="M1608 2043 c6 -2 18 -2 25 0 6 3 1 5 -13 5 -14 0 -19 -2 -12 -5z"/>
<path d="M9488 1893 c6 -2 18 -2 25 0 6 3 1 5 -13 5 -14 0 -19 -2 -12 -5z"/>
</g>
</svg>
