<?xml version="1.0" standalone="no"?>
<!DOCTYPE svg PUBLIC "-//W3C//DTD SVG 20010904//EN"
 "http://www.w3.org/TR/2001/REC-SVG-20010904/DTD/svg10.dtd">
<svg version="1.0" xmlns="http://www.w3.org/2000/svg"
 width="1000.000000pt" height="571.000000pt" viewBox="0 0 1000.000000 571.000000"
 preserveAspectRatio="xMidYMid meet">

<g transform="translate(0.000000,571.000000) scale(0.100000,-0.100000)"
fill="#000000" stroke="none">
<path d="M5356 3785 c-18 -18 -22 -45 -6 -45 6 0 10 9 10 19 0 11 6 21 13 24
6 2 9 7 6 11 -4 4 -14 0 -23 -9z"/>
<path d="M5288 3779 c-19 -11 -24 -44 -8 -54 5 -3 18 -1 27 4 16 9 15 11 -7
11 -25 2 -25 2 3 12 15 5 26 15 24 21 -5 16 -19 18 -39 6z"/>
<path d="M5218 3773 c-12 -3 -18 -14 -17 -31 0 -26 1 -26 9 -4 5 12 14 22 19
22 5 0 12 -10 14 -22 4 -20 4 -20 6 4 1 30 -6 36 -31 31z"/>
<path d="M4990 3760 c-13 -9 -13 -10 1 -10 12 0 14 -8 11 -30 -3 -18 0 -30 7
-30 6 0 11 15 11 34 0 24 5 36 18 39 11 3 9 5 -8 6 -14 0 -32 -4 -40 -9z"/>
<path d="M5167 3763 c-11 -10 -8 -53 3 -53 6 0 10 14 10 30 0 31 -2 35 -13 23z"/>
<path d="M4921 3718 c1 -37 2 -39 9 -18 12 36 12 60 0 60 -5 0 -10 -19 -9 -42z"/>
<path d="M5115 3751 c19 -8 19 -8 -2 -15 -28 -9 -30 -36 -3 -36 21 0 45 34 35
50 -3 6 -16 10 -28 9 -21 0 -21 -1 -2 -8z m15 -31 c0 -5 -4 -10 -10 -10 -5 0
-10 5 -10 10 0 6 5 10 10 10 6 0 10 -4 10 -10z"/>
<path d="M5048 3725 c-3 -14 -1 -28 3 -31 5 -3 9 3 9 13 0 11 5 24 12 31 9 9
8 12 -4 12 -9 0 -18 -11 -20 -25z"/>
<path d="M4854 3718 c-5 -8 -2 -9 9 -5 12 5 17 1 17 -13 0 -11 -5 -20 -11 -20
-5 0 -7 5 -4 10 3 6 1 10 -4 10 -6 0 -11 -7 -11 -15 0 -9 9 -15 25 -15 21 0
25 5 25 30 0 23 -5 30 -19 30 -11 0 -23 -5 -27 -12z"/>
<path d="M4788 3713 c-11 -3 -18 -14 -18 -29 0 -29 17 -32 22 -4 3 22 23 24
23 3 0 -6 4 -15 8 -19 4 -4 7 7 7 24 0 32 -5 35 -42 25z"/>
<path d="M4700 3690 c-13 -24 -5 -40 19 -40 24 0 45 25 37 45 -8 22 -43 18
-56 -5z m40 -10 c0 -11 -7 -20 -15 -20 -15 0 -21 21 -8 33 12 13 23 7 23 -13z"/>
<path d="M4463 3693 c-8 -3 -13 -21 -12 -46 1 -23 3 -35 6 -26 2 9 15 21 29
28 42 19 19 62 -23 44z m27 -23 c0 -5 -4 -10 -10 -10 -5 0 -10 5 -10 10 0 6 5
10 10 10 6 0 10 -4 10 -10z"/>
<path d="M4607 3689 c-9 -6 -17 -21 -17 -35 0 -14 4 -22 10 -19 6 3 10 15 10
25 0 10 6 20 13 23 6 2 10 7 7 10 -3 3 -13 1 -23 -4z"/>
<path d="M4644 3689 c-4 -7 1 -16 12 -22 17 -10 17 -11 -1 -18 -16 -6 -17 -8
-3 -8 25 -1 34 20 14 35 -16 12 -16 13 1 17 15 4 16 5 1 6 -9 0 -20 -4 -24
-10z"/>
<path d="M5292 3689 c-1 -9 -13 -20 -27 -23 -18 -5 -25 -13 -25 -31 0 -20 5
-25 25 -25 30 0 38 15 32 62 -2 18 -5 26 -5 17z m-12 -43 c0 -16 -18 -31 -27
-22 -8 8 5 36 17 36 5 0 10 -6 10 -14z"/>
<path d="M4554 3675 c3 -8 1 -15 -4 -15 -6 0 -10 5 -10 11 0 5 -4 7 -10 4 -13
-8 -13 -42 0 -50 5 -3 18 -1 27 5 16 11 16 11 1 6 -10 -3 -20 -1 -23 3 -2 5 6
12 20 15 29 7 33 21 9 30 -12 4 -15 2 -10 -9z"/>
<path d="M5325 3670 c-3 -6 1 -7 9 -4 11 4 16 0 16 -15 0 -12 -5 -21 -11 -21
-5 0 -7 5 -3 11 4 7 1 10 -6 7 -25 -8 -22 -28 3 -28 26 0 45 29 32 50 -8 13
-32 13 -40 0z"/>
<path d="M5100 3655 c-1 -11 -3 -30 -6 -42 -2 -13 0 -23 5 -23 5 0 11 10 13
22 5 32 26 33 31 1 4 -27 4 -27 6 5 1 25 -3 32 -18 32 -11 0 -22 6 -24 13 -3
6 -6 3 -7 -8z"/>
<path d="M5191 3653 c18 -4 15 -43 -3 -43 -5 0 -6 5 -3 10 3 6 1 10 -4 10 -6
0 -11 -7 -11 -15 0 -9 9 -15 25 -15 21 0 25 5 25 30 0 25 -4 30 -22 29 -16 -1
-18 -3 -7 -6z"/>
<path d="M5033 3633 c-7 -2 -13 -17 -12 -31 l1 -27 10 28 c12 35 28 35 28 0 0
-20 3 -24 11 -16 25 25 -4 61 -38 46z"/>
<path d="M4935 3625 c-5 -2 -22 -6 -37 -9 -23 -5 -28 -12 -27 -34 l1 -27 11
28 c14 34 27 35 27 1 0 -14 4 -23 10 -19 6 3 10 15 10 26 0 10 5 19 10 19 6 0
10 -9 10 -20 0 -11 5 -20 11 -20 13 0 8 53 -6 56 -5 1 -14 1 -20 -1z"/>
<path d="M4988 3605 c-3 -14 -1 -28 3 -31 5 -3 9 9 9 25 0 38 -6 40 -12 6z"/>
<path d="M4736 3604 c-36 -35 -8 -78 37 -56 20 11 20 11 -6 5 -27 -5 -28 -4
-25 23 2 20 10 30 28 35 23 6 23 7 3 8 -12 1 -29 -6 -37 -15z"/>
<path d="M4806 3601 c-4 -5 3 -7 13 -4 15 4 19 0 17 -13 -2 -10 -9 -20 -16
-22 -7 -3 -10 0 -6 7 4 6 2 11 -3 11 -6 0 -11 -7 -11 -15 0 -9 9 -15 25 -15
21 0 25 5 25 30 0 23 -5 30 -19 30 -11 0 -22 -4 -25 -9z"/>
<path d="M4492 3578 c-1 -9 -12 -18 -24 -20 -17 -2 -24 -11 -26 -32 -3 -27 -2
-28 25 -21 36 9 35 7 30 51 -2 22 -4 31 -5 22z m-12 -42 c0 -8 -4 -17 -9 -21
-12 -7 -24 12 -16 25 9 15 25 12 25 -4z"/>
<path d="M4625 3568 c-14 -21 -14 -24 1 -35 9 -6 23 -9 32 -5 14 5 12 7 -8 13
-14 4 -18 8 -10 8 8 1 22 6 30 11 13 9 13 11 0 20 -22 14 -27 13 -45 -12z m35
2 c0 -5 -7 -10 -16 -10 -8 0 -12 5 -9 10 3 6 10 10 16 10 5 0 9 -4 9 -10z"/>
<path d="M4533 3563 c18 -4 17 -6 -3 -20 -26 -18 -13 -38 19 -28 14 4 21 15
21 31 0 20 -5 24 -27 23 -19 -1 -22 -3 -10 -6z m17 -33 c0 -5 -4 -10 -10 -10
-5 0 -10 5 -10 10 0 6 5 10 10 10 6 0 10 -4 10 -10z"/>
<path d="M5318 3559 c-10 -5 -18 -19 -18 -29 0 -15 7 -20 28 -19 l27 1 -25 7
-25 8 25 4 c14 2 25 10 25 18 0 19 -16 23 -37 10z m22 -9 c0 -5 -5 -10 -11
-10 -5 0 -7 5 -4 10 3 6 8 10 11 10 2 0 4 -4 4 -10z"/>
<path d="M5252 3548 c-21 -21 -15 -48 11 -47 16 1 18 2 5 6 -10 2 -18 8 -18
13 0 12 26 31 33 23 4 -3 7 -1 7 5 0 16 -23 15 -38 0z"/>
<path d="M4172 3534 c-42 -29 -17 -90 26 -64 15 8 14 9 -5 10 -12 0 -24 4 -27
9 -11 18 6 41 31 41 13 0 21 4 18 10 -8 14 -17 13 -43 -6z"/>
<path d="M4324 3542 c-15 -10 -24 -51 -13 -58 5 -3 9 3 9 13 0 11 5 24 12 31
14 14 7 24 -8 14z"/>
<path d="M4361 3518 c1 -21 3 -26 6 -13 3 11 12 26 21 33 14 11 13 12 -6 12
-18 0 -22 -5 -21 -32z"/>
<path d="M4412 3525 c0 -16 2 -22 5 -12 2 9 2 23 0 30 -3 6 -5 -1 -5 -18z"/>
<path d="M5184 3542 c-14 -9 -25 -52 -13 -52 5 0 9 9 9 19 0 10 7 21 15 25 11
4 15 -2 16 -22 0 -24 1 -24 8 -7 14 35 -6 57 -35 37z"/>
<path d="M4247 3528 c-21 -11 -22 -47 -2 -54 19 -8 45 13 45 36 0 22 -21 31
-43 18z m27 -17 c3 -5 -1 -14 -8 -20 -16 -13 -32 2 -21 19 8 12 22 13 29 1z"/>
<path d="M5110 3530 c0 -6 5 -8 10 -5 6 3 10 -3 10 -14 0 -12 -5 -21 -11 -21
-5 0 -7 5 -3 11 4 7 2 10 -5 8 -23 -8 -16 -24 12 -27 26 -3 28 -1 25 25 -3 27
-38 48 -38 23z"/>
<path d="M4832 3518 c-7 -7 -12 -28 -11 -47 0 -20 3 -29 6 -21 2 8 7 22 10 30
8 20 14 50 10 50 -2 0 -8 -5 -15 -12z"/>
<path d="M5020 3521 c-29 -5 -36 -11 -38 -35 -2 -18 0 -26 7 -21 6 3 11 15 11
26 0 10 5 19 10 19 6 0 10 -9 10 -20 0 -26 18 -26 22 0 2 12 7 19 13 18 5 -2
9 -8 7 -15 -1 -6 2 -15 9 -18 7 -5 9 2 7 21 -3 31 -9 34 -58 25z"/>
<path d="M4948 3512 c-12 -2 -18 -13 -18 -33 0 -18 4 -28 10 -24 6 3 10 15 10
25 0 10 6 20 13 23 17 6 5 14 -15 9z"/>
<path d="M4866 3494 c-9 -8 -16 -21 -16 -29 0 -30 56 -25 65 6 12 38 -20 53
-49 23z m34 -19 c0 -8 -7 -15 -15 -15 -8 0 -15 7 -15 15 0 8 7 15 15 15 8 0
15 -7 15 -15z"/>
<path d="M4626 3474 c-3 -9 -6 -27 -6 -41 l0 -25 30 29 c17 15 30 34 30 40 0
19 -47 16 -54 -3z m39 -4 c-3 -5 -10 -10 -16 -10 -5 0 -9 5 -9 10 0 6 7 10 16
10 8 0 12 -4 9 -10z"/>
<path d="M4766 3468 c-8 -32 -7 -38 4 -38 6 0 10 8 10 18 0 10 5 23 12 30 9 9
8 12 -4 12 -9 0 -18 -10 -22 -22z"/>
<path d="M4694 3465 c-13 -32 24 -63 41 -35 3 6 -1 7 -9 4 -9 -3 -16 -1 -16 5
0 6 9 11 20 11 11 0 20 7 20 15 0 9 -9 15 -25 15 -14 0 -28 -7 -31 -15z"/>
<path d="M5272 3462 c-1 -7 -14 -17 -28 -22 -18 -7 -24 -16 -22 -32 8 -52 62
-21 55 32 -2 19 -5 29 -5 22z m-12 -47 c0 -8 -7 -15 -15 -15 -16 0 -20 12 -8
23 11 12 23 8 23 -8z"/>
<path d="M5150 3418 l-12 -33 -10 28 c-5 15 -14 27 -19 27 -12 0 13 -62 27
-67 6 -2 18 13 27 32 20 41 20 45 8 45 -5 0 -14 -15 -21 -32z"/>
<path d="M5315 3441 c19 -8 19 -8 -2 -15 -24 -8 -30 -21 -13 -31 16 -10 50 14
50 35 0 15 -7 20 -27 19 -24 0 -25 -1 -8 -8z m15 -25 c0 -3 -4 -8 -10 -11 -5
-3 -10 -1 -10 4 0 6 5 11 10 11 6 0 10 -2 10 -4z"/>
<path d="M4970 3414 c0 -8 -4 -13 -9 -10 -14 9 -42 -29 -35 -48 4 -12 13 -15
28 -10 11 4 22 7 23 8 0 0 4 18 8 39 5 25 4 37 -4 37 -6 0 -11 -7 -11 -16z m0
-39 c0 -8 -7 -15 -15 -15 -8 0 -15 7 -15 15 0 8 7 15 15 15 8 0 15 -7 15 -15z"/>
<path d="M5192 3405 c0 -16 2 -22 5 -12 2 9 2 23 0 30 -3 6 -5 -1 -5 -18z"/>
<path d="M5017 3408 c-19 -10 -23 -43 -7 -53 5 -3 18 -1 27 4 17 10 16 10 -2
11 -18 1 -18 2 3 10 12 5 22 14 22 19 0 14 -25 20 -43 9z m23 -8 c0 -5 -5 -10
-11 -10 -5 0 -7 5 -4 10 3 6 8 10 11 10 2 0 4 -4 4 -10z"/>
<path d="M4790 3390 c0 -5 -7 -10 -15 -10 -17 0 -39 -36 -30 -50 7 -12 25 -13
41 -2 16 10 29 72 15 72 -6 0 -11 -4 -11 -10z m0 -34 c0 -16 -18 -31 -27 -22
-8 8 5 36 17 36 5 0 10 -6 10 -14z"/>
<path d="M4650 3375 c0 -8 -9 -15 -19 -15 -22 0 -38 -37 -23 -52 5 -5 19 -7
31 -3 17 5 21 15 21 46 0 21 -2 39 -5 39 -3 0 -5 -7 -5 -15z m-6 -33 c2 -4 1
-14 -4 -21 -10 -17 -31 -5 -23 14 6 16 19 20 27 7z"/>
<path d="M4832 3381 c-20 -12 -10 -45 13 -48 11 -2 14 0 8 3 -16 7 -17 44 -2
44 5 0 7 -4 4 -10 -3 -5 1 -10 10 -10 20 0 15 24 -6 27 -8 2 -20 -1 -27 -6z"/>
<path d="M4538 3334 c-2 -19 0 -37 4 -40 4 -3 8 13 8 35 0 51 -6 53 -12 5z"/>
<path d="M4695 3362 c14 -10 18 -42 5 -42 -6 0 -8 5 -4 11 4 7 2 10 -5 8 -21
-7 -12 -24 12 -24 17 0 23 7 25 28 3 23 0 27 -20 27 -13 0 -18 -4 -13 -8z"/>
<path d="M4570 3325 c0 -14 2 -25 4 -25 2 0 6 11 8 25 3 14 1 25 -3 25 -5 0
-9 -11 -9 -25z"/>
<path d="M4305 3324 c-9 -9 -15 -26 -13 -38 2 -17 11 -21 43 -23 38 -2 40 0
39 28 -1 16 -2 34 -3 39 -2 16 -48 12 -66 -6z m51 -9 c7 -18 -12 -45 -32 -45
-14 0 -20 41 -7 53 11 12 33 7 39 -8z"/>
<path d="M4483 3333 c18 -5 17 -6 -2 -20 -12 -8 -19 -19 -16 -24 10 -15 25
-10 19 6 -4 8 -1 15 5 15 6 0 11 -4 11 -10 0 -5 5 -10 10 -10 6 0 10 11 10 25
0 21 -5 25 -27 24 -19 -1 -22 -3 -10 -6z"/>
<path d="M4184 3316 c-10 -8 -16 -18 -12 -22 4 -4 3 -13 -4 -21 -17 -20 3 -34
38 -27 20 4 30 12 31 25 1 10 -2 19 -8 19 -5 0 -9 -5 -9 -11 0 -8 -5 -8 -15 1
-17 14 -20 30 -4 30 5 0 7 -6 3 -12 -6 -10 -4 -10 7 0 21 19 -2 35 -27 18z
m16 -56 c0 -5 -4 -10 -9 -10 -6 0 -13 5 -16 10 -3 6 1 10 9 10 9 0 16 -4 16
-10z"/>
<path d="M4392 3303 c2 -14 8 -28 14 -30 7 -2 9 8 6 27 -5 37 -25 40 -20 3z"/>
<path d="M4437 3323 c-11 -10 -8 -43 3 -43 6 0 10 11 10 25 0 26 -2 29 -13 18z"/>
<path d="M4028 3287 c-5 -10 -8 -27 -8 -38 0 -10 -7 -19 -15 -19 -8 0 -15 7
-15 15 0 8 5 15 10 15 6 0 10 4 10 10 0 5 -7 7 -15 4 -8 -4 -15 -17 -15 -30 0
-19 5 -24 25 -24 29 0 38 15 33 57 -2 23 -4 25 -10 10z"/>
<path d="M4060 3270 c-14 -27 -5 -40 28 -39 l27 1 -25 7 -25 7 23 8 c25 8 25
29 -1 34 -8 2 -21 -6 -27 -18z m30 0 c0 -5 -5 -10 -11 -10 -5 0 -7 5 -4 10 3
6 8 10 11 10 2 0 4 -4 4 -10z"/>
<path d="M3783 3263 c-18 -7 -16 -32 2 -39 22 -9 18 -22 -7 -27 -16 -4 -13 -5
7 -4 31 2 52 37 21 37 -26 0 -28 20 -4 29 13 6 16 10 8 10 -8 -1 -21 -3 -27
-6z"/>
<path d="M3948 3248 c-4 -30 -28 -36 -28 -7 0 17 -3 20 -11 12 -18 -18 -2 -43
26 -43 21 0 25 5 25 30 0 35 -7 40 -12 8z"/>
<path d="M3845 3251 c-3 -7 0 -8 9 -5 9 3 16 2 16 -4 0 -5 -9 -12 -20 -15 -20
-5 -28 -27 -10 -27 6 0 10 5 10 10 0 6 5 10 11 10 5 0 7 -5 3 -11 -4 -7 -1
-10 7 -7 20 7 18 52 -3 56 -9 2 -19 -2 -23 -7z"/>
<path d="M5216 2557 c3 -10 9 -15 12 -12 3 3 0 11 -7 18 -10 9 -11 8 -5 -6z"/>
<path d="M7888 2520 c-21 -16 -30 -18 -61 -8 -28 8 -43 8 -68 -3 -18 -7 -47
-12 -64 -11 -16 2 -40 -1 -51 -5 -17 -7 -19 -13 -13 -38 8 -29 11 -30 51 -27
24 2 48 8 53 12 6 4 37 8 69 9 33 0 64 5 70 11 5 5 38 10 72 10 35 0 66 4 69
10 3 5 -5 21 -19 35 -30 30 -74 33 -108 5z"/>
<path d="M4704 2499 c-3 -6 -2 -15 3 -20 5 -5 9 -1 9 11 0 23 -2 24 -12 9z"/>
<path d="M7192 2436 c-40 -43 -54 -64 -32 -51 6 3 13 -1 16 -9 10 -25 94 -17
94 9 0 8 14 16 31 20 44 10 36 41 -10 37 -26 -3 -34 1 -38 17 -8 29 -14 27
-61 -23z"/>
<path d="M7470 2468 c-14 -6 -41 -10 -60 -9 -51 2 -67 -11 -54 -46 8 -25 13
-28 49 -25 22 2 45 10 51 18 8 10 23 12 57 8 90 -13 122 17 56 51 -32 17 -64
18 -99 3z"/>
<path d="M7963 2433 c-26 -5 -26 -4 -13 -37 9 -24 13 -26 52 -20 24 4 44 8 46
9 1 1 -2 14 -7 29 -11 26 -24 29 -78 19z"/>
<path d="M4160 2425 c0 -5 5 -17 10 -25 5 -8 10 -10 10 -5 0 6 -5 17 -10 25
-5 8 -10 11 -10 5z"/>
<path d="M7827 2413 c-26 -4 -28 -8 -22 -31 9 -35 6 -34 54 -26 40 6 47 16 35
48 -6 16 -13 17 -67 9z"/>
<path d="M7687 2393 c-24 -4 -28 -9 -25 -31 3 -25 6 -27 48 -24 24 2 46 4 48
6 1 2 0 15 -4 30 -6 26 -10 27 -67 19z"/>
<path d="M5028 2383 c7 -3 16 -2 19 1 4 3 -2 6 -13 5 -11 0 -14 -3 -6 -6z"/>
<path d="M5296 2381 c-8 -12 13 -27 47 -35 21 -5 27 -11 23 -22 -4 -10 -1 -14
6 -12 25 9 12 33 -22 45 -19 6 -34 16 -32 22 3 13 -15 15 -22 2z"/>
<path d="M5175 2366 c-11 -9 -15 -16 -9 -16 5 0 16 6 23 13 13 12 28 0 57 -49
7 -11 14 -16 18 -13 9 8 -37 73 -55 77 -8 1 -23 -4 -34 -12z"/>
<path d="M7540 2368 c-19 -5 -61 -10 -93 -12 -31 -1 -60 -5 -63 -9 -6 -6 14
-108 25 -126 4 -5 25 -7 50 -4 46 6 45 3 29 73 -2 10 11 16 44 20 47 6 88 32
88 57 0 15 -28 15 -80 1z"/>
<path d="M5130 2365 c0 -16 42 -85 51 -85 6 0 9 3 7 8 -25 52 -43 82 -50 82
-4 0 -8 -2 -8 -5z"/>
<path d="M4925 2340 c-3 -5 -2 -10 3 -10 5 0 15 -14 22 -30 12 -30 46 -47 72
-37 7 3 3 6 -9 6 -14 1 -28 12 -38 31 -9 17 -12 30 -8 30 10 0 -19 20 -29 20
-4 0 -10 -4 -13 -10z"/>
<path d="M5056 2318 c17 -33 31 -48 48 -48 5 0 2 8 -6 18 -9 9 -19 27 -22 40
-4 12 -14 22 -22 22 -12 0 -12 -5 2 -32z"/>
<path d="M7241 2328 c-55 -9 -57 -12 -31 -38 19 -19 31 -22 76 -18 59 5 84 20
77 46 -5 20 -45 23 -122 10z"/>
<path d="M4860 2320 c0 -6 -12 -8 -27 -4 -16 3 -23 2 -17 -3 6 -4 19 -23 28
-40 9 -18 21 -33 26 -33 15 0 12 11 -7 33 -17 18 -17 20 6 38 18 14 19 19 7
19 -9 0 -16 -5 -16 -10z"/>
<path d="M4543 2290 c-8 -41 -14 -43 -56 -15 -59 41 -70 34 -42 -27 14 -29 29
-54 36 -57 6 -2 1 16 -11 39 -12 23 -20 44 -18 46 2 2 21 -8 41 -21 20 -14 38
-25 40 -25 3 0 10 14 16 30 13 40 22 38 44 -10 10 -22 25 -40 32 -40 10 0 4
17 -18 55 -36 62 -55 69 -64 25z"/>
<path d="M4716 2300 c35 -14 36 -27 3 -34 -41 -8 -37 -40 6 -43 26 -2 27 -1 7
5 -13 4 -23 12 -23 17 0 17 40 17 57 1 8 -9 21 -16 27 -15 9 0 8 2 0 6 -7 2
-13 10 -13 17 0 21 -40 56 -63 55 l-22 0 21 -9z"/>
<path d="M4280 2239 c20 -8 22 -12 10 -19 -8 -5 -10 -10 -5 -10 6 0 16 4 24 9
11 7 10 11 -7 20 -11 6 -27 11 -34 10 -7 0 -2 -5 12 -10z"/>
<path d="M4224 2225 c-14 -36 27 -66 84 -64 23 1 22 2 -8 8 -50 10 -66 21 -49
32 11 7 10 9 -5 9 -12 0 -16 5 -12 15 3 8 3 15 0 15 -2 0 -7 -7 -10 -15z"/>
<path d="M4094 2216 c-13 -10 -23 -11 -31 -4 -18 15 -17 -4 4 -47 27 -57 43
-43 18 17 -9 23 30 45 51 27 8 -6 14 -17 14 -25 0 -14 30 -47 37 -40 2 2 -3
19 -13 38 -26 50 -45 59 -80 34z"/>
<path d="M3901 2186 c-9 -11 -9 -20 -2 -35 11 -19 48 -38 58 -28 2 3 -5 8 -16
12 -12 3 -19 11 -16 16 4 5 1 9 -4 9 -15 0 -14 27 2 33 7 4 8 6 1 6 -6 1 -17
-5 -23 -13z"/>
<path d="M3968 2193 c6 -2 10 -9 6 -14 -3 -5 2 -9 10 -9 9 0 16 4 16 9 0 9
-25 22 -38 20 -4 0 -1 -3 6 -6z"/>
<path d="M3520 2171 c0 -4 10 -32 21 -60 l22 -52 46 7 c57 8 70 17 18 13 -25
-3 -41 1 -47 11 -14 22 -12 30 8 31 11 1 8 4 -8 8 -30 8 -39 37 -13 44 10 3 3
5 -14 6 -18 0 -33 -3 -33 -8z"/>
<path d="M3689 2169 c-8 -5 -9 -9 -3 -9 6 0 18 -16 27 -35 10 -21 24 -35 34
-35 10 0 14 4 8 8 -16 12 -36 52 -30 61 7 13 -20 21 -36 10z"/>
<path d="M3810 2173 c0 -15 40 -73 50 -73 6 0 1 18 -10 40 -18 35 -40 53 -40
33z"/>
<path d="M3998 2123 c7 -3 16 -2 19 1 4 3 -2 6 -13 5 -11 0 -14 -3 -6 -6z"/>
<path d="M4372 1434 c-6 -7 -19 -11 -27 -8 -19 8 -19 -1 1 -31 9 -14 23 -25
32 -25 13 0 12 3 -4 15 -16 13 -17 16 -4 25 11 7 17 5 24 -10 5 -11 13 -20 18
-20 6 0 -14 52 -26 66 0 1 -7 -4 -14 -12z"/>
<path d="M4507 1443 c-13 -12 -7 -23 13 -23 22 0 27 -15 8 -24 -7 -3 -4 -5 6
-3 28 3 32 27 6 34 -16 4 -18 8 -8 14 10 7 10 9 -3 9 -9 0 -19 -3 -22 -7z"/>
<path d="M4433 1432 c-8 -5 -7 -14 3 -32 14 -24 15 -24 11 -3 -7 33 13 40 34
12 20 -26 25 -19 9 12 -11 19 -36 25 -57 11z"/>
<path d="M4298 1413 c-14 -4 -15 -8 -6 -29 15 -33 25 -30 25 6 0 17 -1 29 -1
29 -1 -1 -9 -3 -18 -6z"/>
<path d="M4945 1409 c-19 -9 -18 -9 3 -5 19 4 22 0 22 -31 0 -20 4 -32 10 -28
6 3 10 22 10 41 0 36 -9 40 -45 23z"/>
<path d="M4150 1385 c0 -30 -11 -32 -35 -5 -17 18 -45 28 -45 15 0 -13 32 -66
37 -62 2 3 -1 15 -7 28 l-13 22 28 -21 c36 -29 43 -28 47 6 l3 27 17 -30 c14
-24 17 -26 17 -10 0 24 -21 55 -38 55 -6 0 -11 -11 -11 -25z"/>
<path d="M4220 1399 c-13 -9 -12 -10 2 -5 11 3 22 -2 28 -14 7 -14 7 -20 0
-20 -5 0 -10 5 -10 10 0 6 -4 10 -10 10 -5 0 -10 -7 -10 -15 0 -16 17 -19 44
-9 20 8 20 18 0 38 -18 19 -24 19 -44 5z"/>
<path d="M4868 1399 c-15 -8 -15 -12 -1 -39 15 -31 36 -37 63 -20 13 9 13 12
-2 24 -10 7 -15 16 -12 19 11 11 -31 25 -48 16z m29 -15 c-3 -3 -12 -4 -19 -1
-8 3 -5 6 6 6 11 1 17 -2 13 -5z m23 -34 c0 -5 -7 -10 -15 -10 -8 0 -15 5 -15
10 0 6 7 10 15 10 8 0 15 -4 15 -10z"/>
<path d="M3945 1379 c-16 -4 -24 -7 -18 -8 7 0 20 -16 29 -33 10 -18 19 -28
21 -21 2 7 0 21 -6 32 -8 14 -8 21 2 24 23 8 2 13 -28 6z"/>
<path d="M4793 1383 c25 -4 28 -7 22 -34 -4 -18 -3 -29 4 -29 6 0 11 9 11 19
0 11 3 26 6 35 5 13 -1 16 -32 15 -32 -2 -34 -3 -11 -6z"/>
<path d="M4717 1374 c-3 -4 1 -13 9 -21 8 -9 13 -22 10 -29 -4 -10 3 -14 20
-14 23 0 24 2 10 15 -8 8 -18 24 -21 35 -6 20 -16 25 -28 14z"/>
<path d="M5573 1373 c-18 -2 -33 -7 -33 -9 0 -14 22 -44 32 -44 9 0 9 3 0 12
-16 16 -15 28 2 28 8 0 18 -9 21 -20 9 -29 27 -25 19 5 -7 30 12 34 21 5 6
-20 25 -28 25 -11 0 14 -30 41 -43 39 -7 0 -27 -3 -44 -5z"/>
<path d="M4010 1363 c0 -19 11 -43 21 -43 13 0 11 14 -6 36 -8 10 -15 14 -15
7z"/>
<path d="M4574 1349 c-9 -15 6 -27 41 -31 l30 -4 -25 -12 -25 -12 25 3 c47 4
33 67 -16 67 -12 0 -26 -5 -30 -11z m51 -9 c3 -5 -3 -10 -14 -10 -12 0 -21 5
-21 10 0 6 6 10 14 10 8 0 18 -4 21 -10z"/>
<path d="M5465 1349 c-8 -12 22 -49 40 -49 7 0 18 7 25 15 10 12 10 18 0 30
-14 17 -56 20 -65 4z m50 -9 c11 -17 -5 -32 -21 -19 -8 6 -14 15 -14 20 0 12
27 11 35 -1z"/>
<path d="M4500 1341 c0 -32 21 -61 44 -61 27 0 45 18 29 29 -5 3 -12 14 -16
24 -7 18 -57 25 -57 8z m40 -11 c0 -5 -4 -10 -10 -10 -5 0 -10 5 -10 10 0 6 5
10 10 10 6 0 10 -4 10 -10z m20 -30 c0 -5 -7 -10 -15 -10 -8 0 -15 5 -15 10 0
6 7 10 15 10 8 0 15 -4 15 -10z"/>
<path d="M5403 1334 c-8 -22 22 -44 50 -36 20 6 20 7 -5 10 -31 4 -38 28 -10
35 12 4 11 5 -6 6 -13 0 -25 -6 -29 -15z"/>
<path d="M4440 1321 c-16 -31 -12 -38 20 -43 18 -3 31 0 34 9 3 7 1 13 -4 13
-5 0 -12 9 -15 20 -8 25 -21 26 -35 1z m30 -22 c0 -5 -4 -9 -10 -9 -5 0 -10 7
-10 16 0 8 5 12 10 9 6 -3 10 -10 10 -16z"/>
<path d="M4351 1321 c-23 -15 -5 -44 24 -39 29 6 33 -6 8 -21 -16 -9 -16 -10
-2 -11 9 0 22 7 29 15 10 12 9 20 -4 40 -17 26 -32 31 -55 16z m37 -19 c2 -7
-3 -12 -12 -12 -9 0 -16 7 -16 16 0 17 22 14 28 -4z"/>
<path d="M4678 1323 c7 -3 16 -2 19 1 4 3 -2 6 -13 5 -11 0 -14 -3 -6 -6z"/>
<path d="M5258 1322 c-22 -4 -22 -13 -2 -38 15 -19 15 -18 11 3 -7 30 9 39 23
13 14 -26 30 -26 23 0 -7 26 13 26 27 -1 7 -11 14 -18 17 -16 2 3 0 15 -6 26
-11 20 -43 24 -93 13z"/>
<path d="M4271 1311 c-21 -14 -5 -41 24 -41 28 0 34 -16 8 -23 -13 -3 -14 -5
-3 -6 8 0 22 4 30 9 13 8 13 13 0 37 -17 30 -37 38 -59 24z m39 -21 c0 -5 -7
-10 -15 -10 -8 0 -15 5 -15 10 0 6 7 10 15 10 8 0 15 -4 15 -10z"/>
<path d="M5178 1313 c-22 -5 -22 -6 -1 -46 9 -18 18 -26 20 -19 3 6 11 12 18
12 23 0 28 20 9 41 -9 10 -20 18 -23 18 -3 -1 -14 -3 -23 -6z m37 -24 c4 -6 5
-12 2 -15 -7 -7 -37 7 -37 17 0 13 27 11 35 -2z"/>
<path d="M5100 1299 c0 -5 4 -9 9 -9 5 0 13 -9 16 -20 3 -11 13 -20 22 -20 14
0 14 2 -1 19 -10 11 -16 24 -13 28 3 5 -3 10 -14 10 -10 1 -19 -2 -19 -8z"/>
<path d="M4194 1275 c9 -13 16 -33 16 -45 0 -11 5 -20 10 -20 6 0 10 7 10 15
0 23 -29 75 -41 75 -7 0 -5 -10 5 -25z"/>
<path d="M5045 1286 c-17 -12 -17 -16 -5 -30 16 -20 65 -18 65 3 0 7 -9 20
-21 27 -17 12 -23 12 -39 0z m43 -24 c3 -9 -2 -13 -14 -10 -9 1 -19 9 -22 16
-3 9 2 13 14 10 9 -1 19 -9 22 -16z"/>
<path d="M4118 1284 c-4 -3 3 -15 14 -26 16 -16 18 -22 7 -29 -10 -6 -6 -9 13
-9 l27 0 -20 35 c-21 34 -30 41 -41 29z"/>
<path d="M4970 1278 c0 -5 -7 -7 -16 -4 -8 3 -24 1 -35 -4 -15 -9 -17 -15 -9
-30 11 -20 54 -28 64 -11 3 4 -6 6 -21 3 -17 -3 -24 -1 -19 6 3 6 1 12 -6 14
-9 3 -9 6 0 12 7 4 12 2 12 -3 0 -6 7 -11 15 -11 8 0 15 5 15 10 0 18 18 11
25 -10 3 -11 13 -20 22 -20 14 0 14 2 -1 19 -10 11 -16 24 -13 28 3 5 -3 10
-14 10 -10 1 -19 -3 -19 -9z"/>
<path d="M4038 1274 c-4 -3 2 -14 13 -25 10 -10 16 -25 13 -32 -4 -11 2 -13
22 -9 22 4 24 6 10 14 -10 5 -21 21 -26 34 -9 23 -21 30 -32 18z"/>
<path d="M3980 1251 c0 -21 36 -71 51 -71 6 0 1 12 -10 26 -12 15 -21 35 -21
45 0 11 -4 19 -10 19 -5 0 -10 -8 -10 -19z"/>
<path d="M4794 1245 c-8 -20 13 -45 38 -45 24 0 34 26 18 45 -16 19 -49 19
-56 0z m45 -9 c9 -10 9 -16 1 -21 -13 -8 -42 14 -34 26 8 13 20 11 33 -5z"/>
<path d="M4875 1243 c5 -10 8 -26 9 -35 0 -19 11 -24 21 -9 7 12 -15 61 -28
61 -5 0 -6 -8 -2 -17z"/>
<path d="M4744 1244 c-9 -4 -9 -11 0 -29 15 -33 23 -31 22 5 -1 30 -2 32 -22
24z"/>
<path d="M4536 1224 c-21 -20 -20 -30 4 -54 22 -22 65 -27 76 -9 4 7 0 9 -14
5 -31 -10 -64 11 -60 37 2 18 10 22 38 22 27 0 35 -4 38 -20 3 -19 2 -19 -11
-2 -16 19 -42 23 -52 7 -12 -19 13 -37 46 -32 35 5 47 25 29 47 -16 20 -74 19
-94 -1z m54 -24 c0 -5 -4 -10 -10 -10 -5 0 -10 5 -10 10 0 6 5 10 10 10 6 0
10 -4 10 -10z"/>
<path d="M4668 1233 c-17 -4 -17 -7 -2 -36 9 -18 18 -34 20 -36 1 -1 13 7 26
18 35 33 7 68 -44 54z m40 -27 c3 -12 -1 -17 -10 -14 -7 3 -15 13 -16 22 -3
12 1 17 10 14 7 -3 15 -13 16 -22z"/>
<path d="M4457 1202 c-12 -2 -17 -11 -15 -25 2 -17 10 -22 33 -22 20 0 31 6
33 17 4 19 -25 36 -51 30z m36 -27 c-4 -15 -36 -12 -41 3 -3 9 3 13 19 10 13
-1 23 -7 22 -13z"/>
<path d="M4380 1194 c0 -15 35 -54 48 -54 13 0 13 2 -3 14 -10 7 -16 20 -13
28 4 9 -1 14 -13 15 -10 1 -19 0 -19 -3z"/>
<path d="M4260 1177 c0 -21 30 -57 48 -57 16 1 16 1 0 11 -10 5 -18 18 -18 28
0 11 -7 21 -15 25 -8 3 -15 0 -15 -7z"/>
<path d="M4320 1179 c-12 -9 -12 -10 4 -5 11 4 23 1 28 -6 11 -18 10 -28 -3
-28 -5 0 -7 5 -3 11 4 7 2 10 -5 8 -23 -8 -16 -24 12 -27 31 -4 37 17 11 42
-18 19 -24 19 -44 5z"/>
<path d="M4198 1163 c-10 -2 -18 -7 -18 -9 0 -13 22 -44 31 -44 6 0 6 7 -1 19
-15 29 5 36 24 9 9 -12 19 -19 22 -15 7 7 -24 48 -35 46 -3 -1 -14 -3 -23 -6z"/>
<path d="M4116 1147 c-28 -20 -10 -49 28 -45 36 3 41 24 10 44 -16 11 -23 12
-38 1z m42 -25 c3 -9 -2 -13 -14 -10 -9 1 -19 9 -22 16 -3 9 2 13 14 10 9 -1
19 -9 22 -16z"/>
<path d="M4042 1118 c2 -17 11 -24 31 -26 15 -2 27 1 27 6 0 5 -10 8 -21 8
-27 -1 -37 21 -12 27 14 4 13 5 -5 6 -19 1 -23 -3 -20 -21z"/>
<path d="M8408 1113 c6 -2 18 -2 25 0 6 3 1 5 -13 5 -14 0 -19 -2 -12 -5z"/>
<path d="M8295 1099 c-20 -5 -9 -6 30 -2 33 3 62 7 64 9 8 7 -63 2 -94 -7z"/>
<path d="M8180 1080 c-17 -6 -9 -7 25 -3 28 3 52 7 54 9 8 7 -54 2 -79 -6z"/>
<path d="M8055 1060 l-30 -8 27 -1 c15 0 30 4 33 9 3 6 5 9 3 9 -2 -1 -16 -5
-33 -9z"/>
<path d="M8118 1063 c7 -3 16 -2 19 1 4 3 -2 6 -13 5 -11 0 -14 -3 -6 -6z"/>
<path d="M7915 1040 c-27 -4 -97 -15 -155 -24 -571 -87 -894 -140 -882 -144
11 -3 946 139 1092 167 56 11 13 11 -55 1z"/>
<path d="M6790 864 c-8 -1 -94 -15 -190 -29 -204 -31 -288 -47 -200 -39 112
11 476 72 430 72 -14 0 -32 -2 -40 -4z"/>
<path d="M6215 775 c-80 -17 -29 -17 60 -1 45 9 58 14 35 14 -19 0 -62 -6 -95
-13z"/>
<path d="M6108 753 c6 -2 18 -2 25 0 6 3 1 5 -13 5 -14 0 -19 -2 -12 -5z"/>
<path d="M5990 740 c-27 -6 -29 -8 -10 -8 14 -1 43 3 65 7 33 7 35 9 10 9 -16
-1 -46 -4 -65 -8z"/>
<path d="M5903 723 c9 -2 25 -2 35 0 9 3 1 5 -18 5 -19 0 -27 -2 -17 -5z"/>
<path d="M5848 713 c6 -2 18 -2 25 0 6 3 1 5 -13 5 -14 0 -19 -2 -12 -5z"/>
<path d="M5658 683 c6 -2 18 -2 25 0 6 3 1 5 -13 5 -14 0 -19 -2 -12 -5z"/>
<path d="M4095 460 c-3 -5 1 -10 9 -10 8 0 18 5 21 10 3 6 -1 10 -9 10 -8 0
-18 -4 -21 -10z"/>
</g>
</svg>
