<?xml version="1.0" standalone="no"?>
<!DOCTYPE svg PUBLIC "-//W3C//DTD SVG 20010904//EN"
 "http://www.w3.org/TR/2001/REC-SVG-20010904/DTD/svg10.dtd">
<svg version="1.0" xmlns="http://www.w3.org/2000/svg"
 width="270.000000pt" height="186.000000pt" viewBox="0 0 270.000000 186.000000"
 preserveAspectRatio="xMidYMid meet">

<g transform="translate(0.000000,186.000000) scale(0.100000,-0.100000)"
fill="#000000" stroke="none">
<path d="M0 1850 c0 -5 5 -10 11 -10 5 0 7 5 4 10 -3 6 -8 10 -11 10 -2 0 -4
-4 -4 -10z"/>
<path d="M671 1841 c-8 -13 -8 -22 -1 -26 6 -4 8 -10 5 -15 -8 -14 12 -21 38
-15 14 4 30 18 36 31 14 32 15 32 -11 31 -13 0 -31 3 -40 7 -11 5 -20 1 -27
-13z"/>
<path d="M1373 1850 c5 -18 39 -20 45 -2 2 6 -3 12 -12 12 -9 0 -16 -6 -16
-12 0 -9 -4 -8 -11 2 -9 13 -10 13 -6 0z"/>
<path d="M2070 1839 c-9 -16 -8 -26 5 -45 14 -22 18 -23 36 -10 12 8 27 23 35
34 12 17 12 22 -1 32 -13 11 -14 10 -8 -5 6 -18 5 -18 -17 -2 -31 22 -37 21
-50 -4z"/>
<path d="M1595 1840 c-3 -6 1 -7 9 -4 18 7 21 14 7 14 -6 0 -13 -4 -16 -10z"/>
<path d="M316 1828 c5 -7 2 -9 -7 -6 -23 9 -39 -15 -23 -36 12 -17 13 -17 26
3 7 12 19 21 27 21 11 0 11 3 1 15 -15 18 -34 20 -24 3z"/>
<path d="M1715 1830 c6 -10 4 -12 -8 -7 -22 8 -22 -7 0 -24 11 -10 14 -10 9
-1 -4 7 -1 12 9 12 19 0 15 22 -5 28 -8 3 -10 0 -5 -8z"/>
<path d="M1250 1821 c0 -5 5 -13 10 -16 6 -3 10 -2 10 4 0 5 -4 13 -10 16 -5
3 -10 2 -10 -4z"/>
<path d="M2650 1821 c0 -5 5 -13 10 -16 6 -3 10 -2 10 4 0 5 -4 13 -10 16 -5
3 -10 2 -10 -4z"/>
<path d="M246 1797 c4 -10 1 -17 -6 -17 -7 0 -10 -7 -6 -15 3 -8 1 -15 -3 -15
-5 0 -11 5 -13 12 -3 7 -7 6 -11 -5 -4 -11 -1 -17 9 -17 8 0 12 -4 9 -10 -3
-5 -2 -10 3 -10 5 0 12 9 15 21 3 12 10 18 15 15 20 -12 20 23 1 40 -18 16
-19 16 -13 1z"/>
<path d="M1214 1796 c-3 -8 -4 -23 -1 -33 4 -14 5 -13 6 5 0 12 6 22 11 22 6
0 10 5 10 10 0 15 -20 12 -26 -4z"/>
<path d="M1681 1793 c7 -12 15 -20 18 -17 3 2 -3 12 -13 22 -17 16 -18 16 -5
-5z"/>
<path d="M2611 1778 c1 -24 3 -27 6 -10 2 12 9 22 14 22 5 0 9 5 9 10 0 6 -7
10 -15 10 -11 0 -15 -10 -14 -32z"/>
<path d="M407 1784 c-5 -5 87 -94 98 -94 11 0 3 13 -36 55 -41 45 -50 50 -62
39z"/>
<path d="M1650 1779 c0 -5 -5 -7 -12 -3 -8 5 -9 2 -5 -9 4 -11 1 -17 -9 -17
-8 0 -12 5 -9 10 3 6 1 10 -4 10 -15 0 -14 -18 1 -34 11 -11 17 -9 35 11 24
26 29 43 13 43 -5 0 -10 -5 -10 -11z"/>
<path d="M1807 1783 c-2 -5 18 -28 45 -52 26 -24 48 -38 48 -30 -1 17 -87 93
-93 82z"/>
<path d="M1310 1736 c0 -13 -3 -31 -6 -39 -4 -12 0 -14 16 -10 16 4 20 11 16
27 -3 11 -6 27 -6 34 0 6 -4 12 -10 12 -5 0 -10 -11 -10 -24z"/>
<path d="M1016 1724 c-19 -18 -21 -65 -4 -82 18 -18 30 -14 23 7 -3 10 1 24
10 31 19 16 20 60 1 60 -8 0 -22 -7 -30 -16z m24 -14 c0 -5 -5 -10 -11 -10 -5
0 -7 5 -4 10 3 6 8 10 11 10 2 0 4 -4 4 -10z"/>
<path d="M2417 1728 c-27 -20 -26 -67 1 -85 20 -14 22 -14 16 1 -4 10 1 25 11
36 30 34 7 74 -28 48z m23 -18 c0 -5 -4 -10 -10 -10 -5 0 -10 5 -10 10 0 6 5
10 10 10 6 0 10 -4 10 -10z"/>
<path d="M1276 1714 c-8 -22 -7 -34 3 -34 5 0 11 11 13 25 6 28 -6 34 -16 9z"/>
<path d="M2678 1724 c-5 -4 -8 -19 -8 -33 1 -23 2 -24 11 -8 11 19 9 53 -3 41z"/>
<path d="M583 1704 c4 -4 -11 -20 -34 -34 -22 -15 -40 -30 -40 -34 3 -19 -2
-25 -31 -37 -18 -7 -45 -22 -60 -32 -15 -11 -32 -16 -40 -12 -10 6 -10 5 -2
-4 15 -16 118 39 153 82 13 16 37 37 53 47 25 15 27 18 11 24 -9 4 -14 4 -10
0z"/>
<path d="M1990 1703 c0 -5 -18 -19 -40 -33 -21 -13 -38 -26 -36 -28 2 -1 25
10 50 27 26 16 42 32 37 36 -6 3 -11 2 -11 -2z"/>
<path d="M715 1669 c-4 -6 -5 -12 -2 -15 2 -3 7 2 10 11 7 17 1 20 -8 4z"/>
<path d="M1055 1661 c-3 -5 -1 -12 5 -16 5 -3 10 1 10 9 0 18 -6 21 -15 7z"/>
<path d="M2450 1654 c0 -8 5 -12 10 -9 6 3 10 10 10 16 0 5 -4 9 -10 9 -5 0
-10 -7 -10 -16z"/>
<path d="M820 1652 c0 -5 7 -9 15 -9 8 0 15 4 15 9 0 4 -7 8 -15 8 -8 0 -15
-4 -15 -8z"/>
<path d="M2210 1652 c0 -4 9 -8 20 -9 11 -1 18 2 15 8 -7 11 -35 12 -35 1z"/>
<path d="M2323 1645 c-3 -9 -3 -18 -1 -21 3 -3 8 4 11 16 6 23 -1 27 -10 5z"/>
<path d="M1470 1630 c-9 -6 -10 -10 -3 -10 6 0 15 5 18 10 8 12 4 12 -15 0z"/>
<path d="M150 1620 c-8 -5 -10 -10 -5 -10 6 0 17 5 25 10 8 5 11 10 5 10 -5 0
-17 -5 -25 -10z"/>
<path d="M270 1626 c0 -3 20 -19 45 -36 25 -17 45 -29 45 -26 0 3 -20 19 -45
36 -25 17 -45 29 -45 26z"/>
<path d="M1674 1621 c8 -12 96 -74 96 -67 0 2 -23 21 -51 41 -28 20 -48 32
-45 26z"/>
<path d="M100 1600 c-8 -5 -10 -10 -5 -10 6 0 17 5 25 10 8 5 11 10 5 10 -5 0
-17 -5 -25 -10z"/>
<path d="M1830 1575 c-30 -19 -50 -35 -44 -35 5 0 14 4 20 9 5 5 31 20 59 35
27 14 43 26 34 26 -8 0 -39 -16 -69 -35z"/>
<path d="M851 1560 c-8 -25 -7 -30 5 -30 8 0 12 4 9 10 -3 5 -1 19 5 30 6 11
7 20 1 20 -5 0 -14 -13 -20 -30z"/>
<path d="M2255 1575 c-3 -8 -7 -22 -10 -30 -2 -8 0 -15 5 -15 6 0 10 11 10 24
0 13 6 27 13 29 9 4 9 6 -1 6 -7 1 -15 -6 -17 -14z"/>
<path d="M1405 1560 c-3 -6 1 -7 9 -4 18 7 21 14 7 14 -6 0 -13 -4 -16 -10z"/>
<path d="M95 1519 c-38 -17 -71 -32 -73 -34 -2 -2 6 -18 18 -35 24 -34 26 -34
116 6 58 25 59 29 22 76 -12 16 -18 15 -83 -13z m86 -17 c5 -13 4 -22 -1 -22
-6 0 -10 9 -10 19 0 11 -5 22 -10 24 -6 3 -5 4 1 3 7 -1 16 -12 20 -24z m-27
-5 c6 -9 7 -19 3 -23 -9 -9 -37 15 -37 33 0 18 20 12 34 -10z m-46 -21 c9 -20
8 -25 -5 -30 -12 -5 -14 -1 -10 14 3 12 -1 24 -11 30 -15 8 -15 9 -1 10 9 0
21 -11 27 -24z m-38 -11 c7 -9 11 -17 8 -20 -2 -2 -12 4 -21 15 -9 11 -13 20
-8 20 5 0 14 -7 21 -15z"/>
<path d="M1488 1517 c-38 -17 -68 -35 -68 -41 1 -6 10 -22 21 -35 l20 -25 52
23 c29 13 60 25 70 28 23 7 21 27 -5 56 l-23 25 -67 -31z m91 -9 c6 -18 4 -25
-13 -34 -12 -6 -25 -7 -30 -3 -13 11 2 29 19 22 9 -3 15 1 15 11 0 21 -26 21
-34 0 -3 -8 -11 -12 -17 -8 -9 5 -6 11 6 21 27 19 44 16 54 -9z m-82 -25 c4
-10 11 -21 16 -24 5 -3 2 -9 -7 -12 -12 -5 -16 0 -16 17 0 14 -6 27 -12 29
-10 4 -10 6 0 6 7 1 16 -7 19 -16z m-27 -23 c6 -11 9 -20 7 -20 -2 0 -12 9
-22 20 -10 11 -13 20 -7 20 6 0 16 -9 22 -20z"/>
<path d="M778 1533 c7 -3 16 -2 19 1 4 3 -2 6 -13 5 -11 0 -14 -3 -6 -6z"/>
<path d="M2178 1533 c7 -3 16 -2 19 1 4 3 -2 6 -13 5 -11 0 -14 -3 -6 -6z"/>
<path d="M409 1493 l-24 -28 28 24 c25 23 32 31 24 31 -2 0 -14 -12 -28 -27z"/>
<path d="M1804 1488 l-29 -33 33 29 c17 17 32 31 32 33 0 8 -8 1 -36 -29z"/>
<path d="M1110 1486 c0 -2 7 -7 16 -10 8 -3 12 -2 9 4 -6 10 -25 14 -25 6z"/>
<path d="M2550 1480 c0 -5 5 -10 11 -10 5 0 7 5 4 10 -3 6 -8 10 -11 10 -2 0
-4 -4 -4 -10z"/>
<path d="M585 1473 c-40 -10 -40 -24 -1 -21 22 2 41 9 44 16 4 12 -7 14 -43 5z"/>
<path d="M1978 1473 c-16 -2 -28 -9 -28 -14 0 -14 73 -6 78 9 4 12 0 12 -50 5z"/>
<path d="M2550 1453 c0 -16 35 -43 57 -43 23 0 53 -29 53 -52 0 -9 7 -21 15
-28 10 -9 15 -9 15 -1 0 6 -4 11 -8 11 -4 0 -12 15 -17 33 -7 23 -18 35 -42
42 -17 6 -41 19 -52 29 -12 11 -21 15 -21 9z"/>
<path d="M492 1415 c7 -22 15 -42 19 -45 4 -3 9 -18 11 -33 l3 -29 16 29 c17
28 16 29 -22 73 l-39 45 12 -40z"/>
<path d="M1160 1443 c0 -14 46 -36 62 -30 8 3 6 6 -6 6 -11 1 -28 8 -38 18
-10 9 -18 12 -18 6z"/>
<path d="M1890 1410 c5 -18 15 -37 21 -41 6 -4 8 -16 4 -28 -9 -30 13 -27 27
5 11 23 8 28 -25 62 l-37 37 10 -35z"/>
<path d="M1157 1409 c7 -7 15 -10 18 -7 3 3 -2 9 -12 12 -14 6 -15 5 -6 -5z"/>
<path d="M1248 1400 c6 -8 12 -24 12 -36 0 -12 7 -27 15 -34 9 -8 15 -9 15 -2
0 6 -4 14 -10 17 -5 3 -10 14 -10 24 0 10 -8 25 -17 32 -15 11 -16 11 -5 -1z"/>
<path d="M256 1374 c-4 -14 -5 -28 -3 -31 3 -2 8 8 11 23 4 14 5 28 3 31 -3 2
-8 -8 -11 -23z"/>
<path d="M1210 1386 c0 -2 7 -7 16 -10 8 -3 12 -2 9 4 -6 10 -25 14 -25 6z"/>
<path d="M2615 1380 c3 -5 8 -10 11 -10 2 0 4 5 4 10 0 6 -5 10 -11 10 -5 0
-7 -4 -4 -10z"/>
<path d="M210 1344 c0 -5 7 -18 15 -28 8 -11 15 -16 15 -10 0 5 -7 18 -15 28
-8 11 -15 16 -15 10z"/>
<path d="M1814 1339 c-4 -7 -3 -9 4 -5 5 3 13 0 15 -6 4 -9 6 -10 6 -1 1 17
-16 25 -25 12z"/>
<path d="M1547 1319 c7 -7 15 -10 18 -7 3 3 -2 9 -12 12 -14 6 -15 5 -6 -5z"/>
<path d="M153 1313 c4 -3 1 -13 -6 -21 -7 -10 -8 -13 -1 -9 11 6 20 -14 30
-61 1 -8 6 -17 10 -20 4 -4 4 0 2 8 -3 8 -1 23 4 34 7 12 6 22 -2 30 -8 8 -9
6 -4 -8 5 -12 4 -17 -3 -13 -14 9 -24 47 -12 47 5 0 9 5 9 10 0 6 -7 10 -17
10 -9 0 -13 -3 -10 -7z"/>
<path d="M1840 1299 c0 -5 5 -7 10 -4 6 3 10 8 10 11 0 2 -4 4 -10 4 -5 0 -10
-5 -10 -11z"/>
<path d="M7 1293 c-8 -13 9 -64 26 -75 21 -14 33 -8 13 7 -10 8 -21 29 -25 47
-4 19 -10 28 -14 21z"/>
<path d="M1400 1278 c0 -26 35 -76 46 -66 3 4 -1 14 -10 23 -9 9 -16 27 -16
41 0 13 -4 24 -10 24 -5 0 -10 -10 -10 -22z"/>
<path d="M2407 1269 c-9 -5 -21 -7 -27 -4 -5 3 -14 -4 -20 -15 -9 -18 -8 -20
15 -20 14 0 25 4 25 9 0 5 9 11 20 14 11 3 20 10 20 16 0 14 -10 14 -33 0z"/>
<path d="M261 1254 c0 -11 3 -14 6 -6 3 7 2 16 -1 19 -3 4 -6 -2 -5 -13z"/>
<path d="M1970 1266 c0 -2 7 -7 16 -10 8 -3 12 -2 9 4 -6 10 -25 14 -25 6z"/>
<path d="M2289 1253 c-13 -16 -12 -17 4 -4 16 13 21 21 13 21 -2 0 -10 -8 -17
-17z"/>
<path d="M1515 1250 c-3 -5 -1 -10 4 -10 6 0 11 5 11 10 0 6 -2 10 -4 10 -3 0
-8 -4 -11 -10z"/>
<path d="M130 1241 c0 -5 7 -12 16 -15 14 -5 15 -4 4 9 -14 17 -20 19 -20 6z"/>
<path d="M1590 1231 c0 -4 37 -30 83 -57 45 -26 86 -53 90 -58 5 -7 6 -3 3 7
-3 10 -6 26 -6 35 0 10 -13 22 -32 28 -18 7 -57 21 -85 33 -29 11 -53 17 -53
12z"/>
<path d="M710 1191 c-14 -13 -19 -21 -13 -17 10 5 12 -1 10 -23 -2 -17 -7 -34
-12 -39 -5 -4 -5 -2 -1 5 3 6 1 15 -5 19 -8 5 -9 3 -4 -6 6 -10 3 -12 -11 -7
-18 7 -18 6 1 -9 11 -8 19 -20 18 -25 -2 -5 0 -9 5 -9 7 0 46 131 40 135 -2 0
-14 -10 -28 -24z"/>
<path d="M978 1190 c-10 -13 -18 -38 -18 -55 0 -16 -7 -48 -15 -71 -13 -37
-14 -139 -1 -151 3 -3 20 -3 39 1 l33 6 1 63 c1 79 12 106 71 175 30 36 40 53
27 48 -11 -5 -27 -9 -35 -10 -8 -1 -25 -8 -37 -14 -31 -17 -41 -15 -45 11 l-3
22 -17 -25z m19 -167 c-3 -10 -5 -4 -5 12 0 17 2 24 5 18 2 -7 2 -21 0 -30z"/>
<path d="M1610 1138 c0 -31 3 -39 10 -28 8 13 10 12 10 -3 0 -14 7 -18 28 -17
51 4 53 2 40 -21 -11 -17 -10 -22 7 -35 19 -14 19 -15 -3 -21 -18 -4 -22 -12
-20 -32 3 -24 6 -26 43 -23 22 1 57 9 77 17 35 14 39 13 65 -9 16 -13 34 -43
42 -70 12 -41 11 -57 -10 -153 -12 -60 -23 -122 -23 -140 -1 -17 -5 -29 -10
-26 -14 9 4 -68 20 -84 12 -13 14 -11 14 11 0 36 39 136 56 143 8 3 14 9 14
15 0 5 -4 6 -10 3 -5 -3 -10 -4 -10 -1 0 15 74 165 80 161 3 -2 14 5 23 15 16
19 15 21 -21 39 -20 11 -49 30 -64 43 -15 13 -50 39 -78 58 -27 19 -83 59
-123 88 -39 30 -91 67 -114 83 l-43 30 0 -43z"/>
<path d="M1140 1159 c0 -6 -9 -8 -20 -4 -17 5 -20 2 -20 -22 0 -15 7 -36 14
-46 14 -17 15 -17 22 5 4 13 9 28 10 33 1 6 5 18 9 28 4 10 3 17 -4 17 -6 0
-11 -5 -11 -11z"/>
<path d="M1269 1143 c-13 -16 -12 -17 4 -4 9 7 17 15 17 17 0 8 -8 3 -21 -13z"/>
<path d="M2629 1113 c-13 -16 -12 -17 4 -4 16 13 21 21 13 21 -2 0 -10 -8 -17
-17z"/>
<path d="M2257 1072 c-12 -2 -16 -9 -12 -19 3 -9 -2 -35 -11 -59 -16 -41 -18
-43 -37 -29 -12 8 -27 15 -33 15 -15 0 -54 -61 -47 -73 3 -5 14 6 24 23 l20
32 34 -26 33 -26 17 53 c10 28 24 57 31 63 20 16 5 51 -19 46z"/>
<path d="M2567 1069 c7 -7 15 -10 18 -7 3 3 -2 9 -12 12 -14 6 -15 5 -6 -5z"/>
<path d="M131 1024 c0 -11 3 -14 6 -6 3 7 2 16 -1 19 -3 4 -6 -2 -5 -13z"/>
<path d="M1285 1021 c-3 -5 -2 -12 3 -15 5 -3 9 1 9 9 0 17 -3 19 -12 6z"/>
<path d="M1416 1015 c-3 -8 -1 -15 4 -15 6 0 10 7 10 15 0 8 -2 15 -4 15 -2 0
-6 -7 -10 -15z"/>
<path d="M1491 997 c5 -19 9 -39 8 -44 -1 -4 0 -10 1 -13 7 -19 7 -39 -1 -34
-5 3 -6 10 -3 16 4 7 2 8 -5 4 -8 -5 -6 -15 7 -34 22 -32 29 -87 9 -76 -7 4
-9 3 -4 -2 5 -5 20 -9 33 -9 32 -1 31 13 -5 121 -30 88 -60 141 -40 71z"/>
<path d="M2686 1017 c3 -10 9 -15 12 -12 3 3 0 11 -7 18 -10 9 -11 8 -5 -6z"/>
<path d="M1345 999 c-4 -6 -17 -14 -29 -19 -14 -6 -16 -9 -5 -9 9 -1 24 8 34
19 10 11 15 20 12 20 -3 0 -9 -5 -12 -11z"/>
<path d="M137 993 c-13 -12 -7 -25 7 -14 10 9 16 8 26 -4 7 -9 19 -14 27 -11
7 3 13 -1 13 -9 0 -8 3 -15 8 -15 14 1 45 30 39 37 -4 3 -13 -2 -20 -12 -13
-17 -14 -17 -20 0 -5 10 -13 15 -22 11 -9 -3 -18 1 -21 9 -6 16 -26 20 -37 8z"/>
<path d="M1350 955 c0 -8 4 -15 10 -15 5 0 7 7 4 15 -4 8 -8 15 -10 15 -2 0
-4 -7 -4 -15z"/>
<path d="M595 919 c-4 -6 -5 -12 -2 -15 2 -3 7 2 10 11 7 17 1 20 -8 4z"/>
<path d="M990 891 c0 -5 -6 -11 -14 -13 -12 -2 -11 -7 3 -24 17 -21 17 -21 17
12 0 19 -1 34 -3 34 -2 0 -3 -4 -3 -9z"/>
<path d="M1198 846 c-16 -22 -16 -25 -2 -30 22 -8 68 15 72 37 5 27 -49 22
-70 -7z"/>
<path d="M2601 851 c-11 -11 -22 -17 -25 -13 -3 3 -6 2 -6 -1 0 -3 9 -11 20
-17 24 -13 80 12 80 35 0 22 -46 19 -69 -4z"/>
<path d="M585 841 c-4 -12 -4 -25 -1 -28 3 -3 -2 -12 -12 -19 -15 -11 -13 -12
13 -9 17 1 34 -2 38 -9 11 -15 -3 34 -18 63 l-12 25 -8 -23z"/>
<path d="M880 841 c0 -5 -9 -13 -20 -16 -26 -8 -25 -19 2 -45 l22 -21 18 23
c23 30 22 45 -2 58 -12 7 -20 7 -20 1z"/>
<path d="M2380 840 c0 -5 5 -10 10 -10 6 0 10 5 10 10 0 6 -4 10 -10 10 -5 0
-10 -4 -10 -10z"/>
<path d="M2078 812 c-21 -36 -31 -82 -18 -82 5 0 10 -6 10 -13 0 -18 59 -10
83 11 28 25 19 35 -12 13 l-29 -21 5 22 c5 19 3 21 -8 11 -17 -17 -37 -17 -21
-1 16 16 15 31 0 22 -7 -4 -4 2 6 14 13 15 26 20 41 16 23 -6 43 20 25 31 -6
4 -10 1 -10 -4 0 -14 -33 -14 -46 -1 -6 6 -15 0 -26 -18z"/>
<path d="M2448 833 c7 -3 16 -2 19 1 4 3 -2 6 -13 5 -11 0 -14 -3 -6 -6z"/>
<path d="M367 813 c-9 -2 -15 -9 -12 -14 3 -5 0 -6 -7 -4 -8 3 -21 0 -31 -7
-16 -12 -14 -20 29 -106 30 -58 53 -92 63 -92 9 0 31 9 48 20 25 15 31 24 25
37 -20 48 -87 173 -92 172 -3 -1 -13 -3 -23 -6z m58 -73 c14 -27 26 -57 28
-67 1 -10 7 -25 12 -33 7 -13 6 -13 -7 -2 -13 10 -22 11 -39 2 -27 -15 -42 -2
-74 69 l-24 51 27 15 c42 22 50 19 77 -35z m16 -123 c-13 -13 -26 -3 -16 12 3
6 11 8 17 5 6 -4 6 -10 -1 -17z"/>
<path d="M390 739 c0 -11 4 -18 10 -14 5 3 7 12 3 20 -7 21 -13 19 -13 -6z"/>
<path d="M360 730 c12 -23 58 -55 66 -47 9 9 -6 28 -16 22 -5 -3 -17 6 -26 20
-19 30 -40 34 -24 5z"/>
<path d="M670 800 c0 -5 5 -10 10 -10 6 0 10 5 10 10 0 6 -4 10 -10 10 -5 0
-10 -4 -10 -10z"/>
<path d="M1112 790 c-6 -11 -12 -27 -12 -35 0 -8 -4 -15 -10 -15 -5 0 -10 -7
-10 -15 0 -8 -17 -23 -37 -32 -36 -17 -38 -20 -41 -73 -2 -30 -7 -59 -13 -65
-5 -5 -9 -21 -9 -36 0 -22 4 -26 26 -23 14 1 27 4 28 6 35 67 66 138 66 154 0
11 4 24 9 30 13 13 42 116 31 109 -4 -3 -10 -1 -12 5 -2 6 -9 1 -16 -10z"/>
<path d="M2375 790 c3 -5 11 -10 16 -10 6 0 7 5 4 10 -3 6 -11 10 -16 10 -6 0
-7 -4 -4 -10z"/>
<path d="M1272 714 c-45 -42 -82 -80 -82 -85 0 -6 4 -8 10 -4 5 3 40 -10 78
-29 l69 -35 65 67 c101 105 99 96 29 131 -33 17 -67 31 -74 31 -8 0 -50 -34
-95 -76z m145 35 c26 -10 26 -12 8 -19 -11 -4 -26 -3 -33 3 -7 5 -15 7 -19 3
-3 -3 -1 -6 5 -6 7 0 12 -7 12 -15 0 -8 -7 -15 -15 -15 -8 0 -15 4 -15 9 0 6
-12 6 -32 0 -18 -5 -34 -9 -35 -9 -1 0 0 7 4 16 6 16 56 43 80 44 6 0 24 -5
40 -11z m-17 -84 c-59 -60 -64 -61 -134 -30 -31 13 -31 13 15 8 41 -5 49 -3
58 16 7 12 21 21 35 21 13 0 34 9 47 20 43 35 34 21 -21 -35z m-87 -6 c-17
-17 -37 -1 -22 17 8 10 15 12 23 4 7 -7 7 -13 -1 -21z"/>
<path d="M0 770 c0 -5 10 -15 22 -21 l23 -12 -23 -10 c-12 -6 -22 -19 -22 -30
0 -20 1 -19 28 4 l27 24 -27 -31 c-16 -16 -28 -41 -28 -54 0 -22 4 -20 50 25
53 53 60 69 33 78 -10 4 -33 13 -50 21 -18 8 -33 11 -33 6z"/>
<path d="M977 763 c-12 -11 -8 -23 8 -23 8 0 15 7 15 15 0 16 -12 20 -23 8z"/>
<path d="M1550 755 c7 -9 15 -13 17 -11 7 7 -7 26 -19 26 -6 0 -6 -6 2 -15z"/>
<path d="M636 745 c4 -11 11 -25 15 -31 5 -6 6 -14 2 -17 -3 -4 -1 -7 6 -7 15
0 5 38 -16 60 -12 13 -13 13 -7 -5z"/>
<path d="M698 743 c-20 -5 -21 -9 -8 -38 9 -20 9 -20 9 1 1 11 6 25 13 32 7 7
10 11 8 11 -3 -1 -13 -3 -22 -6z"/>
<path d="M2642 692 c-29 -27 -52 -51 -52 -54 0 -3 10 -8 23 -12 12 -3 32 -15
45 -26 12 -12 27 -18 32 -15 20 12 9 35 -22 50 l-33 15 35 -6 c32 -6 33 -5 20
10 -8 11 -10 20 -4 24 8 6 17 62 10 62 -1 0 -26 -22 -54 -48z"/>
<path d="M1155 710 c-3 -11 -11 -20 -16 -20 -5 0 -9 -9 -9 -20 0 -13 5 -18 15
-14 8 4 15 14 15 24 0 11 5 22 10 25 13 8 13 25 1 25 -5 0 -13 -9 -16 -20z"/>
<path d="M2544 706 c-12 -14 -18 -30 -14 -41 5 -14 8 -15 17 -3 11 13 29 68
22 68 -2 0 -13 -11 -25 -24z"/>
<path d="M71 662 c-59 -63 -77 -90 -37 -52 34 31 82 90 74 90 -2 0 -19 -17
-37 -38z"/>
<path d="M730 680 c0 -24 15 -27 24 -4 9 22 8 24 -9 24 -8 0 -15 -9 -15 -20z"/>
<path d="M1455 653 c-35 -40 -74 -95 -48 -68 53 54 104 115 97 114 -5 0 -27
-21 -49 -46z"/>
<path d="M640 665 c0 -2 10 -13 22 -25 15 -14 18 -20 7 -20 -10 -1 -9 -4 5
-15 17 -13 17 -15 2 -37 -24 -34 -19 -42 10 -14 30 27 28 56 -4 94 -17 20 -42
30 -42 17z"/>
<path d="M1580 660 c0 -5 5 -10 11 -10 5 0 7 5 4 10 -3 6 -8 10 -11 10 -2 0
-4 -4 -4 -10z"/>
<path d="M269 613 c-13 -16 -12 -17 4 -4 9 7 17 15 17 17 0 8 -8 3 -21 -13z"/>
<path d="M2602 589 c12 -35 18 -37 18 -5 0 13 -6 26 -14 29 -12 5 -13 1 -4
-24z"/>
<path d="M93 594 c-7 -18 11 -39 26 -30 17 11 13 46 -4 46 -9 0 -18 -7 -22
-16z"/>
<path d="M1208 585 c2 -14 6 -25 7 -25 1 0 5 11 7 25 3 16 1 25 -7 25 -8 0
-10 -9 -7 -25z"/>
<path d="M1491 596 c-8 -10 -8 -16 3 -25 10 -9 16 -8 26 3 12 15 6 36 -9 36
-5 0 -14 -6 -20 -14z"/>
<path d="M2091 587 c-13 -21 -12 -21 5 -5 10 10 16 20 13 22 -3 3 -11 -5 -18
-17z"/>
<path d="M1592 589 c-47 -57 -64 -81 -59 -85 3 -3 23 13 44 36 36 41 38 42 43
19 4 -15 9 -19 13 -12 4 6 -1 21 -11 33 -16 19 -20 21 -30 9z"/>
<path d="M173 560 c-34 -42 -41 -71 -9 -35 32 37 49 65 39 64 -4 0 -18 -13
-30 -29z"/>
<path d="M1244 578 c10 -6 22 -6 26 -2 5 5 -3 10 -18 11 -22 1 -24 0 -8 -9z"/>
<path d="M1280 568 c3 -3 19 -13 36 -21 25 -13 34 -14 42 -4 8 9 3 12 -16 13
-15 0 -36 4 -47 9 -11 4 -18 6 -15 3z"/>
<path d="M2678 563 c7 -3 16 -2 19 1 4 3 -2 6 -13 5 -11 0 -14 -3 -6 -6z"/>
<path d="M2159 523 c-13 -16 -12 -17 4 -4 16 13 21 21 13 21 -2 0 -10 -8 -17
-17z"/>
<path d="M1631 493 c-1 -12 -10 -27 -21 -33 -11 -6 -20 -15 -20 -21 0 -6 6 -6
19 0 15 9 18 7 16 -13 -2 -13 -9 -32 -16 -44 -11 -18 -10 -24 5 -41 11 -12 26
-21 34 -21 12 0 14 12 8 75 -4 42 -11 86 -16 98 l-9 22 0 -22z"/>
<path d="M1374 475 c-4 -9 -2 -21 4 -27 15 -15 41 -2 38 19 -4 23 -34 29 -42
8z m30 -2 c-5 -5 -12 -12 -16 -18 -4 -6 -8 -2 -8 8 0 9 7 17 17 17 9 0 12 -3
7 -7z"/>
<path d="M677 453 c-15 -29 -12 -49 9 -70 10 -10 15 -3 28 34 20 59 20 63 -4
63 -11 0 -25 -11 -33 -27z"/>
<path d="M2072 455 c-18 -39 3 -77 37 -68 36 10 62 73 30 73 -6 0 -7 -4 -4
-10 3 -5 2 -10 -3 -10 -14 0 -33 26 -25 33 3 4 0 7 -9 7 -8 0 -20 -11 -26 -25z"/>
<path d="M0 456 c0 -9 5 -16 10 -16 6 0 10 4 10 9 0 6 -4 13 -10 16 -5 3 -10
-1 -10 -9z"/>
<path d="M199 443 c-13 -15 -12 -15 9 -4 23 12 28 21 13 21 -5 0 -15 -7 -22
-17z"/>
<path d="M316 428 c2 -13 2 -17 -2 -10 -3 6 -10 12 -16 12 -6 0 -6 -6 2 -15 9
-11 17 -12 32 -4 15 8 17 13 7 25 -17 21 -28 17 -23 -8z"/>
<path d="M160 420 c-9 -6 -10 -10 -3 -10 6 0 15 5 18 10 8 12 4 12 -15 0z"/>
<path d="M1250 420 c0 -5 5 -10 10 -10 6 0 10 5 10 10 0 6 -4 10 -10 10 -5 0
-10 -4 -10 -10z"/>
<path d="M2650 420 c0 -5 5 -10 10 -10 6 0 10 5 10 10 0 6 -4 10 -10 10 -5 0
-10 -4 -10 -10z"/>
<path d="M270 412 c0 -5 7 -15 15 -22 8 -7 15 -8 15 -2 0 5 -7 15 -15 22 -8 7
-15 8 -15 2z"/>
<path d="M1214 395 c-3 -13 -4 -30 -1 -37 3 -7 6 -3 6 9 1 12 6 25 11 28 13 8
13 25 0 25 -5 0 -12 -11 -16 -25z"/>
<path d="M2614 406 c-3 -8 -4 -23 -1 -33 4 -14 5 -13 6 5 0 13 6 20 11 17 6
-3 10 1 10 9 0 20 -19 21 -26 2z"/>
<path d="M244 386 c-6 -6 -9 -18 -7 -26 3 -11 0 -10 -10 3 -13 15 -15 16 -21
2 -3 -9 0 -15 10 -15 8 0 12 -4 9 -10 -11 -17 3 -11 30 14 19 18 22 26 13 34
-9 7 -16 6 -24 -2z"/>
<path d="M450 345 c24 -25 49 -45 54 -45 6 0 -10 20 -34 45 -24 25 -49 45 -54
45 -6 0 10 -20 34 -45z"/>
<path d="M1310 346 c0 -13 -3 -31 -6 -40 -4 -12 0 -16 16 -16 20 0 22 4 16 31
-3 17 -6 35 -6 40 0 5 -4 9 -10 9 -5 0 -10 -11 -10 -24z"/>
<path d="M1012 328 c-20 -25 -18 -60 4 -82 22 -23 37 -20 24 3 -7 15 -6 23 5
35 22 21 19 56 -4 56 -10 0 -23 -6 -29 -12z m32 -19 c-3 -5 -10 -7 -15 -3 -5
3 -7 10 -3 15 3 5 10 7 15 3 5 -3 7 -10 3 -15z"/>
<path d="M1276 324 c-9 -23 -7 -44 3 -44 5 0 11 14 13 30 5 32 -6 41 -16 14z"/>
<path d="M2404 315 c-19 -28 -11 -60 18 -76 18 -10 19 -8 13 11 -4 14 -1 28
10 40 19 21 14 50 -9 50 -9 0 -23 -11 -32 -25z m32 -12 c-10 -10 -19 5 -10 18
6 11 8 11 12 0 2 -7 1 -15 -2 -18z"/>
<path d="M2671 314 c-13 -29 -6 -47 9 -24 9 14 14 50 7 50 -2 0 -9 -12 -16
-26z"/>
<path d="M1580 326 c0 -2 8 -10 18 -17 15 -13 16 -12 3 4 -13 16 -21 21 -21
13z"/>
<path d="M554 275 c-27 -19 -45 -35 -41 -35 7 0 63 38 92 62 24 21 -7 4 -51
-27z"/>
<path d="M1968 288 c-21 -12 -38 -25 -38 -30 0 -4 17 4 37 18 61 41 61 47 1
12z"/>
<path d="M670 255 c-10 -12 -10 -15 4 -15 9 0 16 7 16 15 0 8 -2 15 -4 15 -2
0 -9 -7 -16 -15z"/>
<path d="M1050 260 c0 -5 5 -10 10 -10 6 0 10 5 10 10 0 6 -4 10 -10 10 -5 0
-10 -4 -10 -10z"/>
<path d="M2450 260 c0 -5 5 -10 10 -10 6 0 10 5 10 10 0 6 -4 10 -10 10 -5 0
-10 -4 -10 -10z"/>
<path d="M2218 253 c6 -2 18 -2 25 0 6 3 1 5 -13 5 -14 0 -19 -2 -12 -5z"/>
<path d="M2321 234 c0 -11 3 -14 6 -6 3 7 2 16 -1 19 -3 4 -6 -2 -5 -13z"/>
<path d="M160 230 c-9 -6 -10 -10 -3 -10 6 0 15 5 18 10 8 12 4 12 -15 0z"/>
<path d="M1468 233 c7 -3 16 -2 19 1 4 3 -2 6 -13 5 -11 0 -14 -3 -6 -6z"/>
<path d="M271 227 c2 -1 13 -9 24 -17 19 -14 19 -14 6 3 -7 9 -18 17 -24 17
-6 0 -8 -1 -6 -3z"/>
<path d="M325 201 c-3 -6 11 -21 32 -35 32 -22 39 -24 52 -12 9 8 34 23 56 34
22 12 36 21 31 22 -4 0 -31 -12 -58 -27 -47 -26 -50 -26 -76 -10 -15 9 -26 21
-24 27 3 13 -5 13 -13 1z"/>
<path d="M2255 185 c-3 -8 -7 -22 -10 -30 -2 -8 0 -15 5 -15 6 0 10 11 10 24
0 13 6 27 13 29 9 4 9 6 -1 6 -7 1 -15 -6 -17 -14z"/>
<path d="M40 180 c-8 -5 -10 -10 -5 -10 6 0 17 5 25 10 8 5 11 10 5 10 -5 0
-17 -5 -25 -10z"/>
<path d="M656 154 c-4 -14 -5 -29 -2 -31 3 -3 8 7 12 21 3 15 4 29 1 32 -2 3
-8 -7 -11 -22z"/>
<path d="M1410 170 c-8 -5 -10 -10 -5 -10 6 0 17 5 25 10 8 5 11 10 5 10 -5 0
-17 -5 -25 -10z"/>
<path d="M83 119 c-35 -16 -63 -32 -63 -37 1 -14 39 -52 53 -52 12 0 123 46
136 56 7 6 -41 64 -52 63 -7 0 -40 -14 -74 -30z m98 -12 c5 -18 3 -27 -4 -28
-7 -1 -21 -3 -32 -4 -16 -2 -21 4 -20 24 0 26 16 33 24 10 2 -8 -1 -9 -10 -4
-8 5 -10 4 -6 0 4 -5 14 -10 22 -11 17 -3 21 31 5 39 -6 3 -5 4 2 3 6 -1 15
-14 19 -29z m-75 -33 c-3 -7 0 -15 7 -18 7 -2 4 -5 -6 -5 -13 -1 -17 5 -15 22
2 14 -2 21 -10 19 -8 -1 -11 2 -7 8 9 15 38 -9 31 -26z m-26 -26 c0 -4 -8 0
-18 10 -11 9 -17 21 -14 26 5 9 32 -21 32 -36z"/>
<path d="M618 143 c7 -3 16 -2 19 1 4 3 -2 6 -13 5 -11 0 -14 -3 -6 -6z"/>
<path d="M1483 120 c-35 -16 -63 -33 -63 -37 0 -5 7 -19 16 -32 19 -27 41 -25
117 9 52 23 55 29 31 65 -20 31 -24 30 -101 -5z m91 3 c8 -24 7 -33 0 -32 -4
0 -11 -5 -16 -13 -7 -10 -13 -8 -28 11 -17 20 -21 21 -26 7 -3 -9 -4 -22 -1
-30 9 -23 -29 -26 -48 -3 -14 16 -15 21 -4 28 8 5 17 9 22 9 4 0 9 0 12 0 3 0
19 9 37 19 42 25 45 25 52 4z"/>
<path d="M1549 128 c0 -2 -2 -13 -3 -25 -2 -16 1 -20 9 -13 7 5 15 6 20 2 4
-4 2 3 -4 16 -10 19 -19 27 -22 20z"/>
<path d="M1471 91 c-10 -6 -11 -13 -3 -27 10 -18 11 -18 17 -2 10 25 3 39 -14
29z"/>
<path d="M1640 139 c0 -6 -7 -9 -15 -5 -12 4 -13 2 -2 -17 6 -12 13 -24 15
-27 5 -8 22 24 22 43 0 9 -4 17 -10 17 -5 0 -10 -5 -10 -11z"/>
<path d="M2185 140 c-3 -5 -1 -10 4 -10 6 0 11 5 11 10 0 6 -2 10 -4 10 -3 0
-8 -4 -11 -10z"/>
<path d="M1110 96 c0 -2 8 -10 18 -17 15 -13 16 -12 3 4 -13 16 -21 21 -21 13z"/>
<path d="M2510 96 c0 -2 8 -10 18 -17 15 -13 16 -12 3 4 -13 16 -21 21 -21 13z"/>
<path d="M386 73 c-6 -14 -5 -15 5 -6 7 7 10 15 7 18 -3 3 -9 -2 -12 -12z"/>
<path d="M575 75 c-32 -15 -31 -16 13 -18 33 -1 55 10 47 24 -8 12 -23 10 -60
-6z"/>
<path d="M1987 76 c-16 -13 -16 -14 5 -19 22 -6 41 9 32 25 -7 11 -16 10 -37
-6z"/>
<path d="M1168 38 c21 -23 98 -47 86 -26 -3 4 -14 8 -26 8 -11 0 -34 10 -51
22 l-32 22 23 -26z"/>
<path d="M2568 39 c21 -24 89 -48 76 -27 -3 4 -15 8 -26 8 -12 0 -33 10 -47
23 l-26 22 23 -26z"/>
<path d="M489 31 c6 -10 7 -21 4 -25 -3 -3 4 -6 17 -6 l23 0 -23 25 c-28 30
-34 32 -21 6z"/>
<path d="M1957 36 c-4 -10 -1 -13 8 -9 8 3 12 9 9 14 -7 12 -11 11 -17 -5z"/>
<path d="M1150 20 c0 -5 5 -10 11 -10 5 0 7 5 4 10 -3 6 -8 10 -11 10 -2 0 -4
-4 -4 -10z"/>
<path d="M1616 17 c3 -10 9 -15 12 -12 3 3 0 11 -7 18 -10 9 -11 8 -5 -6z"/>
<path d="M2550 20 c0 -5 5 -10 11 -10 5 0 7 5 4 10 -3 6 -8 10 -11 10 -2 0 -4
-4 -4 -10z"/>
<path d="M615 10 c-3 -5 -1 -10 4 -10 6 0 11 5 11 10 0 6 -2 10 -4 10 -3 0 -8
-4 -11 -10z"/>
</g>
</svg>
