<?xml version="1.0" standalone="no"?>
<!DOCTYPE svg PUBLIC "-//W3C//DTD SVG 20010904//EN"
 "http://www.w3.org/TR/2001/REC-SVG-20010904/DTD/svg10.dtd">
<svg version="1.0" xmlns="http://www.w3.org/2000/svg"
 width="605.000000pt" height="586.000000pt" viewBox="0 0 605.000000 586.000000"
 preserveAspectRatio="xMidYMid meet">

<g transform="translate(0.000000,586.000000) scale(0.100000,-0.100000)"
fill="#000000" stroke="none">
<path d="M2413 5750 c-41 -9 -78 -34 -98 -63 -34 -53 -36 -117 -29 -952 l7
-820 702 0 702 0 6 170 c9 277 -2 1536 -14 1572 -13 40 -58 79 -107 93 -43 12
-1119 12 -1169 0z m1033 -168 c6 -4 16 -17 23 -30 10 -19 10 -28 -4 -48 l-15
-24 -453 0 c-347 0 -457 3 -469 13 -27 21 -30 51 -8 75 l21 22 447 0 c246 0
452 -4 458 -8z m-941 -442 c0 -198 -1 -205 -20 -205 -19 0 -20 8 -23 195 -1
107 0 201 3 208 3 7 13 12 22 10 16 -3 18 -21 18 -208z m626 -152 c107 -49
180 -154 187 -266 6 -84 -11 -139 -68 -222 -76 -109 -231 -290 -250 -290 -33
0 -251 265 -300 365 -35 73 -35 179 1 255 79 164 267 233 430 158z"/>
<path d="M2935 4836 c-44 -20 -72 -55 -86 -107 -34 -127 96 -236 211 -177 25
13 55 38 67 57 43 64 23 168 -40 213 -37 26 -111 33 -152 14z"/>
<path d="M845 5459 c-379 -59 -646 -409 -595 -781 23 -166 82 -280 215 -413
77 -77 104 -98 185 -137 114 -55 165 -69 289 -77 l95 -6 62 -120 c73 -139 98
-165 156 -165 32 0 47 7 74 34 39 39 42 66 23 188 l-11 71 122 116 122 116 34
145 c58 247 56 401 -6 571 -38 104 -88 180 -179 269 -84 84 -193 147 -296 174
-79 20 -215 27 -290 15z m182 -150 c201 -28 369 -159 445 -347 20 -49 23 -74
23 -187 -1 -109 -4 -140 -23 -190 -46 -125 -149 -242 -263 -300 -141 -72 -355
-73 -493 -3 -107 54 -204 152 -227 229 -11 34 -10 42 6 59 10 11 22 20 26 20
4 0 28 -28 52 -63 88 -123 213 -197 346 -205 226 -13 419 127 476 343 54 208
-51 429 -250 526 -68 33 -74 34 -190 34 -120 0 -122 0 -197 -38 -125 -62 -219
-184 -248 -324 -11 -52 -12 -53 -46 -53 -32 0 -34 2 -34 33 0 47 27 132 63
201 69 131 230 244 377 264 36 5 68 10 72 11 4 0 42 -4 85 -10z m30 -355 c163
-95 126 -340 -59 -384 -134 -33 -268 70 -268 205 0 167 179 266 327 179z"/>
<path d="M4855 5396 c-143 -29 -297 -94 -391 -167 -134 -103 -264 -259 -264
-315 0 -67 43 -114 106 -114 38 0 69 25 126 102 215 291 623 382 950 211 138
-72 265 -205 348 -363 21 -42 48 -84 58 -93 53 -48 141 -20 162 50 15 48 2 89
-66 202 -137 232 -340 392 -589 466 -112 33 -326 43 -440 21z"/>
<path d="M1877 5143 c-34 -4 -38 -7 -33 -26 3 -12 6 -30 6 -39 0 -14 8 -18 35
-18 35 0 35 0 35 45 0 25 -1 44 -2 43 -2 -1 -20 -3 -41 -5z"/>
<path d="M2000 5110 c0 -39 1 -40 35 -40 34 0 35 1 35 40 0 39 -1 40 -35 40
-34 0 -35 -1 -35 -40z"/>
<path d="M3882 5108 c3 -42 4 -43 41 -46 l37 -3 0 45 0 46 -41 0 -40 0 3 -42z"/>
<path d="M4040 5085 c0 -45 0 -45 34 -45 32 0 34 2 38 38 3 20 5 38 4 38 -1 1
-18 4 -38 8 l-38 7 0 -46z"/>
<path d="M4880 4991 c-97 -26 -181 -74 -255 -143 -131 -122 -155 -226 -63
-274 51 -26 99 -6 155 67 84 107 181 154 324 154 78 0 91 -3 161 -38 101 -49
167 -121 223 -242 31 -67 49 -94 69 -103 58 -26 124 -4 146 48 47 114 -134
381 -328 483 -125 66 -297 85 -432 48z"/>
<path d="M2110 4743 c-8 -3 -72 -28 -142 -55 -146 -57 -125 -30 -173 -233 -14
-60 -28 -115 -30 -122 -2 -7 82 31 188 83 l192 96 3 119 c3 123 2 126 -38 112z"/>
<path d="M3840 4621 l0 -119 88 -48 c375 -204 661 -476 853 -813 34 -60 40
-77 30 -90 -6 -9 -20 -34 -31 -56 -19 -39 -20 -68 -20 -1032 0 -683 3 -999 11
-1015 19 -41 59 -62 124 -66 l61 -4 12 -42 c21 -80 105 -165 191 -194 54 -19
144 -14 207 9 68 26 130 83 164 154 33 68 34 180 2 245 -49 100 -134 165 -232
177 l-50 6 0 -55 c0 -84 9 -116 34 -122 34 -8 76 -59 83 -99 16 -102 -94 -172
-185 -117 -58 35 -62 60 -62 349 0 227 2 260 16 265 9 3 140 6 292 6 215 -1
281 -4 295 -14 16 -12 17 -50 17 -530 l0 -516 -343 0 -344 0 -12 43 c-19 64
-67 147 -116 203 -96 111 -226 171 -393 181 -131 8 -224 -9 -321 -58 -309
-154 -410 -529 -220 -813 164 -246 440 -312 719 -171 113 57 232 208 265 335
l12 45 375 5 375 5 49 30 c34 21 56 44 72 75 l22 44 0 569 c0 537 -1 570 -19
605 -23 46 -46 67 -94 87 -30 13 -97 15 -419 15 l-383 0 -50 -26 -50 -26 40
43 c22 23 61 64 86 91 l46 48 403 0 c387 0 404 1 444 21 23 11 53 37 66 56
l25 37 3 553 c2 528 2 555 -17 590 -23 47 -46 68 -94 88 -31 13 -98 15 -424
15 l-388 0 -50 97 c-168 327 -434 619 -765 840 -121 81 -272 162 -377 204
l-23 9 0 -119z m1967 -1255 l23 -27 0 -424 c0 -233 -3 -431 -6 -440 -4 -8 -19
-22 -35 -31 -25 -12 -89 -14 -426 -11 l-397 4 -23 27 -23 27 0 423 c0 410 1
424 20 449 11 14 33 27 48 29 15 2 200 2 411 2 l385 -1 23 -27z m-827 -1481
c0 -58 -2 -65 -20 -65 -18 0 -20 7 -20 59 0 55 6 67 33 70 4 1 7 -28 7 -64z
m2 -252 c6 -110 4 -123 -23 -123 -17 0 -19 9 -19 110 0 101 2 110 19 110 16 0
19 -11 23 -97z m-280 -407 c167 -70 325 -311 249 -380 -38 -35 -62 -13 -101
96 -26 69 -100 146 -192 198 -66 38 -83 65 -52 87 23 17 53 17 96 -1z m-231
-106 c116 -22 210 -85 271 -179 30 -48 35 -80 16 -99 -25 -25 -53 -13 -83 34
-70 110 -155 159 -280 159 -44 0 -86 4 -92 8 -11 7 -19 57 -10 57 1 0 20 7 42
15 49 17 67 18 136 5z m-197 -162 l47 -68 57 0 c195 0 292 -218 174 -390 l-37
-55 -74 -3 c-96 -4 -156 17 -222 76 -118 106 -149 273 -76 417 25 51 70 107
78 97 3 -4 27 -37 53 -74z"/>
<path d="M4997 3313 c-12 -11 -8 -762 3 -784 10 -18 25 -19 385 -19 l375 0 0
405 0 405 -378 0 c-208 0 -382 -3 -385 -7z m640 -176 c-8 -53 -35 -107 -51
-107 -9 0 -16 5 -16 10 0 26 -38 3 -207 -122 -59 -44 -93 -76 -95 -90 -5 -33
-61 -47 -88 -23 -43 39 -13 112 42 101 24 -5 46 8 156 91 70 53 128 97 130 99
2 1 -2 11 -9 22 -24 39 -6 52 72 52 l72 0 -6 -33z m-91 -412 c25 -26 26 -52 2
-82 -15 -18 -64 -16 -83 3 -24 25 -16 76 15 91 34 17 37 17 66 -12z m-272 -7
c23 -32 20 -54 -10 -77 -54 -43 -124 29 -77 81 23 25 68 23 87 -4z"/>
<path d="M4962 4605 c-92 -28 -151 -92 -172 -186 -33 -147 87 -292 240 -291
100 0 182 49 224 134 68 136 -3 300 -148 343 -60 18 -87 18 -144 0z"/>
<path d="M3820 4248 c0 -72 14 -158 25 -158 16 0 69 60 90 100 l16 31 -53 24
c-66 31 -78 31 -78 3z"/>
<path d="M2090 4235 c-30 -13 -56 -29 -58 -37 -2 -8 12 -37 31 -64 24 -35 42
-50 60 -52 l27 -3 0 90 c0 50 -1 91 -2 90 -2 0 -28 -11 -58 -24z"/>
<path d="M1890 4129 c-25 -16 -46 -33 -48 -38 -3 -9 56 -111 64 -111 3 0 27
11 55 25 43 22 49 29 43 48 -10 34 -48 100 -59 103 -5 1 -30 -11 -55 -27z"/>
<path d="M4002 4125 c-12 -20 -25 -48 -28 -63 -5 -24 -1 -30 40 -50 26 -12 51
-22 56 -22 11 0 60 81 60 99 0 10 -85 71 -99 71 -4 0 -16 -16 -29 -35z"/>
<path d="M4195 4018 c-16 -33 -16 -33 12 -56 l28 -22 22 27 c25 30 24 34 -17
63 l-28 20 -17 -32z"/>
<path d="M1737 4009 c-26 -20 -27 -21 -11 -49 l17 -28 33 20 c32 19 32 19 16
48 -20 35 -19 35 -55 9z"/>
<path d="M5440 4020 c-37 -5 -39 -14 -20 -64 7 -19 14 -21 44 -18 36 4 36 5
30 41 -8 46 -12 48 -54 41z"/>
<path d="M411 3979 c-15 -43 -15 -44 14 -57 37 -17 39 -16 58 23 l17 35 -30
15 c-41 21 -47 19 -59 -16z"/>
<path d="M853 3913 c-43 -3 -56 -9 -72 -31 -32 -46 -82 -134 -78 -138 2 -3 81
-3 176 -2 l171 3 -37 64 c-44 74 -77 112 -95 109 -7 -1 -36 -3 -65 -5z"/>
<path d="M5461 3873 c-21 -4 -23 -8 -17 -46 4 -23 8 -42 9 -43 1 -1 17 1 35 3
30 5 32 7 32 49 0 47 -2 48 -59 37z"/>
<path d="M353 3831 c-10 -39 -10 -40 20 -50 42 -15 44 -15 56 20 15 43 14 46
-11 52 -13 2 -30 8 -39 11 -13 6 -19 -2 -26 -33z"/>
<path d="M1621 3768 c-68 -10 -119 -37 -164 -87 -71 -78 -67 -3 -67 -1398 0
-1188 -1 -1252 -17 -1246 -10 3 -27 14 -38 24 -11 10 -37 25 -58 34 l-37 15 0
260 0 260 -150 0 -150 0 0 -252 c0 -139 -4 -259 -9 -266 -5 -9 -26 -12 -65
-10 l-57 3 1 538 0 537 -170 0 -170 0 0 -535 c0 -469 -2 -535 -15 -535 -13 0
-15 20 -15 120 l0 121 -68 -3 -67 -3 0 -180 0 -180 407 -5 407 -5 57 -65 c97
-109 195 -208 279 -280 253 -216 614 -396 971 -485 206 -51 289 -60 589 -60
310 0 414 13 640 76 87 25 287 94 303 105 2 1 -20 32 -48 69 -99 131 -149 262
-153 401 l-2 74 -1077 0 -1076 0 -46 52 c-25 29 -46 55 -46 58 0 3 507 5 1127
5 l1126 0 16 47 c9 26 19 50 24 54 4 4 7 11 7 16 0 4 -461 8 -1025 8 l-1026 0
-24 25 -25 24 0 1121 0 1121 25 24 24 25 1235 0 c1135 0 1236 -1 1251 -17 9
-9 21 -27 26 -40 5 -14 9 -412 9 -946 l0 -922 155 0 155 0 0 1046 c0 1119 1
1102 -49 1165 -31 39 -80 73 -123 85 -45 12 -2715 18 -2797 7z m1432 -105 c25
-29 30 -68 13 -101 -27 -52 -82 -57 -127 -13 -36 36 -37 73 -4 106 30 31 93
34 118 8z m-388 -33 c0 -13 -68 -16 -505 -20 -356 -4 -511 -8 -525 -17 -30
-17 -60 -53 -84 -100 -15 -29 -26 -41 -36 -37 -37 14 3 105 68 158 l39 31 486
5 c268 3 503 3 522 0 22 -3 35 -11 35 -20z m-1985 -2045 l0 -465 -40 0 -40 0
0 465 0 465 40 0 40 0 0 -465z m440 -275 l0 -190 -36 0 c-29 0 -35 3 -30 16 3
9 6 94 6 190 l0 174 30 0 30 0 0 -190z m2050 -642 c26 -28 26 -72 0 -98 -18
-18 -33 -20 -170 -20 -147 0 -152 1 -175 25 -30 29 -32 64 -5 93 20 21 29 22
175 22 146 0 155 -1 175 -22z m446 -284 c-61 -19 -166 -47 -235 -61 -115 -25
-146 -27 -356 -28 -198 0 -246 3 -345 22 -108 21 -340 88 -340 98 0 3 312 5
693 4 l692 0 -109 -35z"/>
<path d="M186 3577 c-94 -54 -98 -77 -94 -630 l3 -442 28 -47 c50 -86 31 -83
537 -83 l445 0 37 23 c21 13 45 40 57 66 20 41 21 57 21 533 l0 490 -23 34
c-12 18 -38 44 -56 56 l-34 23 -441 0 c-438 0 -441 0 -480 -23z m749 -148 c4
-12 3 -25 -2 -30 -5 -5 -127 -8 -284 -7 l-274 3 -3 28 -3 27 280 0 c275 0 280
0 286 -21z m-27 -135 c14 -4 22 -14 22 -29 0 -15 -8 -25 -22 -29 -40 -10 -498
-7 -519 4 -21 12 -26 46 -6 53 17 8 498 8 525 1z m-513 -126 c61 -51 143 -120
184 -155 41 -35 80 -63 87 -63 7 0 36 21 66 48 29 26 82 72 118 102 36 30 91
78 123 107 58 53 91 65 115 41 9 -9 12 -77 12 -244 0 -219 -1 -233 -21 -258
l-20 -26 -395 0 -395 0 -24 25 -25 24 0 230 c0 195 2 232 16 245 8 9 23 16 33
16 9 0 66 -41 126 -92z"/>
<path d="M290 2985 l0 -167 93 84 94 83 -21 24 c-12 13 -54 50 -93 83 l-73 59
0 -166z"/>
<path d="M940 3073 c-47 -40 -85 -78 -85 -84 0 -5 38 -44 85 -85 l85 -74 3 80
c2 44 2 115 0 158 l-3 79 -85 -74z"/>
<path d="M2910 2205 l0 -835 560 0 560 0 0 185 0 185 -415 0 -415 0 0 644 0
644 -27 5 c-14 3 -80 6 -145 6 l-118 2 0 -836z"/>
<path d="M2410 3015 c-137 -27 -240 -83 -316 -169 -137 -156 -173 -419 -83
-610 32 -68 118 -157 186 -193 77 -41 127 -57 271 -87 156 -32 186 -46 207
-98 19 -50 13 -87 -21 -119 -24 -23 -32 -24 -141 -22 -145 3 -270 24 -395 67
l-98 33 0 -198 0 -197 48 -16 c154 -51 408 -80 592 -68 l95 7 1 472 2 473 -37
10 c-20 5 -83 18 -140 29 -171 33 -234 77 -234 164 0 57 28 103 78 127 33 16
62 20 146 20 57 0 120 -4 140 -9 l36 -8 5 196 c3 108 3 199 1 204 -7 12 -273
6 -343 -8z"/>
<path d="M1000 2160 c-27 -27 -25 -66 6 -96 27 -28 63 -27 97 3 41 38 6 113
-53 113 -17 0 -39 -9 -50 -20z"/>
<path d="M240 2070 l0 -40 40 0 40 0 0 40 0 40 -40 0 -40 0 0 -40z"/>
<path d="M245 1960 c-3 -5 -3 -25 0 -44 7 -33 8 -34 43 -29 21 3 38 7 39 7 1
1 0 19 -4 39 -5 34 -8 37 -39 37 -18 0 -36 -4 -39 -10z"/>
<path d="M1072 1954 c-47 -32 -12 -124 47 -124 29 0 71 43 71 72 0 60 -66 89
-118 52z"/>
<path d="M968 752 c-34 -21 -34 -29 -5 -64 l22 -27 28 24 28 25 -21 30 c-12
17 -22 30 -23 29 -1 0 -14 -8 -29 -17z"/>
<path d="M1043 626 l-28 -24 24 -26 c14 -14 27 -26 30 -26 3 0 19 12 35 26
l28 25 -23 25 c-28 30 -31 30 -66 0z"/>
</g>
</svg>
