<?xml version="1.0" standalone="no"?>
<!DOCTYPE svg PUBLIC "-//W3C//DTD SVG 20010904//EN"
 "http://www.w3.org/TR/2001/REC-SVG-20010904/DTD/svg10.dtd">
<svg version="1.0" xmlns="http://www.w3.org/2000/svg"
 width="947.000000pt" height="533.000000pt" viewBox="0 0 947.000000 533.000000"
 preserveAspectRatio="xMidYMid meet">

<g transform="translate(0.000000,533.000000) scale(0.100000,-0.100000)"
fill="#000000" stroke="none">
<path d="M5750 4617 c0 -90 4 -137 12 -145 9 -9 98 -12 338 -12 299 0 326 1
335 18 6 9 10 28 9 42 0 14 -1 71 -2 128 l-2 102 -94 0 -93 0 -121 -70 c-66
-39 -128 -73 -136 -76 -14 -5 -16 5 -16 70 l0 76 -115 0 -115 0 0 -133z"/>
<path d="M2934 4653 c-28 -21 -58 -45 -66 -53 -8 -8 -32 -28 -53 -45 -22 -16
-73 -58 -114 -93 -42 -34 -82 -67 -89 -73 -347 -283 -363 -298 -353 -318 12
-22 121 -395 121 -413 0 -8 25 -98 55 -199 31 -101 54 -196 52 -211 -4 -34
-38 -26 388 -83 187 -25 387 -52 444 -60 127 -18 131 -18 131 -2 0 10 -189
659 -257 882 -13 44 -45 150 -69 235 -73 248 -112 382 -126 428 l-13 43 -51
-38z"/>
<path d="M7581 4302 c-12 -23 4 -52 29 -52 25 0 41 30 29 53 -13 22 -46 22
-58 -1z"/>
<path d="M3270 4211 c0 -15 147 -512 154 -518 11 -11 53 37 82 95 25 48 29 68
28 132 -1 88 -27 153 -84 210 -50 50 -180 108 -180 81z"/>
<path d="M7597 4214 c-4 -4 -7 -79 -7 -166 0 -152 1 -158 20 -158 20 0 20 5
18 162 -3 151 -9 184 -31 162z"/>
<path d="M5732 3784 c-45 -81 -82 -152 -82 -159 0 -6 12 -18 26 -26 41 -22
137 -132 167 -191 30 -61 57 -157 57 -205 l0 -33 180 0 180 0 0 49 c0 59 -13
130 -41 221 l-21 70 -114 0 c-111 0 -114 1 -146 29 l-33 29 -3 161 -3 160 -33
21 c-19 11 -38 20 -43 20 -5 0 -46 -66 -91 -146z"/>
<path d="M6675 3834 c-214 -45 -359 -184 -358 -344 0 -93 59 -183 160 -243 18
-10 33 -22 33 -27 0 -4 -29 -20 -65 -35 -35 -16 -61 -33 -58 -38 10 -16 140 0
187 22 35 18 47 19 81 10 25 -7 92 -9 175 -7 115 5 146 9 210 33 235 87 333
256 249 430 -44 91 -176 174 -327 204 -72 15 -203 12 -287 -5z m210 -289 c46
-45 19 -118 -43 -118 -69 0 -99 80 -46 122 35 27 59 26 89 -4z m235 3 c27 -29
25 -64 -5 -93 -29 -30 -68 -32 -95 -5 -24 24 -26 77 -3 102 23 25 77 24 103
-4z m-465 -13 c30 -29 32 -64 5 -93 -43 -46 -120 -15 -120 48 0 64 70 91 115
45z"/>
<path d="M1305 3615 c-5 -2 -22 -6 -37 -9 -16 -4 -28 -11 -28 -17 0 -6 -11
-25 -24 -42 -28 -37 -56 -115 -56 -156 0 -95 71 -202 160 -240 27 -12 50 -25
50 -29 1 -26 17 -31 60 -18 35 11 44 18 42 32 -7 36 -65 229 -72 239 -7 10
-53 154 -66 208 -7 29 -13 36 -29 32z"/>
<path d="M4779 3406 c-62 -16 -169 -89 -289 -197 -55 -50 -100 -92 -100 -93 0
-6 651 182 660 191 14 13 -139 97 -195 107 -16 3 -51 -1 -76 -8z"/>
<path d="M5183 3185 c41 -145 111 -383 117 -395 5 -8 20 -15 33 -15 19 -1 24
4 22 17 -2 10 5 22 16 28 13 7 19 7 19 0 0 -5 7 -10 16 -10 9 0 12 -5 8 -12
-5 -7 -3 -8 6 -3 10 6 9 11 -5 22 -18 13 -18 13 1 28 10 8 29 18 42 21 12 3
22 10 22 14 0 9 -200 228 -260 285 -31 29 -41 35 -37 20z m157 -395 c-20 -13
-33 -13 -25 0 3 6 14 10 23 10 15 0 15 -2 2 -10z"/>
<path d="M2200 3140 c0 -5 -9 -10 -21 -10 -11 0 -28 -4 -37 -9 -9 -5 -33 -11
-52 -14 -29 -3 -358 -95 -368 -102 -3 -2 143 -233 154 -244 3 -3 11 1 17 10 7
8 55 53 107 99 52 47 108 99 125 115 16 17 52 49 79 72 41 36 47 46 42 68 -4
16 -13 25 -26 25 -11 0 -20 -4 -20 -10z"/>
<path d="M5896 3084 c-16 -154 -119 -313 -260 -399 -14 -9 -6 -28 65 -150 45
-77 87 -146 94 -154 21 -22 96 28 205 138 162 163 244 342 264 574 l5 57 -183
0 -183 0 -7 -66z"/>
<path d="M4244 2960 c-33 -39 -60 -74 -62 -79 -1 -4 10 -14 25 -21 49 -24 56
-32 41 -43 -9 -6 -7 -7 6 -3 29 10 175 -82 158 -98 -3 -4 0 -11 8 -16 25 -16
35 -11 14 6 -18 14 -18 15 6 9 19 -5 16 -1 -13 18 -22 13 -38 27 -37 31 5 12
-73 266 -80 266 -4 0 -34 -32 -66 -70z"/>
<path d="M8456 2942 c-187 -3 -206 -7 -206 -46 0 -44 13 -46 237 -46 l213 0
12 26 c16 34 0 58 -43 64 -19 3 -115 4 -213 2z"/>
<path d="M2315 2844 c-27 -25 -79 -70 -115 -99 -36 -30 -89 -75 -118 -100 -31
-26 -64 -45 -78 -45 -13 0 -24 -2 -24 -6 0 -3 17 -31 38 -62 21 -31 137 -212
257 -402 120 -190 219 -346 220 -348 5 -5 235 136 235 144 0 6 -39 101 -66
163 l-27 61 -23 -21 c-13 -12 -21 -26 -17 -32 4 -6 1 -7 -6 -3 -7 5 -21 0 -31
-9 -11 -10 -39 -20 -64 -22 -38 -5 -48 -2 -70 20 -20 20 -26 36 -26 69 0 41 4
47 82 121 53 51 78 81 72 87 -7 7 -40 -16 -96 -64 -48 -41 -96 -77 -108 -81
-56 -18 -130 27 -144 87 -11 47 18 89 127 188 99 89 123 117 113 127 -8 8 -76
-59 -69 -70 3 -6 1 -7 -5 -3 -12 7 -27 -4 -98 -67 -51 -46 -91 -59 -139 -46
-73 20 -100 123 -47 177 30 32 172 165 240 225 24 21 42 42 40 47 -2 4 -25
-12 -53 -36z"/>
<path d="M5466 2778 c3 -46 8 -85 10 -87 2 -2 4 35 4 82 0 55 -4 87 -11 87 -7
0 -8 -26 -3 -82z"/>
<path d="M8267 2789 c-24 -14 -22 -65 2 -79 12 -6 101 -10 220 -10 168 0 202
2 215 16 21 21 20 47 -2 68 -16 14 -45 16 -218 15 -110 0 -207 -5 -217 -10z"/>
<path d="M4246 2782 c-2 -4 4 -8 14 -8 10 0 16 4 14 8 -3 4 -9 8 -14 8 -5 0
-11 -4 -14 -8z"/>
<path d="M4330 2751 c0 -11 4 -22 9 -25 4 -3 6 6 3 19 -5 30 -12 33 -12 6z"/>
<path d="M5269 2768 c-5 -18 -6 -38 -1 -34 7 8 12 36 6 36 -2 0 -4 -1 -5 -2z"/>
<path d="M5230 2740 c-8 -5 -12 -12 -9 -15 4 -3 12 1 19 10 14 17 11 19 -10 5z"/>
<path d="M4370 2731 c0 -5 7 -12 16 -15 14 -5 15 -4 4 9 -14 17 -20 19 -20 6z"/>
<path d="M5186 2717 c-18 -13 -18 -14 0 -21 10 -4 15 -4 11 0 -4 4 -2 13 4 21
15 17 8 17 -15 0z"/>
<path d="M4464 2698 c-4 -6 -3 -8 3 -5 5 4 20 -3 31 -14 12 -11 22 -16 22 -11
0 17 -48 43 -56 30z"/>
<path d="M5147 2693 c-10 -9 -9 -23 1 -23 5 0 9 7 9 15 0 17 -1 18 -10 8z"/>
<path d="M5106 2672 c-3 -5 1 -9 9 -9 8 0 12 4 9 9 -3 4 -7 8 -9 8 -2 0 -6 -4
-9 -8z"/>
<path d="M4535 2662 c16 -16 87 -54 80 -42 -3 6 -25 20 -48 31 -23 12 -37 17
-32 11z"/>
<path d="M5080 2651 c0 -5 -13 -14 -30 -20 -16 -5 -30 -12 -30 -15 0 -3 11 -1
24 4 13 5 32 7 42 6 11 -2 14 -1 7 1 -7 2 -9 11 -6 19 3 8 2 14 -1 14 -3 0 -6
-4 -6 -9z"/>
<path d="M5452 2648 c-8 -8 -8 -15 -1 -24 7 -8 9 -75 7 -183 -2 -94 0 -171 5
-171 11 0 8 -78 -4 -86 -8 -4 -7 -9 2 -15 7 -4 11 -10 8 -14 -3 -3 -15 3 -27
12 -52 45 -62 52 -84 64 -28 14 -59 45 -52 52 3 3 -3 4 -13 4 -10 -1 -17 4
-15 11 1 8 -2 11 -8 7 -17 -10 -34 6 -19 17 10 7 9 8 -5 4 -12 -4 -27 1 -40
12 -23 20 -53 41 -104 74 -25 16 -30 23 -20 30 10 7 8 8 -7 7 -32 -2 -40 0
-61 19 -21 19 -119 65 -175 82 -27 8 -48 8 -80 -1 -24 -6 -54 -11 -67 -11 -13
0 -21 -2 -18 -5 3 -3 -27 -28 -66 -55 -54 -37 -73 -46 -79 -36 -6 9 -9 6 -9
-9 0 -21 -10 -28 -33 -24 -5 1 -6 -3 -2 -9 3 -5 2 -10 -4 -10 -5 0 -16 -6 -23
-12 -7 -7 -36 -31 -63 -53 -28 -22 -60 -50 -73 -63 -13 -12 -27 -20 -32 -17
-4 2 -10 -5 -13 -16 -4 -15 -11 -20 -22 -15 -9 3 -14 2 -11 -3 3 -4 -10 -23
-29 -41 -44 -43 -49 -103 -12 -138 l23 -22 606 0 c603 0 605 0 624 21 18 20
19 40 19 325 0 167 -2 304 -5 304 -4 0 -11 -5 -18 -12z m18 -8 c0 -5 -5 -10
-11 -10 -5 0 -7 5 -4 10 3 6 8 10 11 10 2 0 4 -4 4 -10z"/>
<path d="M8278 2653 c-22 -6 -35 -50 -21 -72 7 -11 28 -17 66 -19 50 -3 56 -5
67 -33 17 -40 47 -59 93 -59 51 0 76 15 93 56 13 32 17 34 63 34 53 0 81 17
81 50 0 40 -34 47 -235 48 -104 0 -198 -2 -207 -5z"/>
<path d="M4498 2623 c7 -3 16 -2 19 1 4 3 -2 6 -13 5 -11 0 -14 -3 -6 -6z"/>
<path d="M4964 2585 c-20 -15 -11 -18 20 -6 11 4 15 10 9 14 -5 3 -19 0 -29
-8z"/>
<path d="M4665 2558 c-16 -11 -21 -17 -10 -13 11 4 28 7 37 7 10 0 20 3 23 9
4 5 -2 6 -11 2 -12 -4 -15 -3 -10 5 9 15 7 15 -29 -10z"/>
<path d="M4914 2554 c-18 -15 -18 -15 2 -5 12 6 25 7 29 3 5 -4 5 -1 1 6 -9
15 -8 15 -32 -4z"/>
<path d="M4190 2190 c0 -5 4 -10 9 -10 6 0 13 5 16 10 3 6 -1 10 -9 10 -9 0
-16 -4 -16 -10z"/>
<path d="M1209 2118 c-149 -125 -445 -373 -469 -394 -25 -22 -277 -232 -582
-488 l-158 -131 0 -552 0 -553 53 0 52 0 170 143 c169 141 478 400 979 821
144 120 368 308 499 418 130 109 237 202 237 206 0 5 -15 19 -32 32 -36 26
-635 526 -656 547 -7 7 -15 13 -16 13 -2 0 -36 -28 -77 -62z"/>
</g>
</svg>
