<?xml version="1.0" standalone="no"?>
<!DOCTYPE svg PUBLIC "-//W3C//DTD SVG 20010904//EN"
 "http://www.w3.org/TR/2001/REC-SVG-20010904/DTD/svg10.dtd">
<svg version="1.0" xmlns="http://www.w3.org/2000/svg"
 width="600.000000pt" height="450.000000pt" viewBox="0 0 600.000000 450.000000"
 preserveAspectRatio="xMidYMid meet">

<g transform="translate(0.000000,450.000000) scale(0.100000,-0.100000)"
fill="#000000" stroke="none">
<path d="M2658 3006 l-3 -275 38 -20 37 -20 0 40 c0 21 4 39 8 39 17 0 139
-71 171 -100 38 -34 53 -37 71 -15 7 8 19 15 26 15 20 0 17 17 -3 29 -25 13
-11 23 21 15 44 -11 33 -39 -28 -70 l-54 -27 -28 27 c-16 14 -32 26 -36 26 -5
0 -8 -54 -8 -120 l0 -121 -56 36 c-31 20 -61 34 -67 32 -12 -4 -26 -66 -172
-722 -94 -423 -103 -471 -89 -482 28 -20 62 3 69 48 4 22 9 39 11 39 3 0 41
-21 85 -46 l81 -47 -8 -46 c-12 -80 -11 -86 17 -89 33 -4 44 11 58 73 6 28 42
190 80 360 39 171 82 362 96 425 14 63 41 181 59 263 18 81 31 147 29 147 -2
0 -13 -5 -23 -10 -13 -7 -21 -7 -25 0 -16 25 -33 6 -45 -49 -12 -58 -13 -59
-36 -49 -23 11 -24 14 -24 140 0 70 2 128 5 128 6 0 63 -32 114 -64 45 -29 77
-32 104 -12 15 12 17 38 17 285 0 149 -3 271 -8 271 -4 0 -17 -6 -28 -14 -18
-13 -36 -5 -209 96 -105 60 -202 116 -217 124 l-27 14 -3 -274z m231 -252
c-19 -23 -29 -16 -29 21 0 22 6 37 18 44 14 8 17 5 20 -20 2 -17 -2 -37 -9
-45z m45 -480 c9 -3 16 -13 16 -21 0 -20 -34 -12 -38 10 -4 19 -1 20 22 11z
m-44 -164 c21 -16 22 -19 9 -73 -6 -32 -14 -57 -16 -57 -5 0 -175 100 -183
107 -3 2 3 9 12 14 9 5 20 24 23 42 4 17 9 35 12 40 5 8 102 -42 143 -73z m32
48 c-6 -6 -15 -7 -22 -3 -8 5 -6 11 7 20 20 15 32 0 15 -17z m-121 -177 l76
-43 -8 -45 c-15 -77 -15 -77 -112 -22 -78 45 -105 69 -77 69 5 0 12 17 16 38
8 42 13 54 23 50 3 -2 41 -23 82 -47z m-44 -157 c43 -25 80 -47 81 -49 8 -7
-10 -85 -18 -80 -4 3 -6 -4 -3 -15 3 -11 1 -20 -3 -20 -5 0 -51 24 -103 54
-77 45 -89 55 -72 61 13 4 21 15 21 28 0 24 10 67 16 67 2 0 38 -21 81 -46z
m-26 -169 l77 -45 -9 -38 c-4 -21 -12 -48 -16 -60 l-8 -21 -37 22 c-21 12 -63
37 -94 56 -46 26 -54 35 -42 42 9 5 19 27 23 49 4 22 12 40 18 40 7 0 46 -20
88 -45z m-41 -160 c74 -42 75 -44 72 -80 -2 -20 -7 -47 -12 -60 l-9 -24 -88
50 c-48 28 -89 52 -91 54 -2 2 3 14 11 27 8 12 17 35 21 51 4 15 10 27 14 26
4 0 41 -20 82 -44z"/>
<path d="M3697 2733 c-12 -11 -8 -543 3 -543 6 0 10 98 10 275 0 151 -1 275
-3 275 -2 0 -7 -3 -10 -7z"/>
<path d="M2581 2714 c0 -11 3 -14 6 -6 3 7 2 16 -1 19 -3 4 -6 -2 -5 -13z"/>
<path d="M4254 2600 c0 -52 1 -74 3 -47 2 26 2 68 0 95 -2 26 -3 4 -3 -48z"/>
<path d="M2581 2624 c0 -11 3 -14 6 -6 3 7 2 16 -1 19 -3 4 -6 -2 -5 -13z"/>
<path d="M2582 2530 c0 -14 2 -19 5 -12 2 6 2 18 0 25 -3 6 -5 1 -5 -13z"/>
<path d="M2582 2440 c0 -14 2 -19 5 -12 2 6 2 18 0 25 -3 6 -5 1 -5 -13z"/>
<path d="M1796 2376 l-60 -34 -53 30 -53 30 0 -64 0 -64 56 -32 56 -32 59 32
59 33 0 67 c0 38 -1 68 -2 68 -2 0 -30 -15 -62 -34z"/>
<path d="M3141 2394 c0 -11 3 -14 6 -6 3 7 2 16 -1 19 -3 4 -6 -2 -5 -13z"/>
<path d="M3141 2304 c0 -11 3 -14 6 -6 3 7 2 16 -1 19 -3 4 -6 -2 -5 -13z"/>
<path d="M3142 2210 c0 -14 2 -19 5 -12 2 6 2 18 0 25 -3 6 -5 1 -5 -13z"/>
<path d="M3142 2120 c0 -14 2 -19 5 -12 2 6 2 18 0 25 -3 6 -5 1 -5 -13z"/>
<path d="M1542 2064 l3 -66 57 -31 57 -32 58 32 58 32 3 66 3 66 -33 -18 c-18
-9 -36 -16 -40 -15 -5 1 -8 -2 -8 -7 0 -25 -43 -21 -94 8 -29 17 -56 31 -60
31 -4 0 -6 -30 -4 -66z"/>
<path d="M3690 2069 c0 -11 5 -17 10 -14 6 3 10 13 10 21 0 8 -4 14 -10 14 -5
0 -10 -9 -10 -21z"/>
<path d="M3690 1979 c0 -11 5 -17 10 -14 6 3 10 13 10 21 0 8 -4 14 -10 14 -5
0 -10 -9 -10 -21z"/>
<path d="M3697 1904 c-4 -4 -7 -14 -7 -23 0 -11 3 -12 11 -4 6 6 10 16 7 23
-2 6 -7 8 -11 4z"/>
<path d="M3695 1807 c-4 -10 -5 -21 -1 -24 10 -10 18 4 13 24 -4 17 -4 17 -12
0z"/>
<path d="M1933 1543 c-9 -3 -13 -32 -13 -95 0 -78 2 -89 16 -84 9 3 18 6 20 6
2 0 4 41 4 90 0 50 -3 90 -7 89 -5 0 -14 -3 -20 -6z"/>
<path d="M1345 1301 c-203 -118 -203 -112 3 -232 l153 -89 159 92 c107 62 160
98 160 110 0 9 -12 25 -27 36 -28 19 -293 173 -296 171 -1 0 -69 -40 -152 -88z
m208 -52 c40 -23 74 -44 76 -46 8 -6 -21 -29 -67 -54 -37 -20 -46 -21 -64 -10
-15 9 -23 10 -31 2 -17 -17 -27 -13 -27 12 0 17 -10 28 -35 40 -19 9 -35 21
-35 26 0 7 93 68 108 70 2 1 36 -18 75 -40z"/>
<path d="M2193 1047 l-53 -31 0 -69 0 -68 60 33 60 33 0 67 c0 38 -3 68 -7 67
-5 0 -32 -15 -60 -32z"/>
<path d="M4310 861 c-19 -10 -215 -121 -435 -249 -392 -226 -401 -232 -423
-277 -12 -25 -22 -50 -22 -55 0 -6 27 -10 59 -10 59 0 61 1 452 226 217 125
413 237 437 251 45 26 50 39 28 82 -22 41 -55 52 -96 32z"/>
<path d="M2494 656 c-3 -8 -3 -19 0 -25 8 -12 302 -181 315 -181 5 0 77 39
160 87 132 77 151 91 151 113 0 14 -4 20 -8 15 -10 -14 -62 -47 -62 -40 0 4
-7 -1 -16 -9 -8 -9 -22 -16 -30 -16 -8 0 -14 -5 -14 -12 0 -6 -3 -9 -6 -5 -3
3 -15 -3 -27 -13 -11 -11 -24 -17 -29 -14 -4 3 -8 1 -8 -4 0 -9 -50 -37 -62
-34 -5 1 -8 -2 -8 -7 0 -38 -99 6 -318 141 -28 17 -33 18 -38 4z"/>
<path d="M4898 449 c-116 -67 -158 -96 -158 -110 0 -11 -3 -19 -6 -19 -3 0
-74 40 -158 88 -142 83 -154 88 -174 74 -53 -35 -15 -77 167 -182 79 -46 149
-83 155 -83 6 0 80 39 164 88 129 74 152 91 152 111 0 13 -4 24 -10 24 -19 0
-10 39 10 45 13 4 20 15 20 31 0 13 -1 24 -2 24 -2 0 -74 -41 -160 -91z"/>
</g>
</svg>
