<svg width="14" height="13" viewBox="0 0 14 13" fill="none" xmlns="http://www.w3.org/2000/svg">
<path d="M7.105 2.99512C8.82766 2.99512 10.2495 4.41699 10.2495 6.13965C10.2495 7.88965 8.82766 9.28418 7.105 9.28418C5.355 9.28418 3.96047 7.88965 3.96047 6.13965C3.96047 4.41699 5.355 2.99512 7.105 2.99512ZM7.105 8.19043C8.2261 8.19043 9.12844 7.28809 9.12844 6.13965C9.12844 5.01855 8.2261 4.11621 7.105 4.11621C5.95657 4.11621 5.05422 5.01855 5.05422 6.13965C5.05422 7.28809 5.98391 8.19043 7.105 8.19043ZM11.0972 2.88574C11.0972 3.2959 10.7691 3.62402 10.3589 3.62402C9.94875 3.62402 9.62063 3.2959 9.62063 2.88574C9.62063 2.47559 9.94875 2.14746 10.3589 2.14746C10.7691 2.14746 11.0972 2.47559 11.0972 2.88574ZM13.1753 3.62402C13.23 4.63574 13.23 7.6709 13.1753 8.68262C13.1206 9.66699 12.9019 10.5146 12.1909 11.2529C11.48 11.9639 10.605 12.1826 9.62063 12.2373C8.60891 12.292 5.57375 12.292 4.56204 12.2373C3.57766 12.1826 2.73 11.9639 1.99172 11.2529C1.28079 10.5146 1.06204 9.66699 1.00735 8.68262C0.952661 7.6709 0.952661 4.63574 1.00735 3.62402C1.06204 2.63965 1.28079 1.76465 1.99172 1.05371C2.73 0.342773 3.57766 0.124023 4.56204 0.0693359C5.57375 0.0146484 8.60891 0.0146484 9.62063 0.0693359C10.605 0.124023 11.48 0.342773 12.1909 1.05371C12.9019 1.76465 13.1206 2.63965 13.1753 3.62402ZM11.8628 9.74902C12.1909 8.95605 12.1089 7.04199 12.1089 6.13965C12.1089 5.26465 12.1909 3.35059 11.8628 2.53027C11.6441 2.01074 11.2339 1.57324 10.7144 1.38184C9.89407 1.05371 7.98 1.13574 7.105 1.13574C6.20266 1.13574 4.2886 1.05371 3.49563 1.38184C2.94875 1.60059 2.5386 2.01074 2.31985 2.53027C1.99172 3.35059 2.07375 5.26465 2.07375 6.13965C2.07375 7.04199 1.99172 8.95605 2.31985 9.74902C2.5386 10.2959 2.94875 10.7061 3.49563 10.9248C4.2886 11.2529 6.20266 11.1709 7.105 11.1709C7.98 11.1709 9.89407 11.2529 10.7144 10.9248C11.2339 10.7061 11.6714 10.2959 11.8628 9.74902Z" fill="white"/>
</svg>
