<svg width="14" height="13" viewBox="0 0 14 13" fill="none" xmlns="http://www.w3.org/2000/svg">
<path d="M3.71438 12.3896H1.17141V4.21387H3.71438V12.3896ZM2.42922 3.12012C1.63625 3.12012 0.980005 2.43652 0.980005 1.61621C0.980005 0.823242 1.63625 0.166992 2.42922 0.166992C3.24954 0.166992 3.90579 0.823242 3.90579 1.61621C3.90579 2.43652 3.24954 3.12012 2.42922 3.12012ZM13.2027 12.3896H10.687V8.4248C10.687 7.46777 10.6597 6.26465 9.34719 6.26465C8.03469 6.26465 7.84329 7.27637 7.84329 8.34277V12.3896H5.30032V4.21387H7.73391V5.33496H7.76125C8.11672 4.70605 8.93704 4.02246 10.1675 4.02246C12.7378 4.02246 13.23 5.71777 13.23 7.90527V12.3896H13.2027Z" fill="white"/>
</svg>
