<svg width="15" height="12" viewBox="0 0 15 12" fill="none" xmlns="http://www.w3.org/2000/svg">
<path d="M12.6508 3.2959C12.6508 3.43262 12.6508 3.54199 12.6508 3.67871C12.6508 7.47949 9.77969 11.8271 4.50234 11.8271C2.86172 11.8271 1.35781 11.3623 0.0999999 10.542C0.31875 10.5693 0.5375 10.5967 0.783594 10.5967C2.12344 10.5967 3.35391 10.1318 4.33828 9.36621C3.08047 9.33887 2.01406 8.51855 1.65859 7.37012C1.85 7.39746 2.01406 7.4248 2.20547 7.4248C2.45156 7.4248 2.725 7.37012 2.94375 7.31543C1.63125 7.04199 0.646875 5.89355 0.646875 4.49902V4.47168C1.02969 4.69043 1.49453 4.7998 1.95937 4.82715C1.16641 4.30762 0.674219 3.43262 0.674219 2.44824C0.674219 1.90137 0.810937 1.40918 1.05703 0.999023C2.47891 2.72168 4.61172 3.87012 6.99062 4.00684C6.93594 3.78809 6.90859 3.56934 6.90859 3.35059C6.90859 1.76465 8.19375 0.479492 9.77969 0.479492C10.6 0.479492 11.3383 0.807617 11.8852 1.38184C12.5141 1.24512 13.143 0.999023 13.6898 0.670898C13.4711 1.35449 13.0336 1.90137 12.432 2.25684C13.0062 2.20215 13.5805 2.03809 14.0727 1.81934C13.6898 2.39355 13.1977 2.88574 12.6508 3.2959Z" fill="white"/>
</svg>
